<svg xmlns="http://www.w3.org/2000/svg">
<defs>
<font id="SPArmageddon" horiz-adv-x="0" >
  <font-face 
    font-family="SPArmageddon"
    font-weight="400"
    font-stretch="normal"
    units-per-em="2048"
    panose-1="2 0 0 0 0 0 0 0 0 0"
    ascent="1638"
    descent="-410"
    x-height="868"
    cap-height="1057"
    bbox="-1148 -801 2486 1880"
    underline-thickness="52"
    underline-position="-84"
    unicode-range="U+0020-25CC"
  />
<missing-glyph horiz-adv-x="1536" 
d="M256 0v1280h1024v-1280h-1024zM298 32h940q10 0 10 10v1196q0 10 -10 10h-940q-10 0 -10 -10v-1196q0 -10 10 -10zM715 -2h-2v-1h2h-2v1h2zM769 -2v-2h-3v2h3zM769 -4v2h-3v-2h3zM780 -2v-1h1v-1v1h-4v-1v1h1v1h2zM778 -3h2v1h-2v-1zM798 -2h-3v-2h3v1h-2h2v-1h-3v2h3z
M799 -2v-1h3v1v-2v1h-3v-1v2zM717 -1v-3h-6v3h6zM717 -4v3h-6v-3h6zM732 -2v-2h-3v2h3zM732 -4v2h-3v-2h3zM770 -2v-2h3h-3v2zM843 -2v-2h-3v1h3v1zM843 -4v1h-3v-1h3zM834 -2v-2h1v2v-2h-1v2zM803 -2h4h-2v-2v2h-2zM757 -2h3v-2h-3v1h3v1h-3zM757 -4h3v1h-3v-1zM765 -2v-1
h-3v-1v2h3zM762 -3h3v1h-3v-1zM794 -2v-1v1zM794 -3v-1v1zM724 -4h-3h3zM724 -2v-1h-3v-1v1h3v1h-3h3zM677 -2h-3v-2h3h-3v2h3zM728 -2v-2h-3v2h3zM728 -4v2h-3v-2h3zM685 -2v-1h-3v-1v2h3zM682 -3h3v1h-3v-1zM681 -2v-2h-3v2h3zM681 -4v2h-3v-2h3zM745 -2v-1h4v1v-1h-2v-1
v1h-2v1zM785 -2v-2h2h-2v2zM782 -2v-2h2h-2v2zM753 -4v2h3v-2v2h-3v-2zM816 -2v-1h1v-1v1h-3v-1v2h2zM814 -3h2v1h-2v-1zM761 -2v-1v1zM761 -3v-1v1zM699 -2h-3v-2h3v1h-2h2v-1h-3v2h3zM700 -2v-1h3v1v-2v1h-3v-1v2zM704 -2h4h-2v-2v2h-2zM695 -2v-2v1v1zM693 -2v-1h1v-1v1
h-3v-1v2h2zM691 -3h2v1h-2v-1zM832 -2v-1h1v-1v1h-3v-1v2h2zM830 -3h2v1h-2v-1zM836 -4h3h-3zM836 -3h3h-3zM836 -2h3h-3zM741 -4h3h-3zM743 -2v-1h1v-1v1h-3v-1v1v1h2zM741 -3h2v1h-2v-1zM829 -4h-3h3zM826 -3h3h-3zM826 -2h3h-3zM822 -3h3v-1h-3h3v1h-3zM822 -2h3h-3v-1v1
zM733 -3h3v-1h-3h3v1h-3zM733 -2h3h-3v-1v1zM818 -4h3h-3zM818 -3h3h-3zM818 -2h3h-3zM792 -2v-1h1v-1v1h-3v-1v2h2zM790 -3h2v1h-2v-1zM686 -2v-1h4v1v-1h-2v-1v1h-2v1zM808 -3h3v-1h-3h3v1h-3zM808 -2h3h-3v-1v1z" />
    <glyph glyph-name="quotedblleft" unicode="&#x91;&#x91;" horiz-adv-x="673" 
d="M311 1182l-112 -244h84v-190h-197v180l135 254h90zM573 1182l-112 -244h84v-190h-197v180l135 254h90z" />
    <glyph glyph-name="quotedblright" unicode="&#x92;&#x92;" horiz-adv-x="673" 
d="M362 748l113 245h-86v189h198v-181l-135 -253h-90zM100 748l113 245h-86v189h198v-181l-137 -253h-88z" />
    <glyph glyph-name="copyright" unicode="&#x3b;&#x3b;For&#x20;Education&#x20;Used&#x20;Only&#x3b;&#x3b;" horiz-adv-x="1196" 
d="M1178 543q0 -242 -169 -411q-171 -167 -409 -167q-244 0 -413 167q-169 169 -169 411q0 239 169 408.5t413 169.5q240 0 409 -169.5t169 -408.5zM1058 543q0 190 -134 324t-324 134q-192 0 -329 -134q-133 -132 -133 -324q0 -195 134 -329t328 -134q190 0 324 134
t134 329zM872 467l-3 -180q-61 -52 -120.5 -77.5t-127.5 -25.5q-146 0 -241.5 101.5t-95.5 251.5q0 145 97 248q96 102 242 102q128 0 235 -93l4 -170q-141 144 -241 144q-90 0 -152.5 -68.5t-62.5 -162.5q0 -97 61 -166q62 -67 151 -67q58 0 106.5 25t147.5 138z" />
    <glyph glyph-name="registered" unicode="&#x3b;&#x3b;Registered&#x3b;&#x3b;" horiz-adv-x="1196" 
d="M1178 543q0 -242 -169 -411q-171 -167 -409 -167q-244 0 -413 167q-169 169 -169 411q0 239 169 408.5t413 169.5q240 0 409 -169.5t169 -408.5zM1058 543q0 190 -134 324t-324 134q-192 0 -329 -134q-133 -132 -133 -324q0 -195 134 -329t328 -134q190 0 324 134
t134 329zM902 672q0 -98 -59.5 -144.5t-109.5 -46.5l184 -279h-149l-174 279h-102v-279h-120v657h289q126 0 183.5 -48t57.5 -139zM784 674q0 34 -37 49.5t-102 15.5h-153v-139h94h53q78 0 105 13q40 15 40 61z" />
    <glyph glyph-name="trademark" unicode="&#x3b;&#x3b;Trademark&#x3b;&#x3b;" horiz-adv-x="873" 
d="M235 1141v-290h-64v290h-161v51h387v-51h-162zM464 1129q0 -8 1 -21q1 -21 1 -27v-230h-53v341h53l169 -221l156 221h60v-341h-60v230q0 13 1 24.5t3 22.5q-5 -16 -11 -28t-11 -19l-131 -176h-17l-136 175q-7 9 -13.5 21t-11.5 28z" />
    <glyph glyph-name="multiply" unicode="&#x3b;&#x3b;Multiply&#x3b;&#x3b;" horiz-adv-x="1214" 
d="M70 93l436 444l-443 424h222l313 -315l287 315h202l-399 -403l488 -465h-230l-350 352l-315 -352h-211z" />
    <glyph glyph-name="divide" unicode="&#x3b;&#x3b;Divide&#x3b;&#x3b;" horiz-adv-x="1137" 
d="M1031 452h-927v157h927v-157zM442 863q0 35 11.5 48t43.5 13h132q32 0 43.5 -13t11.5 -48v-104q0 -35 -11.5 -48t-43.5 -13h-132q-32 0 -43.5 12.5t-11.5 48.5v104zM442 293q0 35 11.5 48t43.5 13h132q32 0 43.5 -13t11.5 -48v-104q0 -35 -11.5 -48t-43.5 -13h-132
q-32 0 -43.5 12.5t-11.5 48.5v104z" />
    <glyph glyph-name="rulakkhangyao" unicode="&#xc4;&#xd2;" horiz-adv-x="2504" 
d="M150 869h771q124 0 168.5 -43t44.5 -163v-1010h-166v1083h-654v-606h182l-47 -130h-299v869zM2192 -348v1084h-628v-65l-164 -35v38q0 108 46 151.5t167 43.5h530q123 0 168 -44t45 -163v-1010h-164z" />
    <glyph glyph-name="lulakkhangyao" unicode="&#xc6;&#xd2;" horiz-adv-x="2637" 
d="M2322 -348v1084h-628v-65l-164 -35v38q0 108 46 151.5t167 43.5h530q123 0 168 -44t45 -163v-1010h-164zM280 130v739h771q124 0 168.5 -43t44.5 -163v-1010h-166v1083h-654v-520h1v-216h-299l-47 130h181z" />
    <glyph glyph-name=".notdef" horiz-adv-x="1536" 
d="M256 0v1280h1024v-1280h-1024zM298 32h940q10 0 10 10v1196q0 10 -10 10h-940q-10 0 -10 -10v-1196q0 -10 10 -10zM715 -2h-2v-1h2h-2v1h2zM769 -2v-2h-3v2h3zM769 -4v2h-3v-2h3zM780 -2v-1h1v-1v1h-4v-1v1h1v1h2zM778 -3h2v1h-2v-1zM798 -2h-3v-2h3v1h-2h2v-1h-3v2h3z
M799 -2v-1h3v1v-2v1h-3v-1v2zM717 -1v-3h-6v3h6zM717 -4v3h-6v-3h6zM732 -2v-2h-3v2h3zM732 -4v2h-3v-2h3zM770 -2v-2h3h-3v2zM843 -2v-2h-3v1h3v1zM843 -4v1h-3v-1h3zM834 -2v-2h1v2v-2h-1v2zM803 -2h4h-2v-2v2h-2zM757 -2h3v-2h-3v1h3v1h-3zM757 -4h3v1h-3v-1zM765 -2v-1
h-3v-1v2h3zM762 -3h3v1h-3v-1zM794 -2v-1v1zM794 -3v-1v1zM724 -4h-3h3zM724 -2v-1h-3v-1v1h3v1h-3h3zM677 -2h-3v-2h3h-3v2h3zM728 -2v-2h-3v2h3zM728 -4v2h-3v-2h3zM685 -2v-1h-3v-1v2h3zM682 -3h3v1h-3v-1zM681 -2v-2h-3v2h3zM681 -4v2h-3v-2h3zM745 -2v-1h4v1v-1h-2v-1
v1h-2v1zM785 -2v-2h2h-2v2zM782 -2v-2h2h-2v2zM753 -4v2h3v-2v2h-3v-2zM816 -2v-1h1v-1v1h-3v-1v2h2zM814 -3h2v1h-2v-1zM761 -2v-1v1zM761 -3v-1v1zM699 -2h-3v-2h3v1h-2h2v-1h-3v2h3zM700 -2v-1h3v1v-2v1h-3v-1v2zM704 -2h4h-2v-2v2h-2zM695 -2v-2v1v1zM693 -2v-1h1v-1v1
h-3v-1v2h2zM691 -3h2v1h-2v-1zM832 -2v-1h1v-1v1h-3v-1v2h2zM830 -3h2v1h-2v-1zM836 -4h3h-3zM836 -3h3h-3zM836 -2h3h-3zM741 -4h3h-3zM743 -2v-1h1v-1v1h-3v-1v1v1h2zM741 -3h2v1h-2v-1zM829 -4h-3h3zM826 -3h3h-3zM826 -2h3h-3zM822 -3h3v-1h-3h3v1h-3zM822 -2h3h-3v-1v1
zM733 -3h3v-1h-3h3v1h-3zM733 -2h3h-3v-1v1zM818 -4h3h-3zM818 -3h3h-3zM818 -2h3h-3zM792 -2v-1h1v-1v1h-3v-1v2h2zM790 -3h2v1h-2v-1zM686 -2v-1h4v1v-1h-2v-1v1h-2v1zM808 -3h3v-1h-3h3v1h-3zM808 -2h3h-3v-1v1z" />
    <glyph glyph-name=".null" 
 />
    <glyph glyph-name="nonmarkingreturn" horiz-adv-x="579" 
 />
    <glyph glyph-name="space" unicode=" " horiz-adv-x="690" 
 />
    <glyph glyph-name="exclam" unicode="!" horiz-adv-x="840" 
d="M360 430l-53 627h225l-55 -627h-117zM471 225q42 0 50.5 -10t8.5 -45v-117q0 -35 -7.5 -44t-51.5 -9h-123q-25 0 -33 9.5t-8 43.5v117q0 34 9.5 44.5t52.5 10.5h102z" />
    <glyph glyph-name="quotedbl" unicode="&#x22;" horiz-adv-x="569" 
d="M473 1434v-553h-102v553h102zM199 1434v-553h-101v553h101z" />
    <glyph glyph-name="numbersign" unicode="#" horiz-adv-x="1575" 
d="M975 864h-266l-97 -276h267zM918 1454l-168 -483h264l172 483h127l-170 -483h315l-37 -107h-317l-98 -276h340l-37 -109h-340l-170 -479h-129l172 479h-269l-172 -479h-127l170 479h-327l39 109h325l101 276h-353l35 107h354l173 483h127z" />
    <glyph glyph-name="dollar" unicode="$" horiz-adv-x="1532" 
d="M866 127h320v330h-320v-330zM743 606v322h-309v-322h309zM1171 928h-305v-322h236q145 0 195.5 -52t50.5 -198v-106q0 -145 -51 -197.5t-195 -52.5h-236v-266h-123v266h-262q-139 0 -193.5 49.5t-54.5 171.5v45l173 35v-174h337v330h-223q-142 0 -195 53t-53 199v98
q0 145 52 197.5t196 52.5h223v209h123v-209h217q136 0 192 -48t56 -159v-47l-160 -39v164z" />
    <glyph glyph-name="percent" unicode="%" horiz-adv-x="1765" 
d="M1104 281q0 -81 58 -139t138 -58q84 0 141.5 57t57.5 140q0 81 -58.5 138.5t-140.5 57.5q-81 0 -138.5 -57.5t-57.5 -138.5zM987 283q0 131 90.5 221t222.5 90q133 0 224.5 -90.5t91.5 -220.5q0 -127 -94.5 -221.5t-221.5 -94.5q-126 0 -219.5 94t-93.5 222zM1382 1090
l-893 -1123h-116l889 1123h120zM266 776q0 -80 59 -138t140 -58q82 0 139.5 57t57.5 139t-58 140.5t-139 58.5q-82 0 -140.5 -58.5t-58.5 -140.5zM150 778q0 132 90 222t223 90q132 0 223.5 -90.5t91.5 -221.5q0 -127 -94.5 -221t-220.5 -94t-219.5 94t-93.5 221z" />
    <glyph glyph-name="ampersand" unicode="&#x26;" horiz-adv-x="1581" 
d="M315 135h512l138 127l-379 303l-271 -192v-238zM946 63q-40 -37 -75.5 -50t-110.5 -13h-346q-145 0 -196.5 53t-51.5 197v69q0 70 23 109.5t100 87.5l203 129q-46 41 -66 78.5t-20 81.5v59q0 105 55 149t192 44h199q143 0 194.5 -46t51.5 -167v-56l-140 -26v166h-403
v-154l512 -420l246 232l90 -86l-238 -226l336 -274h-219l-217 178z" />
    <glyph glyph-name="quotesingle" unicode="'" horiz-adv-x="295" 
d="M199 1434v-553h-101v553h101z" />
    <glyph glyph-name="parenleft" unicode="(" horiz-adv-x="758" 
d="M389 -41q-88 137 -132 279.5t-44 289.5q0 148 44 290.5t132 279.5h164q-99 -140 -147 -279.5t-48 -290.5q0 -148 49 -290.5t146 -278.5h-164z" />
    <glyph glyph-name="parenright" unicode=")" horiz-adv-x="758" 
d="M369 -41h-164q97 136 145.5 278.5t48.5 290.5q0 151 -47.5 290.5t-146.5 279.5h164q88 -137 132 -279.5t44 -290.5q0 -147 -44 -289.5t-132 -279.5z" />
    <glyph glyph-name="asterisk" unicode="*" horiz-adv-x="1024" 
d="M516 664l-151 -244l-101 80l197 202l-283 68l41 121l260 -123l-30 289h126l-28 -287l256 121l39 -121l-269 -65l193 -205l-109 -80z" />
    <glyph glyph-name="plus" unicode="+" horiz-adv-x="1706" 
d="M903 1221v-562h549v-98h-549v-561h-98v561h-551v98h551v562h98z" />
    <glyph glyph-name="comma" unicode="," horiz-adv-x="766" 
d="M434 225q44 0 53 -10.5t9 -44.5v-156l-144 -219h-90l121 225h-70q-25 0 -34 11.5t-9 44.5v94q0 35 9 45t53 10h102z" />
    <glyph glyph-name="hyphen" unicode="-" horiz-adv-x="676" 
d="M115 471v150h446v-150h-446z" />
    <glyph glyph-name="period" unicode="." horiz-adv-x="766" 
d="M434 225q43 0 52.5 -10.5t9.5 -44.5v-117q0 -34 -8.5 -43.5t-53.5 -9.5h-123q-24 0 -32.5 9.5t-8.5 43.5v117q0 34 9.5 44.5t52.5 10.5h102z" />
    <glyph glyph-name="slash" unicode="/" horiz-adv-x="717" 
d="M41 -33l530 1123h105l-535 -1123h-100z" />
    <glyph glyph-name="zero" unicode="0" horiz-adv-x="1532" 
d="M203 807q0 145 47.5 197.5t179.5 52.5h672q131 0 179 -52.5t48 -197.5v-557q0 -145 -48 -197.5t-179 -52.5h-672q-132 0 -179.5 52t-47.5 198v557zM373 145h786v770h-786v-770z" />
    <glyph glyph-name="one" unicode="1" horiz-adv-x="1532" 
d="M719 0v891h-230v106l392 68v-1065h-162z" />
    <glyph glyph-name="two" unicode="2" horiz-adv-x="1532" 
d="M311 850q0 119 46.5 163t181.5 44h510q134 0 180.5 -44t46.5 -163v-66q0 -78 -25 -121t-106 -94l-684 -424h694v201l168 -55v-84q0 -119 -47 -163t-182 -44h-832v66q0 73 28.5 111.5t94.5 80.5l717 451v206h-623v-247l-168 45v137z" />
    <glyph glyph-name="three" unicode="3" horiz-adv-x="1532" 
d="M487 0q-134 0 -180.5 43.5t-46.5 163.5v86l168 39v-187h610q58 0 76.5 18.5t18.5 76.5v141q0 59 -19 77.5t-76 18.5h-374v135h335q57 0 76 23t19 98v62q0 74 -19 97t-76 23h-565v-163l-160 32v66q0 119 46.5 163t181.5 44h536q135 0 181.5 -44t46.5 -163v-96
q0 -91 -36.5 -136t-123.5 -65q106 -16 152.5 -66.5t46.5 -148.5v-111q0 -130 -53.5 -178.5t-188.5 -48.5h-576z" />
    <glyph glyph-name="four" unicode="4" horiz-adv-x="1532" 
d="M999 383v559l-614 -559h614zM999 0v252h-800v131l762 686h200v-686h242v-131h-242v-252h-162z" />
    <glyph glyph-name="five" unicode="5" horiz-adv-x="1532" 
d="M289 203q144 -34 280 -51t254 -17q192 0 275.5 48.5t83.5 158.5q0 114 -88 165.5t-283 51.5q-119 0 -248 -16t-272 -49l55 563h856l-12 -142h-711l-37 -256q99 22 196.5 32.5t195.5 10.5q270 0 400 -88.5t130 -273.5q0 -189 -133 -272.5t-438 -83.5q-98 0 -206 11.5
t-247 37.5z" />
    <glyph glyph-name="six" unicode="6" horiz-adv-x="1532" 
d="M410 498q-3 -20 -5 -36t-2 -28q0 -212 34.5 -252.5t189.5 -40.5h321q122 0 163.5 34t41.5 130v68q0 96 -52 130t-198 34q-134 0 -258 -10t-235 -29zM1148 940q-11 1 -25.5 1.5t-39.5 0.5q-311 0 -472.5 -77t-184.5 -236q114 22 231 33.5t238 11.5q246 0 337 -59.5
t91 -213.5v-143q0 -133 -82.5 -195.5t-257.5 -62.5h-420q-187 0 -256 69.5t-69 256.5v139q0 295 191 456.5t540 161.5q14 0 29.5 -0.5t41.5 -3.5z" />
    <glyph glyph-name="seven" unicode="7" horiz-adv-x="1532" 
d="M569 -18l613 933h-770v-247l-158 30v359h1102v-137l-582 -938h-205z" />
    <glyph glyph-name="eight" unicode="8" horiz-adv-x="1532" 
d="M449 0q-136 0 -189 48.5t-53 178.5v111q0 96 45.5 146t146.5 65q-88 12 -129 61t-41 144v96q0 119 46.5 163t181.5 44h618q135 0 181.5 -44t46.5 -163v-96q0 -94 -41.5 -143.5t-131.5 -61.5q103 -15 149 -65t46 -146v-111q0 -129 -53.5 -178t-190.5 -49h-632zM397 805
v-82q0 -68 22 -89.5t85 -21.5h524q64 0 85.5 22t21.5 89v82q0 68 -22 89t-85 21h-524q-61 0 -84 -21.5t-23 -88.5zM377 367v-115q0 -65 21.5 -87t84.5 -22h566q63 0 84.5 22t21.5 87v115q0 65 -21.5 86.5t-84.5 21.5h-566q-62 0 -84 -22t-22 -86z" />
    <glyph glyph-name="nine" unicode="9" horiz-adv-x="1532" 
d="M383 119q4 -1 11 -1q36 -3 52 -3q312 0 474.5 77t185.5 236q-114 -22 -232 -33.5t-239 -11.5q-244 0 -335 60t-91 214v142q0 132 82.5 195t257.5 63h418q188 0 257.5 -69.5t69.5 -256.5v-139q0 -295 -191 -456t-540 -161q-30 0 -44.5 0.5t-27.5 2.5zM1120 559
q3 19 4.5 36t1.5 30q0 213 -33 251.5t-188 38.5h-321q-123 0 -165 -33.5t-42 -129.5v-68q0 -96 52 -130t198 -34q134 0 258 10t235 29z" />
    <glyph glyph-name="colon" unicode=":" horiz-adv-x="766" 
d="M434 868q43 0 52.5 -10.5t9.5 -44.5v-117q0 -34 -8.5 -43.5t-53.5 -9.5h-123q-24 0 -32.5 9.5t-8.5 43.5v117q0 34 9.5 44.5t52.5 10.5h102zM434 225q43 0 52.5 -10.5t9.5 -44.5v-117q0 -34 -8.5 -43.5t-53.5 -9.5h-123q-24 0 -32.5 9.5t-8.5 43.5v117q0 34 9.5 44.5
t52.5 10.5h102z" />
    <glyph glyph-name="semicolon" unicode=";" horiz-adv-x="766" 
d="M434 225q44 0 53 -10.5t9 -44.5v-156l-144 -219h-90l121 225h-70q-25 0 -34 11.5t-9 44.5v94q0 35 9 45t53 10h102zM434 868q43 0 52.5 -10.5t9.5 -44.5v-117q0 -34 -8.5 -43.5t-53.5 -9.5h-123q-24 0 -32.5 9.5t-8.5 43.5v117q0 34 9.5 44.5t52.5 10.5h102z" />
    <glyph glyph-name="less" unicode="&#x3c;" horiz-adv-x="1706" 
d="M1442 1026l-1022 -416l1022 -413v-109l-1178 481v82l1178 484v-109z" />
    <glyph glyph-name="equal" unicode="=" horiz-adv-x="1706" 
d="M1452 473v-98h-1198v98h1198zM1452 846v-98h-1198v98h1198z" />
    <glyph glyph-name="greater" unicode="&#x3e;" horiz-adv-x="1706" 
d="M1442 651v-82l-1178 -481v109l1022 413l-1022 416v109z" />
    <glyph glyph-name="question" unicode="?" horiz-adv-x="1327" 
d="M567 428v147l353 177v170h-543v-166l-146 26v58q0 109 52.5 163t156.5 54h391q121 0 179.5 -48.5t58.5 -148.5v-184l-369 -189v-59h-133zM682 225q43 0 52 -10.5t9 -44.5v-117q0 -34 -8 -43.5t-53 -9.5h-123q-25 0 -33 9.5t-8 43.5v117q0 34 9.5 44.5t52.5 10.5h102z" />
    <glyph glyph-name="at" unicode="@" horiz-adv-x="2048" 
d="M1298 836l60 125h94l-139 -562q-10 -44 -13.5 -62.5t-3.5 -29.5q0 -43 28.5 -67.5t78.5 -24.5q52 0 106.5 21t104.5 61q97 77 151 204.5t54 282.5q0 254 -198 417t-509 163q-175 0 -320 -49.5t-262 -149.5q-147 -126 -222 -290.5t-75 -362.5q0 -174 60 -305t184 -232
q102 -82 244 -128t301 -46q171 0 334.5 49.5t300.5 143.5l39 -55q-147 -111 -311 -166.5t-343 -55.5q-191 0 -347 46.5t-275 138.5q-155 118 -229 273.5t-74 361.5q0 204 86 381.5t252 314.5q132 109 298.5 165t360.5 56q162 0 308 -44t249 -124q129 -99 194.5 -228
t65.5 -280q0 -171 -62 -309.5t-181 -232.5q-70 -54 -149 -82.5t-161 -28.5q-97 0 -144.5 37.5t-47.5 113.5q0 4 1 14t1 15q-51 -87 -127 -133.5t-168 -46.5q-153 0 -233 83.5t-80 244.5q0 230 135 388t329 158q94 0 158 -41t96 -122zM1210 469l62 248q-18 93 -75.5 145.5
t-139.5 52.5q-154 0 -254.5 -133.5t-100.5 -337.5q0 -111 55 -173t152 -62q107 0 189.5 71.5t111.5 188.5z" />
    <glyph glyph-name="A" unicode="A" horiz-adv-x="1489" 
d="M451 395h569l-285 541zM68 0l577 1057h189l587 -1057h-194l-135 260h-715l-135 -260h-174z" />
    <glyph glyph-name="B" unicode="B" horiz-adv-x="1569" 
d="M1178 270v88q0 72 -25.5 99.5t-91.5 27.5h-610v-340h610q67 0 92 27t25 98zM1169 717v106q0 52 -22.5 72t-85.5 20h-610v-292h610q61 0 84.5 21t23.5 73zM274 0v1057h852q119 0 171.5 -48.5t52.5 -156.5v-123q0 -85 -42.5 -127t-133.5 -53q89 -11 135.5 -63.5
t46.5 -143.5v-135q0 -105 -72.5 -156t-220.5 -51h-789z" />
    <glyph glyph-name="C" unicode="C" horiz-adv-x="1536" 
d="M1169 913h-733v-766h733v265l177 -37v-125q0 -146 -51 -198t-195 -52h-592q-144 0 -196 52.5t-52 197.5v557q0 145 52 197.5t196 52.5h592q144 0 195 -52t51 -198v-100l-177 -33v239z" />
    <glyph glyph-name="D" unicode="D" horiz-adv-x="1655" 
d="M831 913h-380v-766h380q257 0 363 90t106 298q0 201 -108 289.5t-361 88.5zM856 1057q146 0 242.5 -19.5t163.5 -62.5q102 -67 160.5 -184t58.5 -256q0 -148 -57.5 -266.5t-161.5 -186.5q-65 -42 -162 -62t-244 -20h-582v1057h582z" />
    <glyph glyph-name="E" unicode="E" horiz-adv-x="1446" 
d="M274 0v1057h1018v-142h-841v-294h514v-140h-514v-336h849v-145h-1026z" />
    <glyph glyph-name="F" unicode="F" horiz-adv-x="1305" 
d="M274 0v1057h1006v-144h-829v-346h473v-141h-473v-426h-177z" />
    <glyph glyph-name="G" unicode="G" horiz-adv-x="1673" 
d="M1264 913h-828v-766h828v310h-428v135h604v-342q0 -145 -52 -197.5t-196 -52.5h-684q-145 0 -196.5 53t-51.5 197v557q0 144 51.5 197t196.5 53h684q142 0 195 -51.5t53 -186.5v-26l-176 -35v155z" />
    <glyph glyph-name="H" unicode="H" horiz-adv-x="1735" 
d="M274 0v1057h177v-432h833v432h176v-1057h-176v479h-833v-479h-177z" />
    <glyph glyph-name="I" unicode="I" horiz-adv-x="725" 
d="M274 0v1057h177v-1057h-177z" />
    <glyph glyph-name="J" unicode="J" horiz-adv-x="1384" 
d="M453 0q-144 0 -195 52t-51 198v211l174 37v-351h567v910h176v-807q0 -145 -51.5 -197.5t-195.5 -52.5h-424z" />
    <glyph glyph-name="K" unicode="K" horiz-adv-x="1493" 
d="M274 0v1057h177v-453l659 453h258l-766 -506l850 -551h-295l-706 475v-475h-177z" />
    <glyph glyph-name="L" unicode="L" horiz-adv-x="1337" 
d="M274 0v1057h177v-910h800v-147h-977z" />
    <glyph glyph-name="M" unicode="M" horiz-adv-x="1849" 
d="M416 868q4 -31 6 -65t2 -90v-713h-150v1057h144l514 -688l479 688h162v-1057h-162v713q0 14 3.5 70.5t4.5 84.5q-20 -41 -35.5 -69t-27.5 -45l-404 -588h-45l-420 572q-1 1 -5 7q-46 63 -66 123z" />
    <glyph glyph-name="N" unicode="N" horiz-adv-x="1716" 
d="M274 0v1057h111l791 -707q27 -24 57.5 -58t62.5 -75q-8 51 -12 106.5t-4 153.5v580h162v-1057h-99l-812 735q-6 5 -18 16q-60 54 -89 103q6 -48 9 -102.5t3 -128.5v-623h-162z" />
    <glyph glyph-name="O" unicode="O" horiz-adv-x="1747" 
d="M436 147h875v766h-875v-766zM260 807q0 144 51.5 197t196.5 53h731q143 0 194.5 -52.5t51.5 -197.5v-557q0 -146 -51.5 -198t-194.5 -52h-731q-145 0 -196.5 53t-51.5 197v557z" />
    <glyph glyph-name="P" unicode="P" horiz-adv-x="1507" 
d="M1057 920h-606v-369h606q65 0 89.5 25t24.5 86v147q0 61 -24.5 86t-89.5 25zM274 0v1057h852q119 0 171.5 -48.5t52.5 -156.5v-236q0 -107 -52.5 -155.5t-171.5 -48.5h-675v-412h-177z" />
    <glyph glyph-name="Q" unicode="Q" horiz-adv-x="1747" 
d="M1049 147h262v766h-875v-766h459l-109 244l119 47zM260 807q0 144 51.5 197t196.5 53h731q143 0 194.5 -52.5t51.5 -197.5v-557q0 -146 -51.5 -198t-194.5 -52h-121l125 -258h-168l-112 258h-455q-145 0 -196.5 53t-51.5 197v557z" />
    <glyph glyph-name="R" unicode="R" horiz-adv-x="1561" 
d="M1057 920h-606v-371h606q66 0 90 24t24 84v154q0 60 -24.5 84.5t-89.5 24.5zM274 0v1057h852q119 0 171.5 -48.5t52.5 -156.5v-236q0 -107 -52.5 -155.5t-171.5 -48.5h-155l483 -412h-262l-430 412h-311v-412h-177z" />
    <glyph glyph-name="S" unicode="S" horiz-adv-x="1599" 
d="M1176 913h-748v-295h666q141 0 193 -52t52 -197v-119q0 -146 -51 -198t-194 -52h-617q-144 0 -196 52.5t-52 197.5v29l164 38v-170h787v318h-664q-144 0 -195 52.5t-51 197.5v92q0 145 51 197.5t195 52.5h563q141 0 194.5 -51.5t53.5 -180.5v-22l-151 -43v153z" />
    <glyph glyph-name="T" unicode="T" horiz-adv-x="1192" 
d="M684 913v-913h-176v913h-483v144h1144v-144h-485z" />
    <glyph glyph-name="U" unicode="U" horiz-adv-x="1671" 
d="M451 1057v-910h770v910h174v-807q0 -146 -51.5 -198t-194.5 -52h-627q-144 0 -196 53t-52 197v807h177z" />
    <glyph glyph-name="V" unicode="V" horiz-adv-x="1413" 
d="M645 0l-577 1057h190l467 -881l446 881h175l-553 -1057h-148z" />
    <glyph glyph-name="W" unicode="W" horiz-adv-x="1763" 
d="M449 0l-383 1057h178l286 -840l312 840h108l301 -840l289 840h158l-383 -1057h-131l-293 799l-303 -799h-139z" />
    <glyph glyph-name="X" unicode="X" horiz-adv-x="1460" 
d="M123 0l512 545l-520 512h254l370 -400l348 400h220l-465 -496l567 -561h-254l-420 451l-389 -451h-223z" />
    <glyph glyph-name="Y" unicode="Y" horiz-adv-x="1374" 
d="M602 0v461l-536 596h219l413 -471l396 471h215l-531 -592v-465h-176z" />
    <glyph glyph-name="Z" unicode="Z" horiz-adv-x="1395" 
d="M135 0v72l783 841h-715v144h997v-60l-797 -850h797v-147h-1065z" />
    <glyph glyph-name="bracketleft" unicode="[" horiz-adv-x="758" 
d="M629 -33h-402v1123h402v-113h-256v-897h256v-113z" />
    <glyph glyph-name="backslash" unicode="\" horiz-adv-x="717" 
d="M143 1090l533 -1123h-103l-532 1123h102z" />
    <glyph glyph-name="bracketright" unicode="]" horiz-adv-x="758" 
d="M131 -33v113h254v897h-254v113h399v-1123h-399z" />
    <glyph glyph-name="asciicircum" unicode="^" horiz-adv-x="2048" 
d="M1094 1458l530 -557h-143l-457 455l-459 -455h-143l532 557h140z" />
    <glyph glyph-name="underscore" unicode="_" horiz-adv-x="1024" 
d="M1024 -383v-100h-1024v100h1024z" />
    <glyph glyph-name="grave" unicode="`" horiz-adv-x="1024" 
d="M649 979h-106l-281 348h178z" />
    <glyph glyph-name="a" unicode="a" horiz-adv-x="1284" 
d="M59 0l502 868h150l514 -868h-178l-113 203h-600l-111 -203h-164zM403 328h461l-231 413z" />
    <glyph glyph-name="b" unicode="b" horiz-adv-x="1294" 
d="M365 391v-264h503q56 0 77.5 21.5t21.5 76.5v68q0 54 -22 76t-77 22h-503zM961 588v82q0 40 -20 55.5t-73 15.5h-503v-223h503q57 0 75 15t18 55zM201 0v868h733q100 0 145 -40.5t45 -129.5v-100q0 -69 -36 -104.5t-115 -44.5q77 -8 117 -51.5t40 -116.5v-111
q0 -86 -62 -128t-189 -42h-678z" />
    <glyph glyph-name="c" unicode="c" horiz-adv-x="1262" 
d="M950 739h-606v-608h606v207l164 -31v-102q0 -119 -44.5 -162t-168.5 -43h-510q-124 0 -167.5 41.5t-43.5 163.5v457q0 121 44 163.5t167 42.5h510q124 0 168.5 -43.5t44.5 -162.5v-82l-164 -27v186z" />
    <glyph glyph-name="d" unicode="d" horiz-adv-x="1493" 
d="M750 739h-318v-608h318q212 0 301.5 71.5t89.5 235.5q0 160 -90.5 230.5t-300.5 70.5zM768 868q124 0 208.5 -16.5t139.5 -50.5q89 -56 139 -152.5t50 -212.5q0 -219 -133 -327.5t-404 -108.5h-500v868h500z" />
    <glyph glyph-name="e" unicode="e" horiz-adv-x="1190" 
d="M201 0v868h874v-129h-710v-223h428v-129h-428v-260h718v-127h-882z" />
    <glyph glyph-name="f" unicode="f" horiz-adv-x="1112" 
d="M201 0v868h864v-129h-700v-268h395v-127h-395v-344h-164z" />
    <glyph glyph-name="g" unicode="g" horiz-adv-x="1356" 
d="M1030 739h-686v-608h686v236h-354v118h518v-280q0 -119 -44.5 -162t-168.5 -43h-588q-124 0 -168.5 42.5t-44.5 162.5v457q0 119 45 162.5t168 43.5h588q121 0 167 -43t46 -151v-25l-164 -28v118z" />
    <glyph glyph-name="h" unicode="h" horiz-adv-x="1421" 
d="M201 0v866h164v-348h692v348h164v-866h-164v387h-692v-387h-164z" />
    <glyph glyph-name="i" unicode="i" horiz-adv-x="557" 
d="M360 0h-163v866h163v-866z" />
    <glyph glyph-name="j" unicode="j" horiz-adv-x="1143" 
d="M365 0q-125 0 -169 43t-44 162v168l163 33v-275h461v737h164v-663q0 -119 -44.5 -162t-168.5 -43h-362z" />
    <glyph glyph-name="k" unicode="k" horiz-adv-x="1237" 
d="M201 0v868h164v-372l548 372h228l-641 -419l712 -449h-268l-579 389v-389h-164z" />
    <glyph glyph-name="l" unicode="l" horiz-adv-x="1096" 
d="M201 0v868h164v-737h675v-131h-839z" />
    <glyph glyph-name="m" unicode="m" horiz-adv-x="1520" 
d="M332 707q0 -19 2 -52q2 -54 2 -69v-586h-135v868h135l432 -563l397 563h152v-868h-152v586q0 32 2.5 62t7.5 58q-14 -41 -29 -72.5t-28 -47.5l-334 -449h-43l-346 445q-18 23 -34 54t-29 71z" />
    <glyph glyph-name="n" unicode="n" horiz-adv-x="1405" 
d="M340 694q6 -38 9 -77t3 -78v-539h-151v868h125l637 -567q28 -24 53.5 -53t50.5 -66q-7 39 -10.5 79t-3.5 83v524h151v-868h-112l-650 575q-34 32 -58.5 60.5t-43.5 58.5z" />
    <glyph glyph-name="o" unicode="o" horiz-adv-x="1413" 
d="M344 131h725v608h-725v-608zM180 662q0 119 45 162.5t168 43.5h627q123 0 168 -43.5t45 -162.5v-457q0 -119 -44.5 -162t-168.5 -43h-627q-125 0 -169 42.5t-44 162.5v457z" />
    <glyph glyph-name="p" unicode="p" horiz-adv-x="1241" 
d="M860 741h-495v-274h495q55 0 76.5 18.5t21.5 63.5v110q0 45 -21 63.5t-77 18.5zM201 0v868h733q101 0 145.5 -39t44.5 -129v-194q0 -88 -44.5 -127t-145.5 -39h-569v-340h-164z" />
    <glyph glyph-name="q" unicode="q" horiz-adv-x="1413" 
d="M872 131h197v608h-725v-608h397l-108 244l102 43zM180 662q0 119 45 162.5t168 43.5h627q123 0 168 -43.5t45 -162.5v-457q0 -119 -44.5 -162t-168.5 -43h-86l123 -258h-146l-112 258h-406q-125 0 -169 42.5t-44 162.5v457z" />
    <glyph glyph-name="r" unicode="r" horiz-adv-x="1255" 
d="M827 741h-462v-280h462q55 0 74 18t19 70v104q0 48 -20 68t-73 20zM201 0v868h698q97 0 139.5 -39.5t42.5 -128.5v-194q0 -88 -42.5 -127t-139.5 -39h-115l383 -340h-219l-346 340h-237v-340h-164z" />
    <glyph glyph-name="s" unicode="s" horiz-adv-x="1305" 
d="M967 739h-609v-225h557q122 0 166.5 -42.5t44.5 -162.5v-104q0 -120 -43.5 -162.5t-167.5 -42.5h-528q-124 0 -168.5 42.5t-44.5 162.5v24l150 31v-129h655v244h-559q-123 0 -167 42.5t-44 162.5v82q0 119 44 162.5t167 43.5h483q121 0 167 -42t46 -148v-21l-149 -32v114
z" />
    <glyph glyph-name="t" unicode="t" horiz-adv-x="1075" 
d="M618 739v-739h-163v739h-410v129h985v-129h-412z" />
    <glyph glyph-name="u" unicode="u" horiz-adv-x="1366" 
d="M365 868v-737h634v737h166v-663q0 -120 -44.5 -162.5t-168.5 -42.5h-538q-124 0 -168.5 43t-44.5 162v663h164z" />
    <glyph glyph-name="v" unicode="v" horiz-adv-x="1190" 
d="M545 0l-500 868h176l389 -698l373 698h162l-475 -868h-125z" />
    <glyph glyph-name="w" unicode="w" horiz-adv-x="1507" 
d="M383 0l-336 868h170l240 -663l256 663h108l250 -663l240 663h147l-332 -868h-120l-244 647l-256 -647h-123z" />
    <glyph glyph-name="x" unicode="x" horiz-adv-x="1214" 
d="M68 0l436 444l-443 424h222l313 -315l287 315h202l-399 -403l488 -465h-230l-350 352l-315 -352h-211z" />
    <glyph glyph-name="y" unicode="y" horiz-adv-x="1155" 
d="M496 0v379l-453 489h199l346 -376l330 376h192l-451 -489v-379h-163z" />
    <glyph glyph-name="z" unicode="z" horiz-adv-x="1264" 
d="M147 0v78l656 661h-596v129h856v-69l-662 -668h662v-131h-916z" />
    <glyph glyph-name="braceleft" unicode="{" horiz-adv-x="1024" 
d="M854 1370h-37q-131 0 -177 -49.5t-46 -204.5v-242q0 -168 -43.5 -240t-153.5 -104q110 -31 153.5 -103t43.5 -241v-241q0 -155 45 -204.5t170 -49.5q7 0 22 1t23 1v-107h-47q-197 0 -266.5 72.5t-69.5 296.5v244q0 154 -57 217t-195 63q-7 0 -21.5 -1t-23.5 -1v109
q9 0 23.5 -1t21.5 -1q138 0 195 63t57 217v242q0 223 70 297t266 74h47v-107z" />
    <glyph glyph-name="bar" unicode="|" horiz-adv-x="1024" 
d="M567 1565v-2048h-108v2048h108z" />
    <glyph glyph-name="braceright" unicode="}" horiz-adv-x="1024" 
d="M555 1106v-242q0 -154 57 -217t195 -63q7 0 22 1t23 1v-109q-8 0 -23 1t-22 1q-138 0 -195 -63t-57 -217v-244q0 -223 -69.5 -296t-266.5 -73h-47v107h39q130 0 175.5 49t45.5 203v241q0 171 43 242t154 102q-111 32 -154 103t-43 241v242q0 157 -45 206.5t-170 49.5
q-7 0 -22 -1t-23 -1v107h47q196 0 266 -74t70 -297z" />
    <glyph glyph-name="asciitilde" unicode="~" horiz-adv-x="1706" 
d="M1530 637q-102 -72 -198 -107.5t-189 -35.5q-99 0 -260 57q-20 7 -29 10q-5 2 -16 6q-176 64 -273 64q-83 0 -175 -38t-212 -122v113q106 73 202 109t185 36q104 0 272 -61q11 -4 18 -7q9 -3 31 -11q167 -60 257 -60q85 0 177 38t210 122v-113z" />
    <glyph glyph-name="thothannobasethai" horiz-adv-x="1137" 
d="M998 0h-220q-149 238 -389 406h213q119 -87 229 -235v339h-469q-121 0 -167 43.5t-46 151.5v162h888l-60 -131h-684v-83h705v-653z" />
    <glyph glyph-name="thothannobasethai" unicode="&#xf700;" horiz-adv-x="1137" 
d="M998 0h-220q-149 238 -389 406h213q119 -87 229 -235v339h-469q-121 0 -167 43.5t-46 151.5v162h888l-60 -131h-684v-83h705v-653z" />
    <glyph glyph-name="thothannobasethai" unicode="&#x20ac;" horiz-adv-x="1137" 
d="M998 0h-220q-149 238 -389 406h213q119 -87 229 -235v339h-469q-121 0 -167 43.5t-46 151.5v162h888l-60 -131h-684v-83h705v-653z" />
    <glyph glyph-name="saraileftthai" 
d="M-1108 1039l82 141h567l50 -141h-699z" />
    <glyph glyph-name="saraileftthai" unicode="&#xf701;" 
d="M-1108 1039l82 141h567l50 -141h-699z" />
    <glyph glyph-name="saraiileftthai" 
d="M-1108 1039l82 141h476v114l141 82v-337h-699z" />
    <glyph glyph-name="saraiileftthai" unicode="&#xf702;" 
d="M-1108 1039l82 141h476v114l141 82v-337h-699z" />
    <glyph glyph-name="saraiileftthai" unicode="&#x201a;" 
d="M-1108 1039l82 141h476v114l141 82v-337h-699z" />
    <glyph glyph-name="saraueleftthai" 
d="M-592 1171h85v85h-85v-85zM-465 1351q32 0 44 -13t12 -49v-187q0 -36 -12 -49t-44 -14h-683l82 141h381v109q0 36 12 49t44 13h164z" />
    <glyph glyph-name="saraueleftthai" unicode="&#xf703;" 
d="M-592 1171h85v85h-85v-85zM-465 1351q32 0 44 -13t12 -49v-187q0 -36 -12 -49t-44 -14h-683l82 141h381v109q0 36 12 49t44 13h164z" />
    <glyph glyph-name="saraueleftthai" unicode="&#x192;" 
d="M-592 1171h85v85h-85v-85zM-465 1351q32 0 44 -13t12 -49v-187q0 -36 -12 -49t-44 -14h-683l82 141h381v109q0 36 12 49t44 13h164z" />
    <glyph glyph-name="saraueeleftthai" 
d="M-550 1314l141 32v-307h-699l82 141h286v134l141 32v-166h49v134z" />
    <glyph glyph-name="saraueeleftthai" unicode="&#xf704;" 
d="M-550 1314l141 32v-307h-699l82 141h286v134l141 32v-166h49v134z" />
    <glyph glyph-name="saraueeleftthai" unicode="&#x201e;" 
d="M-550 1314l141 32v-307h-699l82 141h286v134l141 32v-166h49v134z" />
    <glyph glyph-name="ellipsis" unicode="&#x85;" horiz-adv-x="1040" 
d="M150 105q14 0 27 -7t20.5 -20.5t7.5 -27.5t-7 -27t-20.5 -20.5t-27.5 -7.5t-27 7.5t-20.5 20.5t-7.5 27t7.5 27.5t20.5 20.5t27 7zM540 105q14 0 27 -7t20.5 -20.5t7.5 -27.5t-7 -27t-20.5 -20.5t-27.5 -7.5t-27 7.5t-20.5 20.5t-7.5 27t7.5 27.5t20.5 20.5t27 7z
M930 105q14 0 27 -7t20.5 -20.5t7.5 -27.5t-7 -27t-20.5 -20.5t-27.5 -7.5t-27 7.5t-20.5 20.5t-7.5 27t7.5 27.5t20.5 20.5t27 7z" />
    <glyph glyph-name="ellipsis" unicode="&#x2026;" horiz-adv-x="1040" 
d="M150 105q14 0 27 -7t20.5 -20.5t7.5 -27.5t-7 -27t-20.5 -20.5t-27.5 -7.5t-27 7.5t-20.5 20.5t-7.5 27t7.5 27.5t20.5 20.5t27 7zM540 105q14 0 27 -7t20.5 -20.5t7.5 -27.5t-7 -27t-20.5 -20.5t-27.5 -7.5t-27 7.5t-20.5 20.5t-7.5 27t7.5 27.5t20.5 20.5t27 7z
M930 105q14 0 27 -7t20.5 -20.5t7.5 -27.5t-7 -27t-20.5 -20.5t-27.5 -7.5t-27 7.5t-20.5 20.5t-7.5 27t7.5 27.5t20.5 20.5t27 7z" />
    <glyph glyph-name="maieklowleftthai" 
d="M-411 1028h-152v245h152v-245z" />
    <glyph glyph-name="maieklowleftthai" unicode="&#xf705;" 
d="M-411 1028h-152v245h152v-245z" />
    <glyph glyph-name="maieklowleftthai" unicode="&#x2020;" 
d="M-411 1028h-152v245h152v-245z" />
    <glyph glyph-name="maitholowleftthai" 
d="M-802 1145v78h-88l-30 125h79q93 0 138 -40q38 -40 34 -81v-75h225l79 -128h-252q-93 0 -148 44q-26 26 -37 77z" />
    <glyph glyph-name="maitholowleftthai" unicode="&#xf706;" 
d="M-802 1145v78h-88l-30 125h79q93 0 138 -40q38 -40 34 -81v-75h225l79 -128h-252q-93 0 -148 44q-26 26 -37 77z" />
    <glyph glyph-name="maitholowleftthai" unicode="&#x2021;" 
d="M-802 1145v78h-88l-30 125h79q93 0 138 -40q38 -40 34 -81v-75h225l79 -128h-252q-93 0 -148 44q-26 26 -37 77z" />
    <glyph glyph-name="maitrilowleftthai" 
d="M-610 1136q-53 -58 -121 -116v-1q-58 58 -124 117h-65v-95l-154 -35v58q0 108 41 151.5t152 43.5h68l82 -82v1l81 81l120 -1v222q57 -9 89 -41q49 -49 53 -140v-275h-144v112h-78z" />
    <glyph glyph-name="maitrilowleftthai" unicode="&#xf707;" 
d="M-610 1136q-53 -58 -121 -116v-1q-58 58 -124 117h-65v-95l-154 -35v58q0 108 41 151.5t152 43.5h68l82 -82v1l81 81l120 -1v222q57 -9 89 -41q49 -49 53 -140v-275h-144v112h-78z" />
    <glyph glyph-name="maitrilowleftthai" unicode="&#x2c6;" 
d="M-610 1136q-53 -58 -121 -116v-1q-58 58 -124 117h-65v-95l-154 -35v58q0 108 41 151.5t152 43.5h68l82 -82v1l81 81l120 -1v222q57 -9 89 -41q49 -49 53 -140v-275h-144v112h-78z" />
    <glyph glyph-name="maichattawalowleftthai" 
d="M-505 1105v-97h-138v97h-96v132h96v96h138v-96h97v-132h-97z" />
    <glyph glyph-name="maichattawalowleftthai" unicode="&#xf708;" 
d="M-505 1105v-97h-138v97h-96v132h96v96h138v-96h97v-132h-97z" />
    <glyph glyph-name="maichattawalowleftthai" unicode="&#x2030;" 
d="M-505 1105v-97h-138v97h-96v132h96v96h138v-96h97v-132h-97z" />
    <glyph glyph-name="thanthakhatlowleftthai" 
d="M-599 1252h1v-63h88l30 -125h-79q-93 0 -138 40q-38 40 -34 81v67h-1q1 66 37 92q55 44 148 44h342l-79 -128h-315v-8z" />
    <glyph glyph-name="thanthakhatlowleftthai" unicode="&#xf709;" 
d="M-599 1252h1v-63h88l30 -125h-79q-93 0 -138 40q-38 40 -34 81v67h-1q1 66 37 92q55 44 148 44h342l-79 -128h-315v-8z" />
    <glyph glyph-name="thanthakhatlowleftthai" unicode="&#x160;" 
d="M-599 1252h1v-63h88l30 -125h-79q-93 0 -138 40q-38 40 -34 81v67h-1q1 66 37 92q55 44 148 44h342l-79 -128h-315v-8z" />
    <glyph glyph-name="maieklowrightthai" 
d="M-171 1028h-152v245h152v-245z" />
    <glyph glyph-name="maieklowrightthai" unicode="&#xf70a;" 
d="M-171 1028h-152v245h152v-245z" />
    <glyph glyph-name="maieklowrightthai" unicode="&#x2039;" 
d="M-171 1028h-152v245h152v-245z" />
    <glyph glyph-name="maitholowrightthai" 
d="M-512 1145v78h-88l-30 125h79q93 0 138 -40q38 -40 34 -81v-75h225l79 -128h-252q-93 0 -148 44q-26 26 -37 77z" />
    <glyph glyph-name="maitholowrightthai" unicode="&#xf70b;" 
d="M-512 1145v78h-88l-30 125h79q93 0 138 -40q38 -40 34 -81v-75h225l79 -128h-252q-93 0 -148 44q-26 26 -37 77z" />
    <glyph glyph-name="maitholowrightthai" unicode="&#x152;" 
d="M-512 1145v78h-88l-30 125h79q93 0 138 -40q38 -40 34 -81v-75h225l79 -128h-252q-93 0 -148 44q-26 26 -37 77z" />
    <glyph glyph-name="maitrilowrightthai" 
d="M-230 1136q-53 -58 -121 -116v-1q-58 58 -124 117h-65v-95l-154 -35v58q0 108 41 151.5t152 43.5h68l82 -82v1l81 81l120 -1v222q57 -9 89 -41q49 -49 53 -140v-275h-144v112h-78z" />
    <glyph glyph-name="maitrilowrightthai" unicode="&#xf70c;" 
d="M-230 1136q-53 -58 -121 -116v-1q-58 58 -124 117h-65v-95l-154 -35v58q0 108 41 151.5t152 43.5h68l82 -82v1l81 81l120 -1v222q57 -9 89 -41q49 -49 53 -140v-275h-144v112h-78z" />
    <glyph glyph-name="maichattawalowrightthai" 
d="M-185 1105v-97h-138v97h-96v132h96v96h138v-96h97v-132h-97z" />
    <glyph glyph-name="maichattawalowrightthai" unicode="&#xf70d;" 
d="M-185 1105v-97h-138v97h-96v132h96v96h138v-96h97v-132h-97z" />
    <glyph glyph-name="maichattawalowrightthai" unicode="&#x17d;" 
d="M-185 1105v-97h-138v97h-96v132h96v96h138v-96h97v-132h-97z" />
    <glyph glyph-name="thanthakhatlowrightthai" 
d="M-339 1222h1v-63h88l30 -125h-79q-93 0 -138 40q-38 40 -34 81v67h-1q1 66 37 92q55 44 148 44h342l-79 -128h-315v-8z" />
    <glyph glyph-name="thanthakhatlowrightthai" unicode="&#xf70e;" 
d="M-339 1222h1v-63h88l30 -125h-79q-93 0 -138 40q-38 40 -34 81v67h-1q1 66 37 92q55 44 148 44h342l-79 -128h-315v-8z" />
    <glyph glyph-name="yoyingnobasethai" horiz-adv-x="2016" 
d="M1866 0h-924v736h-628v-736h-164v869h743q123 0 168 -44t45 -163v-523h598v731h163z" />
    <glyph glyph-name="yoyingnobasethai" unicode="&#xf70f;" horiz-adv-x="2016" 
d="M1866 0h-924v736h-628v-736h-164v869h743q123 0 168 -44t45 -163v-523h598v731h163z" />
    <glyph glyph-name="quoteleft" horiz-adv-x="409" 
d="M311 1182l-112 -244h84v-190h-197v180l135 254h90z" />
    <glyph glyph-name="quoteleft" unicode="&#x2018;" horiz-adv-x="409" 
d="M311 1182l-112 -244h84v-190h-197v180l135 254h90z" />
    <glyph glyph-name="quoteright" horiz-adv-x="409" 
d="M100 748l113 245h-86v189h198v-181l-137 -253h-88z" />
    <glyph glyph-name="quoteright" unicode="&#x2019;" horiz-adv-x="409" 
d="M100 748l113 245h-86v189h198v-181l-137 -253h-88z" />
    <glyph glyph-name="bullet" horiz-adv-x="882" 
d="M73 505q0 155 107 262q111 111 266 111q153 0 262 -111q113 -105 113 -262q0 -154 -117 -264q-114 -109 -267 -109q-152 0 -259 107q-105 107 -105 266z" />
    <glyph glyph-name="bullet" unicode="&#x2022;" horiz-adv-x="882" 
d="M73 505q0 155 107 262q111 111 266 111q153 0 262 -111q113 -105 113 -262q0 -154 -117 -264q-114 -109 -267 -109q-152 0 -259 107q-105 107 -105 266z" />
    <glyph glyph-name="endash" horiz-adv-x="790" 
d="M761 530v-137h-731v137h731z" />
    <glyph glyph-name="endash" unicode="&#x2013;" horiz-adv-x="790" 
d="M761 530v-137h-731v137h731z" />
    <glyph glyph-name="emdash" horiz-adv-x="1075" 
d="M1040 530v-137h-1010v137h1010z" />
    <glyph glyph-name="emdash" unicode="&#x2014;" horiz-adv-x="1075" 
d="M1040 530v-137h-1010v137h1010z" />
    <glyph glyph-name="maihanakatleftthai" 
d="M-384 1170l-82 -131h-458l-97 181h129l99 -50h409z" />
    <glyph glyph-name="maihanakatleftthai" unicode="&#xf710;" 
d="M-384 1170l-82 -131h-458l-97 181h129l99 -50h409z" />
    <glyph glyph-name="maihanakatleftthai" unicode="&#x2dc;" 
d="M-384 1170l-82 -131h-458l-97 181h129l99 -50h409z" />
    <glyph glyph-name="nikhahitleftthai" 
d="M-745 1282q0 43 14.5 59t53.5 16h200q39 0 53 -16t14 -59v-165q0 -44 -14 -59.5t-53 -15.5h-200q-39 0 -53.5 15.5t-14.5 59.5v165zM-631 1143h106v103h-106v-103z" />
    <glyph glyph-name="nikhahitleftthai" unicode="&#xf711;" 
d="M-745 1282q0 43 14.5 59t53.5 16h200q39 0 53 -16t14 -59v-165q0 -44 -14 -59.5t-53 -15.5h-200q-39 0 -53.5 15.5t-14.5 59.5v165zM-631 1143h106v103h-106v-103z" />
    <glyph glyph-name="nikhahitleftthai" unicode="&#x2122;" 
d="M-745 1282q0 43 14.5 59t53.5 16h200q39 0 53 -16t14 -59v-165q0 -44 -14 -59.5t-53 -15.5h-200q-39 0 -53.5 15.5t-14.5 59.5v165zM-631 1143h106v103h-106v-103z" />
    <glyph glyph-name="maitaikhuleftthai" 
d="M-238 1479l-79 -115h-622v-200h88q53 58 121 116v1q58 -58 124 -117h75v75l154 35v-38q0 -108 -41 -151.5t-162 -43.5h-68l-82 82v-1l-81 -81h-79q-93 0 -138 44q-41 40 -45 141v68q4 101 45 141q45 44 138 44h652z" />
    <glyph glyph-name="maitaikhuleftthai" unicode="&#xf712;" 
d="M-238 1479l-79 -115h-622v-200h88q53 58 121 116v1q58 -58 124 -117h75v75l154 35v-38q0 -108 -41 -151.5t-162 -43.5h-68l-82 82v-1l-81 -81h-79q-93 0 -138 44q-41 40 -45 141v68q4 101 45 141q45 44 138 44h652z" />
    <glyph glyph-name="maitaikhuleftthai" unicode="&#x161;" 
d="M-238 1479l-79 -115h-622v-200h88q53 58 121 116v1q58 -58 124 -117h75v75l154 35v-38q0 -108 -41 -151.5t-162 -43.5h-68l-82 82v-1l-81 -81h-79q-93 0 -138 44q-41 40 -45 141v68q4 101 45 141q45 44 138 44h652z" />
    <glyph glyph-name="maiekupperleftthai" 
d="M-391 1448h-152v245h152v-245z" />
    <glyph glyph-name="maiekupperleftthai" unicode="&#xf713;" 
d="M-391 1448h-152v245h152v-245z" />
    <glyph glyph-name="maiekupperleftthai" unicode="&#x203a;" 
d="M-391 1448h-152v245h152v-245z" />
    <glyph glyph-name="maithoupperleftthai" 
d="M-742 1555v78h-88l-30 125h79q93 0 138 -40q38 -40 34 -81v-75h275l79 -128h-302q-93 0 -148 44q-26 26 -37 77z" />
    <glyph glyph-name="maithoupperleftthai" unicode="&#xf714;" 
d="M-742 1555v78h-88l-30 125h79q93 0 138 -40q38 -40 34 -81v-75h275l79 -128h-302q-93 0 -148 44q-26 26 -37 77z" />
    <glyph glyph-name="maithoupperleftthai" unicode="&#x153;" 
d="M-742 1555v78h-88l-30 125h79q93 0 138 -40q38 -40 34 -81v-75h275l79 -128h-302q-93 0 -148 44q-26 26 -37 77z" />
    <glyph glyph-name="maitriupperleftthai" 
d="M-440 1536q-53 -58 -121 -116v-1q-58 58 -124 117h-75v-95l-154 -35v58q0 108 41 151.5t162 43.5h68l82 -82v1l81 81l130 -1v222q57 -9 89 -41q49 -49 53 -140v-275h-144v112h-88z" />
    <glyph glyph-name="maitriupperleftthai" unicode="&#xf715;" 
d="M-440 1536q-53 -58 -121 -116v-1q-58 58 -124 117h-75v-95l-154 -35v58q0 108 41 151.5t162 43.5h68l82 -82v1l81 81l130 -1v222q57 -9 89 -41q49 -49 53 -140v-275h-144v112h-88z" />
    <glyph glyph-name="maichattawaupperleftthai" 
d="M-405 1535v-97h-138v97h-96v132h96v96h138v-96h97v-132h-97z" />
    <glyph glyph-name="maichattawaupperleftthai" unicode="&#xf716;" 
d="M-405 1535v-97h-138v97h-96v132h96v96h138v-96h97v-132h-97z" />
    <glyph glyph-name="maichattawaupperleftthai" unicode="&#x17e;" 
d="M-405 1535v-97h-138v97h-96v132h96v96h138v-96h97v-132h-97z" />
    <glyph glyph-name="thanthakhatupperleftthai" 
d="M-499 1592h1v-63h88l30 -125h-79q-93 0 -138 40q-38 40 -34 81v67h-1q1 66 37 92q55 44 148 44h342l-79 -128h-315v-8z" />
    <glyph glyph-name="thanthakhatupperleftthai" unicode="&#xf717;" 
d="M-499 1592h1v-63h88l30 -125h-79q-93 0 -138 40q-38 40 -34 81v67h-1q1 66 37 92q55 44 148 44h342l-79 -128h-315v-8z" />
    <glyph glyph-name="thanthakhatupperleftthai" unicode="&#x178;" 
d="M-499 1592h1v-63h88l30 -125h-79q-93 0 -138 40q-38 40 -34 81v67h-1q1 66 37 92q55 44 148 44h342l-79 -128h-315v-8z" />
    <glyph glyph-name="uni00A0" unicode="&#xa0;" horiz-adv-x="925" 
 />
    <glyph glyph-name="uni00A0" unicode="&#xe00;" horiz-adv-x="925" 
 />
    <glyph glyph-name="kokaithai" unicode="&#xa1;" horiz-adv-x="1285" 
d="M150 869h771q124 0 168.5 -43t44.5 -163v-663h-166v736h-654v-736h-164v869z" />
    <glyph glyph-name="kokaithai" unicode="&#xe01;" horiz-adv-x="1285" 
d="M150 869h771q124 0 168.5 -43t44.5 -163v-663h-166v736h-654v-736h-164v869z" />
    <glyph glyph-name="khokhaithai" unicode="&#xa2;" horiz-adv-x="1086" 
d="M326 869l185 -230l-195 -169v-339h454v738h166v-664q0 -120 -44.5 -162.5t-168.5 -42.5h-358q-124 0 -168.5 43t-44.5 162v332l150 127l-170 205h194z" />
    <glyph glyph-name="khokhaithai" unicode="&#xe02;" horiz-adv-x="1086" 
d="M326 869l185 -230l-195 -169v-339h454v738h166v-664q0 -120 -44.5 -162.5t-168.5 -42.5h-358q-124 0 -168.5 43t-44.5 162v332l150 127l-170 205h194z" />
    <glyph glyph-name="khokhuatthai" unicode="&#xa3;" horiz-adv-x="1146" 
d="M366 869h92q92 -1 92 -151v-169l-195 -149v-269h474v738h166v-664q0 -120 -44.5 -162.5t-168.5 -42.5h-378q-124 0 -168.5 43t-44.5 162v262l220 147v126l-81 -81h-90l-139 138l100 71l83 -83z" />
    <glyph glyph-name="khokhuatthai" unicode="&#xe03;" horiz-adv-x="1146" 
d="M366 869h92q92 -1 92 -151v-169l-195 -149v-269h474v738h166v-664q0 -120 -44.5 -162.5t-168.5 -42.5h-378q-124 0 -168.5 43t-44.5 162v262l220 147v126l-81 -81h-90l-139 138l100 71l83 -83z" />
    <glyph glyph-name="khokhwaithai" unicode="&#xa4;" horiz-adv-x="1255" 
d="M314 481h294l60 -138h-354v-343h-164v674q0 108 46 151.5t167 43.5h530q123 0 168 -44t45 -163v-662h-164v736h-628v-255z" />
    <glyph glyph-name="khokhwaithai" unicode="&#xe04;" horiz-adv-x="1255" 
d="M314 481h294l60 -138h-354v-343h-164v674q0 108 46 151.5t167 43.5h530q123 0 168 -44t45 -163v-662h-164v736h-628v-255z" />
    <glyph glyph-name="khokhonthai" unicode="&#xa5;" horiz-adv-x="1255" 
d="M314 736v-255h294l60 -138h-354v-343h-164v674q0 108 46 150.5t167 44.5h1v-1l200 1l62 -62v1l61 61h206q123 0 168 -44t45 -163v-662h-164v736h-112h-103q-33 -48 -101 -96v-1q-58 48 -104 97h-208z" />
    <glyph glyph-name="khokhonthai" unicode="&#xe05;" horiz-adv-x="1255" 
d="M314 736v-255h294l60 -138h-354v-343h-164v674q0 108 46 150.5t167 44.5h1v-1l200 1l62 -62v1l61 61h206q123 0 168 -44t45 -163v-662h-164v736h-112h-103q-33 -48 -101 -96v-1q-58 48 -104 97h-208z" />
    <glyph glyph-name="khorakhangthai" unicode="&#xa6;" horiz-adv-x="1276" 
d="M963 869h163v-872h-351q-71 3 -138 50l-272 143v-193h-165v470l191 147v126l-81 -81h-90l-139 138l100 71l82 -82l83 83h92q92 -2 92 -151v-169l-165 -129v-75l342 -180q45 -29 98 -29h158v733z" />
    <glyph glyph-name="khorakhangthai" unicode="&#xe06;" horiz-adv-x="1276" 
d="M963 869h163v-872h-351q-71 3 -138 50l-272 143v-193h-165v470l191 147v126l-81 -81h-90l-139 138l100 71l82 -82l83 83h92q92 -2 92 -151v-169l-165 -129v-75l342 -180q45 -29 98 -29h158v733z" />
    <glyph glyph-name="ngonguthai" unicode="&#xa7;" horiz-adv-x="984" 
d="M664 868h167v-868h-341q-109 0 -138 50l-272 357l118 78l244 -317q15 -25 32 -28t66 -1h124v729z" />
    <glyph glyph-name="ngonguthai" unicode="&#xe07;" horiz-adv-x="984" 
d="M664 868h167v-868h-341q-109 0 -138 50l-272 357l118 78l244 -317q15 -25 32 -28t66 -1h124v729z" />
    <glyph glyph-name="chochanthai" unicode="&#xa8;" horiz-adv-x="1150" 
d="M260 868v1h526q123 0 168 -44t46 -163v-662h-208q-199 288 -419 426l173 50q149 -87 292 -265v525h-591v-114l-148 32v21q0 111 46 153q35 33 115 40z" />
    <glyph glyph-name="chochanthai" unicode="&#xe08;" horiz-adv-x="1150" 
d="M260 868v1h526q123 0 168 -44t46 -163v-662h-208q-199 288 -419 426l173 50q149 -87 292 -265v525h-591v-114l-148 32v21q0 111 46 153q35 33 115 40z" />
    <glyph glyph-name="chochingthai" unicode="&#xa9;" horiz-adv-x="1224" 
d="M313 139h167q53 0 98 29l331 201v367h-597v-114l-163 32v21q0 111 46 153q35 33 125 40v1h539q123 0 168 -44t47 -153v-672h-164v214l-262 -164q-67 -47 -138 -50h-361v450l164 -36v-275z" />
    <glyph glyph-name="chochingthai" unicode="&#xe09;" horiz-adv-x="1224" 
d="M313 139h167q53 0 98 29l331 201v367h-597v-114l-163 32v21q0 111 46 153q35 33 125 40v1h539q123 0 168 -44t47 -153v-672h-164v214l-262 -164q-67 -47 -138 -50h-361v450l164 -36v-275z" />
    <glyph glyph-name="chochangthai" unicode="&#xaa;" horiz-adv-x="1088" 
d="M315 869v-739h454v386l-258 257l332 331h201l-326 -326l217 -217v-357q0 -120 -44.5 -162.5t-168.5 -42.5h-358q-124 0 -168.5 43t-44.5 162v665h164z" />
    <glyph glyph-name="chochangthai" unicode="&#xe0a;" horiz-adv-x="1088" 
d="M315 869v-739h454v386l-258 257l332 331h201l-326 -326l217 -217v-357q0 -120 -44.5 -162.5t-168.5 -42.5h-358q-124 0 -168.5 43t-44.5 162v665h164z" />
    <glyph glyph-name="sosothai" unicode="&#xab;" horiz-adv-x="1213" 
d="M413 -1q-124 0 -168.5 43t-44.5 163v264l220 147v126l-81 -81h-90l-139 138l100 71l83 -83l82 84h92q92 -1 92 -151v-169l-195 -149v-272h534v386l-258 257l332 331h201l-326 -326l217 -217v-357q0 -120 -44.5 -162.5t-168.5 -42.5h-438z" />
    <glyph glyph-name="sosothai" unicode="&#xe0b;" horiz-adv-x="1213" 
d="M413 -1q-124 0 -168.5 43t-44.5 163v264l220 147v126l-81 -81h-90l-139 138l100 71l83 -83l82 84h92q92 -1 92 -151v-169l-195 -149v-272h534v386l-258 257l332 331h201l-326 -326l217 -217v-357q0 -120 -44.5 -162.5t-168.5 -42.5h-438z" />
    <glyph glyph-name="chochoethai" unicode="&#xac;" horiz-adv-x="2018" 
d="M1704 345v525h163v-512h1v-359h-351q-71 3 -138 50l-272 143v-193h-165v737h-628v-595h254l60 -141h-478v869h743q123 0 168 -44t45 -163v-315l343 -180q45 -29 98 -29h157v207z" />
    <glyph glyph-name="chochoethai" unicode="&#xe0c;" horiz-adv-x="2018" 
d="M1704 345v525h163v-512h1v-359h-351q-71 3 -138 50l-272 143v-193h-165v737h-628v-595h254l60 -141h-478v869h743q123 0 168 -44t45 -163v-315l343 -180q45 -29 98 -29h157v207z" />
    <glyph glyph-name="yoyingthai" unicode="&#xad;" horiz-adv-x="2016" 
d="M1703 204h-761v532h-628v-736h-164v869h743q123 0 168 -44t45 -163v-319h598v527h163v-726q0 -59 -44.5 -102t-168.5 -43h-658l-47 131h754v74z" />
    <glyph glyph-name="yoyingthai" unicode="&#xe0d;" horiz-adv-x="2016" 
d="M1703 204h-761v532h-628v-736h-164v869h743q123 0 168 -44t45 -163v-319h598v527h163v-726q0 -59 -44.5 -102t-168.5 -43h-658l-47 131h754v74z" />
    <glyph glyph-name="yoyingthai" unicode="&#xde;" horiz-adv-x="2016" 
d="M1703 204h-761v532h-628v-736h-164v869h743q123 0 168 -44t45 -163v-319h598v527h163v-726q0 -59 -44.5 -102t-168.5 -43h-658l-47 131h754v74z" />
    <glyph glyph-name="dochadathai" unicode="&#xae;" horiz-adv-x="1243" 
d="M928 -294v1030h-614v-736h-164v869h731q124 0 168.5 -43t44.5 -163v-1102h-186l-197 138l-203 -137h-400v137h370l234 153z" />
    <glyph glyph-name="dochadathai" unicode="&#xe0e;" horiz-adv-x="1243" 
d="M928 -294v1030h-614v-736h-164v869h731q124 0 168.5 -43t44.5 -163v-1102h-186l-197 138l-203 -137h-400v137h370l234 153z" />
    <glyph glyph-name="topatakthai" unicode="&#xaf;" horiz-adv-x="1244" 
d="M928 736h-614v-736h-164v869h731q124 0 168.5 -43t44.5 -163v-1102h-186l-130 130l-130 -129v1l-129 128l-130 -129h-281v137h245l157 155l137 -138l135 136l146 -146v1030z" />
    <glyph glyph-name="topatakthai" unicode="&#xe0f;" horiz-adv-x="1244" 
d="M928 736h-614v-736h-164v869h731q124 0 168.5 -43t44.5 -163v-1102h-186l-130 130l-130 -129v1l-129 128l-130 -129h-281v137h245l157 155l137 -138l135 136l146 -146v1030z" />
    <glyph glyph-name="thothanthai" unicode="&#xb0;" horiz-adv-x="1146" 
d="M998 0h-220q-149 238 -389 406h213q119 -87 229 -235v339h-469q-121 0 -167 43.5t-46 151.5v162h888l-60 -131h-684v-83h705v-653zM1044 -109v-334h-186l-130 130l-130 -129v1l-129 128l-130 -129l-201 -1v138h165l155 155l139 -138l135 136l146 -146v189h166z" />
    <glyph glyph-name="thothanthai" unicode="&#xe10;" horiz-adv-x="1146" 
d="M998 0h-220q-149 238 -389 406h213q119 -87 229 -235v339h-469q-121 0 -167 43.5t-46 151.5v162h888l-60 -131h-684v-83h705v-653zM1044 -109v-334h-186l-130 130l-130 -129v1l-129 128l-130 -129l-201 -1v138h165l155 155l139 -138l135 136l146 -146v189h166z" />
    <glyph glyph-name="thonangmonthothai" unicode="&#xb1;" horiz-adv-x="1308" 
d="M395 349v-352h-165v380l121 122v231l-71 -71h-90l-139 138l100 71l82 -82l83 83h92q91 -2 92 -209l167 158q47 48 138 51h351v-872h-163v733h-158q-73 0 -118 -59z" />
    <glyph glyph-name="thonangmonthothai" unicode="&#xe11;" horiz-adv-x="1308" 
d="M395 349v-352h-165v380l121 122v231l-71 -71h-90l-139 138l100 71l82 -82l83 83h92q91 -2 92 -209l167 158q47 48 138 51h351v-872h-163v733h-158q-73 0 -118 -59z" />
    <glyph glyph-name="thophuthaothai" unicode="&#xb2;" horiz-adv-x="2008" 
d="M314 130h361l-47 -130h-478v716q10 75 46 110q43 40 153 43h225l62 -62v1l61 61h186q123 0 168 -44t45 -163v-315l343 -180q45 -29 98 -29h157v732h163v-512h1v-359h-351q-71 3 -138 50l-272 143v-193h-165v737h-195q-33 -48 -101 -96v-1q-58 48 -104 97h-218v-606z" />
    <glyph glyph-name="thophuthaothai" unicode="&#xe12;" horiz-adv-x="2008" 
d="M314 130h361l-47 -130h-478v716q10 75 46 110q43 40 153 43h225l62 -62v1l61 61h186q123 0 168 -44t45 -163v-315l343 -180q45 -29 98 -29h157v732h163v-512h1v-359h-351q-71 3 -138 50l-272 143v-193h-165v737h-195q-33 -48 -101 -96v-1q-58 48 -104 97h-218v-606z" />
    <glyph glyph-name="nonenthai" unicode="&#xb3;" horiz-adv-x="2020" 
d="M942 -1v737h-628v-595h254l60 -141h-478v869h743q123 0 168 -44t45 -163v-524h158q53 0 98 29l342 179v524h163v-512h1v-359h-164v193l-272 -143q-67 -47 -138 -50h-352z" />
    <glyph glyph-name="nonenthai" unicode="&#xe13;" horiz-adv-x="2020" 
d="M942 -1v737h-628v-595h254l60 -141h-478v869h743q123 0 168 -44t45 -163v-524h158q53 0 98 29l342 179v524h163v-512h1v-359h-164v193l-272 -143q-67 -47 -138 -50h-352z" />
    <glyph glyph-name="dodekthai" unicode="&#xb4;" horiz-adv-x="1306" 
d="M314 130h361l-47 -130h-478v716q10 75 46 110q43 40 153 43h594q123 0 168 -44t45 -163v-663h-164v737h-678v-606z" />
    <glyph glyph-name="dodekthai" unicode="&#xe14;" horiz-adv-x="1306" 
d="M314 130h361l-47 -130h-478v716q10 75 46 110q43 40 153 43h594q123 0 168 -44t45 -163v-663h-164v737h-678v-606z" />
    <glyph glyph-name="totaothai" unicode="&#xb5;" horiz-adv-x="1306" 
d="M943 869q123 0 168 -44t45 -163v-663h-164v737h-238q-33 -48 -101 -96v-1q-58 48 -104 97h-235v-606h361l-47 -130h-478v716q10 75 46 110q43 40 153 43h242l62 -62v1l61 61h229z" />
    <glyph glyph-name="totaothai" unicode="&#xe15;" horiz-adv-x="1306" 
d="M943 869q123 0 168 -44t45 -163v-663h-164v737h-238q-33 -48 -101 -96v-1q-58 48 -104 97h-235v-606h361l-47 -130h-478v716q10 75 46 110q43 40 153 43h242l62 -62v1l61 61h229z" />
    <glyph glyph-name="thothungthai" unicode="&#xb6;" horiz-adv-x="1285" 
d="M150 869h771q124 0 168.5 -43t44.5 -163v-663h-166v736h-654v-606h182l-47 -130h-299v869z" />
    <glyph glyph-name="thothungthai" unicode="&#xe16;" horiz-adv-x="1285" 
d="M150 869h771q124 0 168.5 -43t44.5 -163v-663h-166v736h-654v-606h182l-47 -130h-299v869z" />
    <glyph glyph-name="thothahanthai" unicode="&#xb7;" horiz-adv-x="1324" 
d="M365 346v-349h-165v736h-119l80 135h202v-330l280 280q47 48 138 51h391v-872h-163v733h-198q-63 0 -121 -59z" />
    <glyph glyph-name="thothahanthai" unicode="&#x2219;" horiz-adv-x="1324" 
d="M365 346v-349h-165v736h-119l80 135h202v-330l280 280q47 48 138 51h391v-872h-163v733h-198q-63 0 -121 -59z" />
    <glyph glyph-name="thothahanthai" unicode="&#xe17;" horiz-adv-x="1324" 
d="M365 346v-349h-165v736h-119l80 135h202v-330l280 280q47 48 138 51h391v-872h-163v733h-198q-63 0 -121 -59z" />
    <glyph glyph-name="thothongthai" unicode="&#xb8;" horiz-adv-x="1275" 
d="M150 715q10 75 46 110q43 40 153 43h564q123 0 168 -44q29 -28 39 -87v-2h-806v-158h810v-577h-976v343h164v-213h648v325h-810v260z" />
    <glyph glyph-name="thothongthai" unicode="&#xe18;" horiz-adv-x="1275" 
d="M150 715q10 75 46 110q43 40 153 43h564q123 0 168 -44q29 -28 39 -87v-2h-806v-158h810v-577h-976v343h164v-213h648v325h-810v260z" />
    <glyph glyph-name="nonuthai" unicode="&#xb9;" horiz-adv-x="1224" 
d="M150 869l163 -36v-694h168q53 0 98 29l332 200v501h164v-869h-164v213l-262 -163q-67 -47 -138 -50h-361v869z" />
    <glyph glyph-name="nonuthai" unicode="&#xe19;" horiz-adv-x="1224" 
d="M150 869l163 -36v-694h168q53 0 98 29l332 200v501h164v-869h-164v213l-262 -163q-67 -47 -138 -50h-361v869z" />
    <glyph glyph-name="bobaimaithai" unicode="&#xba;" horiz-adv-x="1258" 
d="M314 133h628v736h164v-662q0 -119 -45 -163t-168 -44h-530q-121 0 -167 43.5t-46 151.5v674h164v-736z" />
    <glyph glyph-name="bobaimaithai" unicode="&#xe1a;" horiz-adv-x="1258" 
d="M314 133h628v736h164v-662q0 -119 -45 -163t-168 -44h-530q-121 0 -167 43.5t-46 151.5v674h164v-736z" />
    <glyph glyph-name="poplathai" unicode="&#xbb;" horiz-adv-x="1256" 
d="M314 133h628v1015h164v-941q0 -119 -45 -163t-168 -44h-530q-121 0 -167 43.5t-46 151.5v674h164v-736z" />
    <glyph glyph-name="poplathai" unicode="&#xe1b;" horiz-adv-x="1256" 
d="M314 133h628v1015h164v-941q0 -119 -45 -163t-168 -44h-530q-121 0 -167 43.5t-46 151.5v674h164v-736z" />
    <glyph glyph-name="phophungthai" unicode="&#xbc;" horiz-adv-x="1356" 
d="M299 182l323 687h118l317 -687v687h149v-869h-231l-294 646l-316 -646h-215v869h228l47 -130h-126v-557z" />
    <glyph glyph-name="phophungthai" unicode="&#xe1c;" horiz-adv-x="1356" 
d="M299 182l323 687h118l317 -687v687h149v-869h-231l-294 646l-316 -646h-215v869h228l47 -130h-126v-557z" />
    <glyph glyph-name="fofathai" unicode="&#xbd;" horiz-adv-x="1356" 
d="M299 182l323 687h118l317 -687v968h149v-1150h-231l-294 646l-316 -646h-215v869h228l47 -130h-126v-557z" />
    <glyph glyph-name="fofathai" unicode="&#xe1d;" horiz-adv-x="1356" 
d="M299 182l323 687h118l317 -687v968h149v-1150h-231l-294 646l-316 -646h-215v869h228l47 -130h-126v-557z" />
    <glyph glyph-name="phophanthai" unicode="&#xbe;" horiz-adv-x="1378" 
d="M299 182l333 687h118l327 -687v687h149v-869h-231l-304 656l-326 -656h-215v869h149v-687z" />
    <glyph glyph-name="phophanthai" unicode="&#xe1e;" horiz-adv-x="1378" 
d="M299 182l333 687h118l327 -687v687h149v-869h-231l-304 656l-326 -656h-215v869h149v-687z" />
    <glyph glyph-name="fofanthai" unicode="&#xbf;" horiz-adv-x="1375" 
d="M299 182l333 688h118l327 -688v968h149v-1150h-231l-304 656l-326 -656h-215v870h149v-688z" />
    <glyph glyph-name="fofanthai" unicode="&#xe1f;" horiz-adv-x="1375" 
d="M299 182l333 688h118l327 -688v968h149v-1150h-231l-304 656l-326 -656h-215v870h149v-688z" />
    <glyph glyph-name="phosamphaothai" unicode="&#xc0;" horiz-adv-x="1305" 
d="M170 869h771q124 0 168.5 -43t44.5 -163v-663h-166v736h-654v-736h-239l-57 130h132v739z" />
    <glyph glyph-name="phosamphaothai" unicode="&#xe20;" horiz-adv-x="1305" 
d="M170 869h771q124 0 168.5 -43t44.5 -163v-663h-166v736h-654v-736h-239l-57 130h132v739z" />
    <glyph glyph-name="momathai" unicode="&#xc1;" horiz-adv-x="1224" 
d="M911 869h164v-869h-362q-71 3 -138 50l-262 163v-213h-163v869l163 -36v-465l332 -200q45 -29 98 -29h168v730z" />
    <glyph glyph-name="momathai" unicode="&#xe21;" horiz-adv-x="1224" 
d="M911 869h164v-869h-362q-71 3 -138 50l-262 163v-213h-163v869l163 -36v-465l332 -200q45 -29 98 -29h168v730z" />
    <glyph glyph-name="yoyakthai" unicode="&#xc2;" horiz-adv-x="1256" 
d="M150 869h299l47 -133h-182v-214h264l50 -138h-314v-251h628v736h164v-662q0 -119 -45 -163t-168 -44h-530q-121 0 -167 43.5t-46 151.5v179l62 62h-1l-61 61v372z" />
    <glyph glyph-name="yoyakthai" unicode="&#xe22;" horiz-adv-x="1256" 
d="M150 869h299l47 -133h-182v-214h264l50 -138h-314v-251h628v736h164v-662q0 -119 -45 -163t-168 -44h-530q-121 0 -167 43.5t-46 151.5v179l62 62h-1l-61 61v372z" />
    <glyph glyph-name="roruathai" unicode="&#xc3;" horiz-adv-x="1219" 
d="M908 728h-603v-214h551q126 0 170.5 -42.5t44.5 -162.5v-104q0 -120 -43.5 -162.5t-171.5 -42.5h-648l-63 143h773v220h-557q-123 0 -167 57.5t-44 159.5v82q0 119 44 163t167 44h483q125 0 171 -32t46 -109v-21l-153 -38v59z" />
    <glyph glyph-name="roruathai" unicode="&#xe23;" horiz-adv-x="1219" 
d="M908 728h-603v-214h551q126 0 170.5 -42.5t44.5 -162.5v-104q0 -120 -43.5 -162.5t-171.5 -42.5h-648l-63 143h773v220h-557q-123 0 -167 57.5t-44 159.5v82q0 119 44 163t167 44h483q125 0 171 -32t46 -109v-21l-153 -38v59z" />
    <glyph glyph-name="ruthai" unicode="&#xc4;" horiz-adv-x="1285" 
d="M150 869h771q124 0 168.5 -43t44.5 -163v-1010h-166v1083h-654v-606h182l-47 -130h-299v869z" />
    <glyph glyph-name="ruthai" unicode="&#xe24;" horiz-adv-x="1285" 
d="M150 869h771q124 0 168.5 -43t44.5 -163v-1010h-166v1083h-654v-606h182l-47 -130h-299v869z" />
    <glyph glyph-name="lolingthai" unicode="&#xc5;" horiz-adv-x="1255" 
d="M149 0v284q0 108 46 151.5t167 44.5h580v256h-628v-65l-164 -35v38q0 108 46 151.5t167 43.5h530q123 0 168 -44t45 -163v-662h-164v344h-628v-209h263v-135h-428z" />
    <glyph glyph-name="lolingthai" unicode="&#xe25;" horiz-adv-x="1255" 
d="M149 0v284q0 108 46 151.5t167 44.5h580v256h-628v-65l-164 -35v38q0 108 46 151.5t167 43.5h530q123 0 168 -44t45 -163v-662h-164v344h-628v-209h263v-135h-428z" />
    <glyph glyph-name="luthai" unicode="&#xc6;" horiz-adv-x="1305" 
d="M170 869h771q124 0 168.5 -43t44.5 -163v-1010h-166v1083h-654v-736h-239l-57 130h132v739z" />
    <glyph glyph-name="luthai" unicode="&#xe26;" horiz-adv-x="1305" 
d="M170 869h771q124 0 168.5 -43t44.5 -163v-1010h-166v1083h-654v-736h-239l-57 130h132v739z" />
    <glyph glyph-name="wowaenthai" unicode="&#xc7;" horiz-adv-x="1228" 
d="M912 140v596h-628v-65l-164 -35v38q0 108 46 151.5t167 43.5h530q123 0 168 -44t45 -163v-662h-487l-65 140h388z" />
    <glyph glyph-name="wowaenthai" unicode="&#xe27;" horiz-adv-x="1228" 
d="M912 140v596h-628v-65l-164 -35v38q0 108 46 151.5t167 43.5h530q123 0 168 -44t45 -163v-662h-487l-65 140h388z" />
    <glyph glyph-name="sosalathai" unicode="&#xc8;" horiz-adv-x="1255" 
d="M748 736h-434v-255h294l60 -138h-354v-343h-164v674q0 108 46 151.5t167 43.5h447l127 272l104 -43l-98 -231q83 -8 118 -42q45 -44 45 -163v-662h-164v736h-54l-72 -171h-148z" />
    <glyph glyph-name="sosalathai" unicode="&#xe28;" horiz-adv-x="1255" 
d="M748 736h-434v-255h294l60 -138h-354v-343h-164v674q0 108 46 151.5t167 43.5h447l127 272l104 -43l-98 -231q83 -8 118 -42q45 -44 45 -163v-662h-164v736h-54l-72 -171h-148z" />
    <glyph glyph-name="sorusithai" unicode="&#xc9;" horiz-adv-x="1291" 
d="M1106 461v-254q0 -119 -45 -163t-168 -44h-530q-121 0 -167 43.5t-46 151.5v674h164v-736h628v304l-310 -47l-14 141l324 41v297h164v-276l190 24l-40 -133z" />
    <glyph glyph-name="sorusithai" unicode="&#xe29;" horiz-adv-x="1291" 
d="M1106 461v-254q0 -119 -45 -163t-168 -44h-530q-121 0 -167 43.5t-46 151.5v674h164v-736h628v304l-310 -47l-14 141l324 41v297h164v-276l190 24l-40 -133z" />
    <glyph glyph-name="sosuathai" unicode="&#xca;" horiz-adv-x="1256" 
d="M836 570h-148l77 166h-451v-65l-164 -35v38q0 108 46 151.5t167 43.5h464l130 277l104 -43l-101 -238q69 -10 101 -40q45 -44 45 -163v-662h-164v344h-628v-209h263v-135h-428v284q0 108 46 151.5t167 44.5h580v256h-36z" />
    <glyph glyph-name="sosuathai" unicode="&#xe2a;" horiz-adv-x="1256" 
d="M836 570h-148l77 166h-451v-65l-164 -35v38q0 108 46 151.5t167 43.5h464l130 277l104 -43l-101 -238q69 -10 101 -40q45 -44 45 -163v-662h-164v344h-628v-209h263v-135h-428v284q0 108 46 151.5t167 44.5h580v256h-36z" />
    <glyph glyph-name="hohipthai" unicode="&#xcb;" horiz-adv-x="1373" 
d="M1222 -3h-163v384l-191 180l-503 -415v-149h-165v736h-119l80 135h202v-540l717 597l106 -96l-190 -161l226 -225v-446z" />
    <glyph glyph-name="hohipthai" unicode="&#xe2b;" horiz-adv-x="1373" 
d="M1222 -3h-163v384l-191 180l-503 -415v-149h-165v736h-119l80 135h202v-540l717 597l106 -96l-190 -161l226 -225v-446z" />
    <glyph glyph-name="lochulathai" unicode="&#xcc;" horiz-adv-x="1376" 
d="M299 182l333 687h118l327 -687v467q0 137 -229 158v132q289 12 279 200h149q10 -227 -200 -280q150 -64 150 -197v-662h-231l-304 656l-326 -656h-215v869h149v-687z" />
    <glyph glyph-name="lochulathai" unicode="&#xe2c;" horiz-adv-x="1376" 
d="M299 182l333 687h118l327 -687v467q0 137 -229 158v132q289 12 279 200h149q10 -227 -200 -280q150 -64 150 -197v-662h-231l-304 656l-326 -656h-215v869h149v-687z" />
    <glyph glyph-name="oangthai" unicode="&#xcd;" horiz-adv-x="1228" 
d="M913 133l-1 603h-628v-95l-164 -35v68q0 108 46 151.5t167 43.5h530q123 0 168 -44t46 -163v-455q0 -119 -45 -163t-168 -44h-530q-121 0 -167 43.5t-46 151.5v285h428l50 -136h-314v-211h628z" />
    <glyph glyph-name="oangthai" unicode="&#xe2d;" horiz-adv-x="1228" 
d="M913 133l-1 603h-628v-95l-164 -35v68q0 108 46 151.5t167 43.5h530q123 0 168 -44t46 -163v-455q0 -119 -45 -163t-168 -44h-530q-121 0 -167 43.5t-46 151.5v285h428l50 -136h-314v-211h628z" />
    <glyph glyph-name="honokhukthai" unicode="&#xce;" horiz-adv-x="1228" 
d="M746 570h-148l77 166h-391v-95l-164 -35v68q0 108 46 151.5t167 43.5h404l130 277l104 -43l-99 -234q115 -2 159 -44q45 -44 46 -163v-455q0 -119 -45 -163t-168 -44h-530q-121 0 -167 43.5t-46 151.5v285h428l50 -136h-314v-211h628l-1 603h-96z" />
    <glyph glyph-name="honokhukthai" unicode="&#xe2e;" horiz-adv-x="1228" 
d="M746 570h-148l77 166h-391v-95l-164 -35v68q0 108 46 151.5t167 43.5h404l130 277l104 -43l-99 -234q115 -2 159 -44q45 -44 46 -163v-455q0 -119 -45 -163t-168 -44h-530q-121 0 -167 43.5t-46 151.5v285h428l50 -136h-314v-211h628l-1 603h-96z" />
    <glyph glyph-name="paiyannoithai" unicode="&#xcf;" horiz-adv-x="1024" 
d="M876 -320h-164v736h-379q-121 0 -167 43.5t-46 151.5v38l164 -35v-64h428v109h164v-979z" />
    <glyph glyph-name="paiyannoithai" unicode="&#xe2f;" horiz-adv-x="1024" 
d="M876 -320h-164v736h-379q-121 0 -167 43.5t-46 151.5v38l164 -35v-64h428v109h164v-979z" />
    <glyph glyph-name="saraathai" unicode="&#xd0;" horiz-adv-x="819" 
d="M758 684l-82 -141h-578l-47 141h707zM758 299l-82 -141h-578l-47 141h707z" />
    <glyph glyph-name="saraathai" unicode="&#xe30;" horiz-adv-x="819" 
d="M758 684l-82 -141h-578l-47 141h707zM758 299l-82 -141h-578l-47 141h707z" />
    <glyph glyph-name="maihanakatthai" unicode="&#xd1;" 
d="M126 1170l-82 -131h-608l-67 161l189 -30h568z" />
    <glyph glyph-name="maihanakatthai" unicode="&#xe31;" 
d="M126 1170l-82 -131h-608l-67 161l189 -30h568z" />
    <glyph glyph-name="saraaathai" unicode="&#xd2;" horiz-adv-x="1228" 
d="M912 0v736h-628v-65l-164 -35v38q0 108 46 151.5t167 43.5h530q123 0 168 -44t45 -163v-662h-164z" />
    <glyph glyph-name="saraaathai" unicode="&#xe32;" horiz-adv-x="1228" 
d="M912 0v736h-628v-65l-164 -35v38q0 108 46 151.5t167 43.5h530q123 0 168 -44t45 -163v-662h-164z" />
    <glyph glyph-name="saraamthai" unicode="&#xd3;" horiz-adv-x="1227" 
d="M912 0v736h-628v-65l-164 -35v38q0 108 46 151.5t167 43.5h530q123 0 168 -44t45 -163v-662h-164zM-415 1292q0 43 14.5 59t53.5 16h200q39 0 53 -16t14 -59v-165q0 -44 -14 -59.5t-53 -15.5h-200q-39 0 -53.5 15.5t-14.5 59.5v165zM-301 1153h106v103h-106v-103z" />
    <glyph glyph-name="saraamthai" unicode="&#xe33;" horiz-adv-x="1227" 
d="M912 0v736h-628v-65l-164 -35v38q0 108 46 151.5t167 43.5h530q123 0 168 -44t45 -163v-662h-164zM-415 1292q0 43 14.5 59t53.5 16h200q39 0 53 -16t14 -59v-165q0 -44 -14 -59.5t-53 -15.5h-200q-39 0 -53.5 15.5t-14.5 59.5v165zM-301 1153h106v103h-106v-103z" />
    <glyph glyph-name="saraithai" unicode="&#xd4;" 
d="M-958 1039l82 141h567l50 -141h-699z" />
    <glyph glyph-name="saraithai" unicode="&#xe34;" 
d="M-958 1039l82 141h567l50 -141h-699z" />
    <glyph glyph-name="saraiithai" unicode="&#xd5;" 
d="M-958 1039l82 141h476v114l141 82v-337h-699z" />
    <glyph glyph-name="saraiithai" unicode="&#xe35;" 
d="M-958 1039l82 141h476v114l141 82v-337h-699z" />
    <glyph glyph-name="sarauethai" unicode="&#xd6;" 
d="M-402 1171h85v85h-85v-85zM-275 1351q32 0 44 -13t12 -49v-187q0 -36 -12 -49t-44 -14h-683l82 141h381v109q0 36 12 49t44 13h164z" />
    <glyph glyph-name="sarauethai" unicode="&#xe36;" 
d="M-402 1171h85v85h-85v-85zM-275 1351q32 0 44 -13t12 -49v-187q0 -36 -12 -49t-44 -14h-683l82 141h381v109q0 36 12 49t44 13h164z" />
    <glyph glyph-name="saraueethai" unicode="&#xd7;" 
d="M-400 1314l141 32v-307h-699l82 141h286v134l141 32v-166h49v134z" />
    <glyph glyph-name="saraueethai" unicode="&#xe37;" 
d="M-400 1314l141 32v-307h-699l82 141h286v134l141 32v-166h49v134z" />
    <glyph glyph-name="sarauthai" unicode="&#xd8;" 
d="M-295 -441v208h-132l57 130h229v-338h-154z" />
    <glyph glyph-name="sarauthai" unicode="&#xe38;" 
d="M-295 -441v208h-132l57 130h229v-338h-154z" />
    <glyph glyph-name="sarauuthai" unicode="&#xd9;" 
d="M-585 -441v208h-132l57 130h229v-218h126v218h164v-338h-444z" />
    <glyph glyph-name="sarauuthai" unicode="&#xe39;" 
d="M-585 -441v208h-132l57 130h229v-218h126v218h164v-338h-444z" />
    <glyph glyph-name="phinthuthai" unicode="&#xda;" 
d="M-348 -206q0 31 10.5 42t37.5 11h143q27 0 37.5 -11t10.5 -42v-117q0 -31 -10.5 -42t-37.5 -11h-143q-27 0 -37.5 11t-10.5 42v117z" />
    <glyph glyph-name="phinthuthai" unicode="&#xe3a;" 
d="M-348 -206q0 31 10.5 42t37.5 11h143q27 0 37.5 -11t10.5 -42v-117q0 -31 -10.5 -42t-37.5 -11h-143q-27 0 -37.5 11t-10.5 42v117z" />
    <glyph glyph-name="PUCR2005" unicode="&#xdb;" 
 />
    <glyph glyph-name="PUCR2005" unicode="&#xe3b;" 
 />
    <glyph glyph-name="PUCR2005" unicode="&#xdc;" 
 />
    <glyph glyph-name="PUCR2005" unicode="&#xe3c;" 
 />
    <glyph glyph-name="PUCR2005" unicode="&#xdd;" 
 />
    <glyph glyph-name="PUCR2005" unicode="&#xe3d;" 
 />
    <glyph glyph-name="bahtthai" unicode="&#xdf;" horiz-adv-x="1569" 
d="M714 145v340h-263v-340h263zM714 0h-440v1057h440v272h177v-272h235q119 0 171.5 -48.5t52.5 -156.5v-123q0 -85 -42.5 -127t-133.5 -53q89 -11 135.5 -63.5t46.5 -143.5v-135q0 -105 -72.5 -156t-220.5 -51h-172v-247h-177v247zM891 915v-292h170q61 0 84.5 21t23.5 73
v106q0 52 -22.5 72t-85.5 20h-170zM714 623v292h-263v-292h263zM891 485v-340h170q67 0 92 27t25 98v88q0 72 -25.5 99.5t-91.5 27.5h-170z" />
    <glyph glyph-name="bahtthai" unicode="&#xe3f;" horiz-adv-x="1569" 
d="M714 145v340h-263v-340h263zM714 0h-440v1057h440v272h177v-272h235q119 0 171.5 -48.5t52.5 -156.5v-123q0 -85 -42.5 -127t-133.5 -53q89 -11 135.5 -63.5t46.5 -143.5v-135q0 -105 -72.5 -156t-220.5 -51h-172v-247h-177v247zM891 915v-292h170q61 0 84.5 21t23.5 73
v106q0 52 -22.5 72t-85.5 20h-170zM714 623v292h-263v-292h263zM891 485v-340h170q67 0 92 27t25 98v88q0 72 -25.5 99.5t-91.5 27.5h-170z" />
    <glyph glyph-name="saraethai" unicode="&#xe0;" horiz-adv-x="445" 
d="M314 0h-163v869h163v-869z" />
    <glyph glyph-name="saraethai" unicode="&#xe40;" horiz-adv-x="445" 
d="M314 0h-163v869h163v-869z" />
    <glyph glyph-name="saraaethai" unicode="&#xe1;" horiz-adv-x="821" 
d="M314 0h-163v869h163v-869zM654 0h-163v869h163v-869z" />
    <glyph glyph-name="saraaethai" unicode="&#xe41;" horiz-adv-x="821" 
d="M314 0h-163v869h163v-869zM654 0h-163v869h163v-869z" />
    <glyph glyph-name="saraothai" unicode="&#xe2;" horiz-adv-x="590" 
d="M447 845l1 -1v-844h-163v879l-269 138q-69 37 -69 110v93q0 105 92 105h282q95 0 126 -32t31 -89h-386v-67l282 -149q68 -37 73 -143z" />
    <glyph glyph-name="saraothai" unicode="&#xe42;" horiz-adv-x="590" 
d="M447 845l1 -1v-844h-163v879l-269 138q-69 37 -69 110v93q0 105 92 105h282q95 0 126 -32t31 -89h-386v-67l282 -149q68 -37 73 -143z" />
    <glyph glyph-name="saraaimaimuanthai" unicode="&#xe3;" horiz-adv-x="469" 
d="M150 956l231 230h-365v-161l-148 43v113q0 83 27.5 113t103.5 30h385q75 0 102.5 -30t27.5 -86v-87l-200 -200v-921h-163z" />
    <glyph glyph-name="saraaimaimuanthai" unicode="&#xe43;" horiz-adv-x="469" 
d="M150 956l231 230h-365v-161l-148 43v113q0 83 27.5 113t103.5 30h385q75 0 102.5 -30t27.5 -86v-87l-200 -200v-921h-163z" />
    <glyph glyph-name="saraaimaimalaithai" unicode="&#xe4;" horiz-adv-x="481" 
d="M525 1115v-67l-211 -210v-838h-163l-1 883l242 241l-108 108l-192 -192l-271 271l90 89l179 -180l194 193l206 -206q35 -31 35 -92z" />
    <glyph glyph-name="saraaimaimalaithai" unicode="&#xe44;" horiz-adv-x="481" 
d="M525 1115v-67l-211 -210v-838h-163l-1 883l242 241l-108 108l-192 -192l-271 271l90 89l179 -180l194 193l206 -206q35 -31 35 -92z" />
    <glyph glyph-name="lakkhangyaothai" unicode="&#xe5;" horiz-adv-x="1228" 
d="M912 -348v1084h-628v-65l-164 -35v38q0 108 46 151.5t167 43.5h530q123 0 168 -44t45 -163v-1010h-164z" />
    <glyph glyph-name="lakkhangyaothai" unicode="&#xe45;" horiz-adv-x="1228" 
d="M912 -348v1084h-628v-65l-164 -35v38q0 108 46 151.5t167 43.5h530q123 0 168 -44t45 -163v-1010h-164z" />
    <glyph glyph-name="maiyamokthai" unicode="&#xe6;" horiz-adv-x="1228" 
d="M284 736v-65l-164 -35v38q0 108 46 151.5t167 43.5h178l82 -82v1l81 81h189q123 0 168 -44t45 -163v-1010h-164v1084h-198q-53 -68 -121 -116v-1q-58 48 -124 117h-185z" />
    <glyph glyph-name="maiyamokthai" unicode="&#xe46;" horiz-adv-x="1228" 
d="M284 736v-65l-164 -35v38q0 108 46 151.5t167 43.5h178l82 -82v1l81 81h189q123 0 168 -44t45 -163v-1010h-164v1084h-198q-53 -68 -121 -116v-1q-58 48 -124 117h-185z" />
    <glyph glyph-name="maitaikhuthai" unicode="&#xe7;" 
d="M-128 1479l-79 -115h-622v-200h88q53 58 121 116v1q58 -58 124 -117h75v75l154 35v-38q0 -108 -41 -151.5t-162 -43.5h-68l-82 82v-1l-81 -81h-79q-93 0 -138 44q-41 40 -45 141v68q4 101 45 141q45 44 138 44h652z" />
    <glyph glyph-name="maitaikhuthai" unicode="&#xe47;" 
d="M-128 1479l-79 -115h-622v-200h88q53 58 121 116v1q58 -58 124 -117h75v75l154 35v-38q0 -108 -41 -151.5t-162 -43.5h-68l-82 82v-1l-81 -81h-79q-93 0 -138 44q-41 40 -45 141v68q4 101 45 141q45 44 138 44h652z" />
    <glyph glyph-name="maiekthai" unicode="&#xe8;" 
d="M-241 1448h-152v245h152v-245z" />
    <glyph glyph-name="maiekthai" unicode="&#xe48;" 
d="M-241 1448h-152v245h152v-245z" />
    <glyph glyph-name="maithothai" unicode="&#xe9;" 
d="M-572 1555v78h-88l-30 125h79q93 0 138 -40q38 -40 34 -81v-75h275l79 -128h-302q-93 0 -148 44q-26 26 -37 77z" />
    <glyph glyph-name="maithothai" unicode="&#xe49;" 
d="M-572 1555v78h-88l-30 125h79q93 0 138 -40q38 -40 34 -81v-75h275l79 -128h-302q-93 0 -148 44q-26 26 -37 77z" />
    <glyph glyph-name="maitrithai" unicode="&#xea;" 
d="M-260 1536q-53 -58 -121 -116v-1q-58 58 -124 117h-75v-95l-154 -35v58q0 108 41 151.5t162 43.5h68l82 -82v1l81 81l130 -1v222q57 -9 89 -41q49 -49 53 -140v-275h-144v112h-88z" />
    <glyph glyph-name="maitrithai" unicode="&#xe4a;" 
d="M-260 1536q-53 -58 -121 -116v-1q-58 58 -124 117h-75v-95l-154 -35v58q0 108 41 151.5t162 43.5h68l82 -82v1l81 81l130 -1v222q57 -9 89 -41q49 -49 53 -140v-275h-144v112h-88z" />
    <glyph glyph-name="maichattawathai" unicode="&#xeb;" 
d="M-251 1535v-97h-142v97h-96v132h96v96h142v-96h97v-132h-97z" />
    <glyph glyph-name="maichattawathai" unicode="&#xe4b;" 
d="M-251 1535v-97h-142v97h-96v132h96v96h142v-96h97v-132h-97z" />
    <glyph glyph-name="thanthakhatthai" unicode="&#xec;" 
d="M-339 1592h1v-63h88l30 -125h-79q-93 0 -138 40q-38 40 -34 81v67h-1q1 66 37 92q55 44 148 44h342l-79 -128h-315v-8z" />
    <glyph glyph-name="thanthakhatthai" unicode="&#xe4c;" 
d="M-339 1592h1v-63h88l30 -125h-79q-93 0 -138 40q-38 40 -34 81v67h-1q1 66 37 92q55 44 148 44h342l-79 -128h-315v-8z" />
    <glyph glyph-name="nikhahitthai" unicode="&#xed;" 
d="M-575 1252q0 43 14.5 59t53.5 16h200q39 0 53 -16t14 -59v-165q0 -44 -14 -59.5t-53 -15.5h-200q-39 0 -53.5 15.5t-14.5 59.5v165zM-461 1113h106v103h-106v-103z" />
    <glyph glyph-name="nikhahitthai" unicode="&#xe4d;" 
d="M-575 1252q0 43 14.5 59t53.5 16h200q39 0 53 -16t14 -59v-165q0 -44 -14 -59.5t-53 -15.5h-200q-39 0 -53.5 15.5t-14.5 59.5v165zM-461 1113h106v103h-106v-103z" />
    <glyph glyph-name="yamakkanthai" unicode="&#xee;" 
d="M-339 1532h1v-63h88l30 -125h-79q-93 0 -138 40q-38 40 -34 81v67h-1q1 66 37 92q55 44 148 44h342l-79 -128h-315v-8z" />
    <glyph glyph-name="yamakkanthai" unicode="&#xe4e;" 
d="M-339 1532h1v-63h88l30 -125h-79q-93 0 -138 40q-38 40 -34 81v67h-1q1 66 37 92q55 44 148 44h342l-79 -128h-315v-8z" />
    <glyph glyph-name="fongmanthai" unicode="&#xef;" horiz-adv-x="862" 
d="M431 92q-141 0 -238.5 97.5t-97.5 238.5t97.5 238t238.5 97t238.5 -97t97.5 -238t-97.5 -238.5t-238.5 -97.5zM717 428q0 119 -83.5 202.5t-202.5 83.5q-120 0 -203.5 -83t-83.5 -203t83.5 -203.5t203.5 -83.5t203 83.5t83 203.5zM431 223q-87 0 -146 59t-59 146t59 146
t146 59q86 0 145.5 -59.5t59.5 -145.5t-59.5 -145.5t-145.5 -59.5z" />
    <glyph glyph-name="fongmanthai" unicode="&#xe4f;" horiz-adv-x="862" 
d="M431 92q-141 0 -238.5 97.5t-97.5 238.5t97.5 238t238.5 97t238.5 -97t97.5 -238t-97.5 -238.5t-238.5 -97.5zM717 428q0 119 -83.5 202.5t-202.5 83.5q-120 0 -203.5 -83t-83.5 -203t83.5 -203.5t203.5 -83.5t203 83.5t83 203.5zM431 223q-87 0 -146 59t-59 146t59 146
t146 59q86 0 145.5 -59.5t59.5 -145.5t-59.5 -145.5t-145.5 -59.5z" />
    <glyph glyph-name="zerothai" unicode="&#xf0;" horiz-adv-x="1532" 
d="M203 807q0 145 47.5 197.5t179.5 52.5h672q131 0 179 -52.5t48 -197.5v-557q0 -145 -48 -197.5t-179 -52.5h-672q-132 0 -179.5 52t-47.5 198v557zM373 145h786v770h-786v-770z" />
    <glyph glyph-name="zerothai" unicode="&#xe50;" horiz-adv-x="1532" 
d="M203 807q0 145 47.5 197.5t179.5 52.5h672q131 0 179 -52.5t48 -197.5v-557q0 -145 -48 -197.5t-179 -52.5h-672q-132 0 -179.5 52t-47.5 198v557zM373 145h786v770h-786v-770z" />
    <glyph glyph-name="onethai" unicode="&#xf1;" horiz-adv-x="1532" 
d="M719 0v891h-230v106l392 68v-1065h-162z" />
    <glyph glyph-name="onethai" unicode="&#xe51;" horiz-adv-x="1532" 
d="M719 0v891h-230v106l392 68v-1065h-162z" />
    <glyph glyph-name="twothai" unicode="&#xf2;" horiz-adv-x="1532" 
d="M311 850q0 119 46.5 163t181.5 44h510q134 0 180.5 -44t46.5 -163v-66q0 -78 -25 -121t-106 -94l-684 -424h694v201l168 -55v-84q0 -119 -47 -163t-182 -44h-832v66q0 73 28.5 111.5t94.5 80.5l717 451v206h-623v-247l-168 45v137z" />
    <glyph glyph-name="twothai" unicode="&#xe52;" horiz-adv-x="1532" 
d="M311 850q0 119 46.5 163t181.5 44h510q134 0 180.5 -44t46.5 -163v-66q0 -78 -25 -121t-106 -94l-684 -424h694v201l168 -55v-84q0 -119 -47 -163t-182 -44h-832v66q0 73 28.5 111.5t94.5 80.5l717 451v206h-623v-247l-168 45v137z" />
    <glyph glyph-name="threethai" unicode="&#xf3;" horiz-adv-x="1532" 
d="M487 0q-134 0 -180.5 43.5t-46.5 163.5v86l168 39v-187h610q58 0 76.5 18.5t18.5 76.5v141q0 59 -19 77.5t-76 18.5h-374v135h335q57 0 76 23t19 98v62q0 74 -19 97t-76 23h-565v-163l-160 32v66q0 119 46.5 163t181.5 44h536q135 0 181.5 -44t46.5 -163v-96
q0 -91 -36.5 -136t-123.5 -65q106 -16 152.5 -66.5t46.5 -148.5v-111q0 -130 -53.5 -178.5t-188.5 -48.5h-576z" />
    <glyph glyph-name="threethai" unicode="&#xe53;" horiz-adv-x="1532" 
d="M487 0q-134 0 -180.5 43.5t-46.5 163.5v86l168 39v-187h610q58 0 76.5 18.5t18.5 76.5v141q0 59 -19 77.5t-76 18.5h-374v135h335q57 0 76 23t19 98v62q0 74 -19 97t-76 23h-565v-163l-160 32v66q0 119 46.5 163t181.5 44h536q135 0 181.5 -44t46.5 -163v-96
q0 -91 -36.5 -136t-123.5 -65q106 -16 152.5 -66.5t46.5 -148.5v-111q0 -130 -53.5 -178.5t-188.5 -48.5h-576z" />
    <glyph glyph-name="fourthai" unicode="&#xf4;" horiz-adv-x="1532" 
d="M999 383v559l-614 -559h614zM999 0v252h-800v131l762 686h200v-686h242v-131h-242v-252h-162z" />
    <glyph glyph-name="fourthai" unicode="&#xe54;" horiz-adv-x="1532" 
d="M999 383v559l-614 -559h614zM999 0v252h-800v131l762 686h200v-686h242v-131h-242v-252h-162z" />
    <glyph glyph-name="fivethai" unicode="&#xf5;" horiz-adv-x="1532" 
d="M289 203q144 -34 280 -51t254 -17q192 0 275.5 48.5t83.5 158.5q0 114 -88 165.5t-283 51.5q-119 0 -248 -16t-272 -49l55 563h856l-12 -142h-711l-37 -256q99 22 196.5 32.5t195.5 10.5q270 0 400 -88.5t130 -273.5q0 -189 -133 -272.5t-438 -83.5q-98 0 -206 11.5
t-247 37.5z" />
    <glyph glyph-name="fivethai" unicode="&#xe55;" horiz-adv-x="1532" 
d="M289 203q144 -34 280 -51t254 -17q192 0 275.5 48.5t83.5 158.5q0 114 -88 165.5t-283 51.5q-119 0 -248 -16t-272 -49l55 563h856l-12 -142h-711l-37 -256q99 22 196.5 32.5t195.5 10.5q270 0 400 -88.5t130 -273.5q0 -189 -133 -272.5t-438 -83.5q-98 0 -206 11.5
t-247 37.5z" />
    <glyph glyph-name="sixthai" unicode="&#xf6;" horiz-adv-x="1532" 
d="M410 498q-3 -20 -5 -36t-2 -28q0 -212 34.5 -252.5t189.5 -40.5h321q122 0 163.5 34t41.5 130v68q0 96 -52 130t-198 34q-134 0 -258 -10t-235 -29zM1148 940q-11 1 -25.5 1.5t-39.5 0.5q-311 0 -472.5 -77t-184.5 -236q114 22 231 33.5t238 11.5q246 0 337 -59.5
t91 -213.5v-143q0 -133 -82.5 -195.5t-257.5 -62.5h-420q-187 0 -256 69.5t-69 256.5v139q0 295 191 456.5t540 161.5q14 0 29.5 -0.5t41.5 -3.5z" />
    <glyph glyph-name="sixthai" unicode="&#xe56;" horiz-adv-x="1532" 
d="M410 498q-3 -20 -5 -36t-2 -28q0 -212 34.5 -252.5t189.5 -40.5h321q122 0 163.5 34t41.5 130v68q0 96 -52 130t-198 34q-134 0 -258 -10t-235 -29zM1148 940q-11 1 -25.5 1.5t-39.5 0.5q-311 0 -472.5 -77t-184.5 -236q114 22 231 33.5t238 11.5q246 0 337 -59.5
t91 -213.5v-143q0 -133 -82.5 -195.5t-257.5 -62.5h-420q-187 0 -256 69.5t-69 256.5v139q0 295 191 456.5t540 161.5q14 0 29.5 -0.5t41.5 -3.5z" />
    <glyph glyph-name="seventhai" unicode="&#xf7;" horiz-adv-x="1532" 
d="M569 -18l613 933h-770v-247l-158 30v359h1102v-137l-582 -938h-205z" />
    <glyph glyph-name="seventhai" unicode="&#xe57;" horiz-adv-x="1532" 
d="M569 -18l613 933h-770v-247l-158 30v359h1102v-137l-582 -938h-205z" />
    <glyph glyph-name="eightthai" unicode="&#xf8;" horiz-adv-x="1532" 
d="M449 0q-136 0 -189 48.5t-53 178.5v111q0 96 45.5 146t146.5 65q-88 12 -129 61t-41 144v96q0 119 46.5 163t181.5 44h618q135 0 181.5 -44t46.5 -163v-96q0 -94 -41.5 -143.5t-131.5 -61.5q103 -15 149 -65t46 -146v-111q0 -129 -53.5 -178t-190.5 -49h-632zM397 805
v-82q0 -68 22 -89.5t85 -21.5h524q64 0 85.5 22t21.5 89v82q0 68 -22 89t-85 21h-524q-61 0 -84 -21.5t-23 -88.5zM377 367v-115q0 -65 21.5 -87t84.5 -22h566q63 0 84.5 22t21.5 87v115q0 65 -21.5 86.5t-84.5 21.5h-566q-62 0 -84 -22t-22 -86z" />
    <glyph glyph-name="eightthai" unicode="&#xe58;" horiz-adv-x="1532" 
d="M449 0q-136 0 -189 48.5t-53 178.5v111q0 96 45.5 146t146.5 65q-88 12 -129 61t-41 144v96q0 119 46.5 163t181.5 44h618q135 0 181.5 -44t46.5 -163v-96q0 -94 -41.5 -143.5t-131.5 -61.5q103 -15 149 -65t46 -146v-111q0 -129 -53.5 -178t-190.5 -49h-632zM397 805
v-82q0 -68 22 -89.5t85 -21.5h524q64 0 85.5 22t21.5 89v82q0 68 -22 89t-85 21h-524q-61 0 -84 -21.5t-23 -88.5zM377 367v-115q0 -65 21.5 -87t84.5 -22h566q63 0 84.5 22t21.5 87v115q0 65 -21.5 86.5t-84.5 21.5h-566q-62 0 -84 -22t-22 -86z" />
    <glyph glyph-name="ninethai" unicode="&#xf9;" horiz-adv-x="1532" 
d="M383 119q4 -1 11 -1q36 -3 52 -3q312 0 474.5 77t185.5 236q-114 -22 -232 -33.5t-239 -11.5q-244 0 -335 60t-91 214v142q0 132 82.5 195t257.5 63h418q188 0 257.5 -69.5t69.5 -256.5v-139q0 -295 -191 -456t-540 -161q-30 0 -44.5 0.5t-27.5 2.5zM1120 559
q3 19 4.5 36t1.5 30q0 213 -33 251.5t-188 38.5h-321q-123 0 -165 -33.5t-42 -129.5v-68q0 -96 52 -130t198 -34q134 0 258 10t235 29z" />
    <glyph glyph-name="ninethai" unicode="&#xe59;" horiz-adv-x="1532" 
d="M383 119q4 -1 11 -1q36 -3 52 -3q312 0 474.5 77t185.5 236q-114 -22 -232 -33.5t-239 -11.5q-244 0 -335 60t-91 214v142q0 132 82.5 195t257.5 63h418q188 0 257.5 -69.5t69.5 -256.5v-139q0 -295 -191 -456t-540 -161q-30 0 -44.5 0.5t-27.5 2.5zM1120 559
q3 19 4.5 36t1.5 30q0 213 -33 251.5t-188 38.5h-321q-123 0 -165 -33.5t-42 -129.5v-68q0 -96 52 -130t198 -34q134 0 258 10t235 29z" />
    <glyph glyph-name="angkhankhuthai" unicode="&#xfa;" horiz-adv-x="1266" 
d="M876 0h-164v666h-379q-121 0 -167 43.5t-46 151.5v38l164 -35v-64h428v109h164v-909zM952 909h164v-909h-164v909z" />
    <glyph glyph-name="angkhankhuthai" unicode="&#xe5a;" horiz-adv-x="1266" 
d="M876 0h-164v666h-379q-121 0 -167 43.5t-46 151.5v38l164 -35v-64h428v109h164v-909zM952 909h164v-909h-164v909z" />
    <glyph glyph-name="khomutthai" unicode="&#xfb;" horiz-adv-x="1442" 
d="M1418 434q0 -32 -58 -39l-104 -9q-2 -5 -13.5 -34t-42.5 -29q-30 0 -57 60q-15 30 -23 46.5t23 -45.5q10 51 6 32.5t-9 -39.5q-21 -78 -61 -78q-37 0 -76 97q-19 46 6 14q3 27 -1.5 0.5t-8.5 -45.5q-18 -89 -61 -89q-39 0 -79 126q-19 57 12 15q0 12 -24 -76
q-28 -92 -77 -92q-39 0 -49 51t-22 99q-10 34 -17 58.5t25 -39.5q4 40 -9 -4.5t-30 -90.5q-40 -99 -84 -151q-108 -121 -240 -121q-129 0 -206 100.5t-77 262.5q0 148 70 257q75 110 191 110q47 0 87.5 -21t70.5 -57.5t46.5 -86t16.5 -104.5q0 -87 -37.5 -146t-106.5 -59
q-52 0 -89.5 43.5t-37.5 100.5t35 101t90 44q42 0 23 16q1 -4 -29.5 29.5t-66.5 33.5q-30 0 -57 -17.5t-48.5 -52.5t-35 -86t-13.5 -113q0 -123 52 -187.5t134 -64.5q90 0 163 97q78 101 99 270q4 38 11 65t51 27q46 0 79 -92q14 -36 26 -79t0 20q-21 -80 -9 12
q15 118 62 118q38 0 75 -80q18 -36 29.5 -72t-9.5 58q-10 -64 -1 -4.5t47 59.5q42 0 84 -81q13 -28 11 -25q-5 -19 6.5 28.5t52.5 47.5q34 0 53.5 -42t2.5 -10q-9 -46 -4 -34t7 16q14 33 57 33l112 -15q57 -6 57 -37zM426 453q0 20 -8 30t-21 10q-7 0 -16.5 -10.5
t-9.5 -29.5q0 -18 9 -29.5t17 -11.5q10 0 19.5 10.5t9.5 30.5z" />
    <glyph glyph-name="khomutthai" unicode="&#xe5b;" horiz-adv-x="1442" 
d="M1418 434q0 -32 -58 -39l-104 -9q-2 -5 -13.5 -34t-42.5 -29q-30 0 -57 60q-15 30 -23 46.5t23 -45.5q10 51 6 32.5t-9 -39.5q-21 -78 -61 -78q-37 0 -76 97q-19 46 6 14q3 27 -1.5 0.5t-8.5 -45.5q-18 -89 -61 -89q-39 0 -79 126q-19 57 12 15q0 12 -24 -76
q-28 -92 -77 -92q-39 0 -49 51t-22 99q-10 34 -17 58.5t25 -39.5q4 40 -9 -4.5t-30 -90.5q-40 -99 -84 -151q-108 -121 -240 -121q-129 0 -206 100.5t-77 262.5q0 148 70 257q75 110 191 110q47 0 87.5 -21t70.5 -57.5t46.5 -86t16.5 -104.5q0 -87 -37.5 -146t-106.5 -59
q-52 0 -89.5 43.5t-37.5 100.5t35 101t90 44q42 0 23 16q1 -4 -29.5 29.5t-66.5 33.5q-30 0 -57 -17.5t-48.5 -52.5t-35 -86t-13.5 -113q0 -123 52 -187.5t134 -64.5q90 0 163 97q78 101 99 270q4 38 11 65t51 27q46 0 79 -92q14 -36 26 -79t0 20q-21 -80 -9 12
q15 118 62 118q38 0 75 -80q18 -36 29.5 -72t-9.5 58q-10 -64 -1 -4.5t47 59.5q42 0 84 -81q13 -28 11 -25q-5 -19 6.5 28.5t52.5 47.5q34 0 53.5 -42t2.5 -10q-9 -46 -4 -34t7 16q14 33 57 33l112 -15q57 -6 57 -37zM426 453q0 20 -8 30t-21 10q-7 0 -16.5 -10.5
t-9.5 -29.5q0 -18 9 -29.5t17 -11.5q10 0 19.5 10.5t9.5 30.5z" />
    <glyph glyph-name="saraulowthai" unicode="&#xfc;" 
d="M-318 -801v208h-132l57 130h229v-338h-154z" />
    <glyph glyph-name="saraulowthai" unicode="&#xf718;" 
d="M-318 -801v208h-132l57 130h229v-338h-154z" />
    <glyph glyph-name="sarauulowthai" unicode="&#xfd;" 
d="M-604 -801v208h-132l57 130h229v-218h126v218h164v-338h-444z" />
    <glyph glyph-name="sarauulowthai" unicode="&#xf719;" 
d="M-604 -801v208h-132l57 130h229v-218h126v218h164v-338h-444z" />
    <glyph glyph-name="phinthulowthai" unicode="&#xfe;" 
d="M-378 -536q0 31 10.5 42t37.5 11h143q27 0 37.5 -11t10.5 -42v-117q0 -31 -10.5 -42t-37.5 -11h-143q-27 0 -37.5 11t-10.5 42v117z" />
    <glyph glyph-name="phinthulowthai" unicode="&#xf71a;" 
d="M-378 -536q0 31 10.5 42t37.5 11h143q27 0 37.5 -11t10.5 -42v-117q0 -31 -10.5 -42t-37.5 -11h-143q-27 0 -37.5 11t-10.5 42v117z" />
    <glyph glyph-name="ooooo" unicode="&#xff;" horiz-adv-x="1516" 
d="M758 1198q314 0 531 -218.5t217 -529.5q0 -308 -218.5 -526t-529.5 -218q-308 0 -526 218t-218 526q0 311 216.5 529.5t527.5 218.5zM758 994q-225 0 -382.5 -158t-157.5 -383q0 -224 157.5 -382.5t382.5 -158.5t383 158.5t158 382.5q0 225 -157.5 383t-383.5 158z" />
    <glyph glyph-name="PUCR2005" unicode="&#xe3e;" 
 />
    <glyph glyph-name="ZWSP" unicode="&#x200b;" 
 />
    <glyph glyph-name="uni25CC" unicode="&#x25cc;" horiz-adv-x="1373" 
d="M890 1232q0 -41 -19.5 -77.5t-56 -57.5t-73.5 -21q-39 0 -75.5 21t-56 57.5t-19.5 77.5t20.5 78t56 57t74.5 20q37 0 73 -20t56 -57t20 -78zM1218 1065q0 -41 -19.5 -77.5t-56 -57.5t-73.5 -21q-39 0 -75.5 21t-56 57.5t-19.5 77.5t20.5 78t56 57t74.5 20q37 0 73 -20
t56 -57t20 -78zM1382 721q0 -41 -19.5 -77.5t-56 -57.5t-73.5 -21q-39 0 -75.5 21t-56 57.5t-19.5 77.5t20.5 78t56 57t74.5 20q37 0 73 -20t56 -57t20 -78zM1218 344q0 -41 -19.5 -77.5t-56 -57.5t-73.5 -21q-39 0 -75.5 21t-56 57.5t-19.5 77.5t20.5 78t56 57t74.5 20
q37 0 73 -20t56 -57t20 -78zM900 149q0 -41 -23 -77.5t-59.5 -57.5t-73.5 -21q-39 0 -75.5 21t-56 57.5t-19.5 77.5t20.5 78t56 57t74.5 20q37 0 73 -20t59.5 -57t23.5 -78zM572 351q0 -41 -19.5 -77.5t-56 -57.5t-73.5 -21q-39 0 -75.5 21t-56 57.5t-19.5 77.5t20.5 78
t56 57t74.5 20q37 0 73 -20t56 -57t20 -78zM371 721q0 -41 -19.5 -77.5t-56 -57.5t-73.5 -21q-39 0 -75.5 21t-56 57.5t-19.5 77.5t20.5 78t56 57t74.5 20q37 0 73 -20t56 -57t20 -78zM550 1061q0 -41 -19.5 -77.5t-56 -57.5t-73.5 -21q-39 0 -75.5 21t-56 57.5t-19.5 77.5
t20.5 78t56 57t74.5 20q37 0 73 -20t56 -57t20 -78z" />
    <glyph glyph-name="lochula.short" horiz-adv-x="1376" 
d="M299 182l333 687h118l327 -687v527q0 137 -229 158v132q289 12 279 200h149q10 -227 -200 -280q150 -64 150 -197v-722h-231l-304 656l-326 -656h-215v869h149v-687z" />
    <glyph glyph-name="saraamleft" horiz-adv-x="1227" 
d="M912 0v736h-628v-65l-164 -35v38q0 108 46 151.5t167 43.5h530q123 0 168 -44t45 -163v-662h-164zM-415 1292q0 43 14.5 59t53.5 16h200q39 0 53 -16t14 -59v-165q0 -44 -14 -59.5t-53 -15.5h-200q-39 0 -53.5 15.5t-14.5 59.5v165zM-301 1153h106v103h-106v-103z" />
    <glyph glyph-name="yamakkanleftthai" 
d="M-817 1168h1v-63h88l30 -125h-79q-93 0 -138 40q-38 40 -34 81v67h-1q1 66 37 92q55 44 148 44h342l-79 -128h-315v-8z" />
  </font>
</defs>
</svg>
