<?xml version="1.0" encoding="UTF-8" standalone="no"?>
<!DOCTYPE svg  PUBLIC '-//W3C//DTD SVG 1.1//EN'  'http://www.w3.org/Graphics/SVG/1.1/DTD/svg11.dtd'>
<svg xmlns="http://www.w3.org/2000/svg">
<defs>
<font id="Bolivia-No-Problem" horiz-adv-x="533">
<font-face underline-position="126" font-weight="400" descent="-205" panose-1="0 0 4 0 0 0 0 0 0 0" units-per-em="1024" unicode-range="U+0020-201D" bbox="0 -128 768 704" x-height="640" underline-thickness="51" font-family="Bolivia" ascent="819" cap-height="640"/>
<missing-glyph d="M0 0v640h640v-640h-640zM421 447v101h-101q-43 0 -72 -29q-30 -31 -30 -72h203zM320 328v102h-102v-102h102zM421 209v102h-203v-102h203zM320 90v102h-102v-102h102z" horiz-adv-x="149"/>
<glyph glyph-name=".notdef" d="M0 0v640h640v-640h-640zM421 447v101h-101q-43 0 -72 -29q-30 -31 -30 -72h203zM320 328v102h-102v-102h102zM421 209v102h-203v-102h203zM320 90v102h-102v-102h102z" horiz-adv-x="149"/>
<glyph glyph-name="glyph1" horiz-adv-x="21"/>
<glyph glyph-name="glyph2" horiz-adv-x="528"/>
<glyph glyph-name="space" horiz-adv-x="528" unicode=" "/>
<glyph glyph-name="exclam" horiz-adv-x="213" unicode="!" d="M0 192v448h128v-448h-128zM0 0v128h128v-128h-128z"/>
<glyph glyph-name="numbersign" horiz-adv-x="661" unicode="#" d="M64 0v128h-64v128h64v128h-64v128h64v128h128v-128h192v128h128v-128h64v-128h-64v-128h64v-128h-64v-128h-128v128h-192v-128h-128zM384 256v128h-192v-128h192z"/>
<glyph glyph-name="dollar" d="M192 -64v64h-128l-64 64v128h128v-64h64v128h-128l-64 64v256l64 64h128v64h64v-64h128l64 -64v-128h-128v64h-64v-128h128l64 -64v-256l-64 -64h-128v-64h-64zM192 384v128h-64v-128h64zM320 128v128h-64v-128h64z" unicode="$"/>
<glyph glyph-name="parenleft" horiz-adv-x="341" unicode="(" d="M64 0l-64 64v512l64 64h192v-128h-128v-384h128v-128h-192z"/>
<glyph glyph-name="parenright" horiz-adv-x="341" unicode=")" d="M0 0v128h128v384h-128v128h192l64 -64v-512l-64 -64h-192z"/>
<glyph glyph-name="asterisk" horiz-adv-x="597" unicode="*" d="M192 0v192l-128 -128l-64 64l128 128h-128v64h128l-128 128l64 64l128 -128v192h128v-192l128 128l64 -64l-128 -128h128v-64h-128l128 -128l-64 -64l-128 128v-192h-128z"/>
<glyph glyph-name="plus" horiz-adv-x="597" unicode="+" d="M192 64v192h-192v128h192v192h128v-192h192v-128h-192v-192h-128z"/>
<glyph glyph-name="comma" horiz-adv-x="213" unicode="," d="M0 -128v64h64v64h-64v128h128v-192l-64 -64h-64z"/>
<glyph glyph-name="hyphen" horiz-adv-x="597" unicode="-" d="M0 256v128h512v-128h-512z"/>
<glyph glyph-name="period" horiz-adv-x="213" unicode="." d="M0 0v128h128v-128h-128z"/>
<glyph glyph-name="slash" horiz-adv-x="661" unicode="/" d="M64 0l-64 64l512 512l64 -64z"/>
<glyph glyph-name="zero" d="M64 0l-64 64v512l64 64h320l64 -64v-512l-64 -64h-320zM128 320l192 192h-192v-192zM320 128v192l-192 -192h192z" unicode="0"/>
<glyph glyph-name="one" horiz-adv-x="405" unicode="1" d="M192 0v448l-96 -96l-96 96l192 192h128v-640h-128z"/>
<glyph glyph-name="two" d="M0 0v128l320 320v64h-192v-64h-128v128l64 64h320l64 -64v-192l-256 -256h256v-128h-448z" unicode="2"/>
<glyph glyph-name="three" d="M64 0l-64 64v128h128v-64h192v128h-192v128h192v128h-192v-64h-128v128l64 64h320l64 -64v-224l-64 -32l64 -32v-224l-64 -64h-320z" unicode="3"/>
<glyph glyph-name="four" d="M320 0v192h-320v192l256 256h192v-640h-128zM320 320v192l-192 -192h192z" unicode="4"/>
<glyph glyph-name="five" d="M0 0v128h320v128h-320v384h448v-128h-320v-128h256l64 -64v-256l-64 -64h-384z" unicode="5"/>
<glyph glyph-name="six" d="M64 0l-64 64v512l64 64h320l64 -64v-128h-128v64h-192v-128h256l64 -64v-256l-64 -64h-320zM320 128v128h-192v-128h192z" unicode="6"/>
<glyph glyph-name="seven" d="M128 0v320l192 192h-320v128h448v-192l-192 -192v-256h-128z" unicode="7"/>
<glyph glyph-name="eight" d="M64 0l-64 64v192l64 64l-64 64v192l64 64h320l64 -64v-192l-64 -64l64 -64v-192l-64 -64h-320zM320 384v128h-192v-128h192zM320 128v128h-192v-128h192z" unicode="8"/>
<glyph glyph-name="nine" d="M64 0l-64 64v128h128v-64h192v128h-256l-64 64v256l64 64h320l64 -64v-512l-64 -64h-320zM320 384v128h-192v-128h192z" unicode="9"/>
<glyph glyph-name="colon" horiz-adv-x="213" unicode=":" d="M0 320v128h128v-128h-128zM0 128v128h128v-128h-128z"/>
<glyph glyph-name="semicolon" horiz-adv-x="213" unicode=";" d="M0 192v128h128v-128h-128zM0 -128v64h64v64h-64v128h128v-192l-64 -64h-64z"/>
<glyph glyph-name="equal" horiz-adv-x="597" unicode="=" d="M0 320v128h512v-128h-512zM0 128v128h512v-128h-512z"/>
<glyph glyph-name="question" horiz-adv-x="469" unicode="?" d="M64 192v192h192v128h-256v128h320l64 -64v-256l-64 -64h-128v-64h-128zM64 0v128h128v-128h-128z"/>
<glyph glyph-name="at" horiz-adv-x="597" unicode="@" d="M64 0l-64 64v448l64 64h384l64 -64v-320l-64 -64h-256l-64 64v192l64 64h192v-256h64v256l-64 64h-256l-64 -64v-320l64 -64h384v-64h-448zM320 192v192h-128v-192h128z"/>
<glyph glyph-name="A" d="M0 0v576l64 64h320l64 -64v-576h-128v256h-192v-256h-128zM320 384v128h-192v-128h192z" unicode="A"/>
<glyph glyph-name="B" d="M0 0v640h384l64 -64v-224l-64 -32l64 -32v-224l-64 -64h-384zM320 384v128h-192v-128h192zM320 128v128h-192v-128h192z" unicode="B"/>
<glyph glyph-name="C" d="M64 0l-64 64v512l64 64h320l64 -64v-192h-128v128h-192v-384h192v128h128v-192l-64 -64h-320z" unicode="C"/>
<glyph glyph-name="D" d="M0 0v640h384l64 -64v-512l-64 -64h-384zM320 128v384h-192v-384h192z" unicode="D"/>
<glyph glyph-name="E" d="M0 0v640h448v-128h-320v-128h320v-128h-320v-128h320v-128h-448z" unicode="E"/>
<glyph glyph-name="F" d="M0 0v640h448v-128h-320v-128h320v-128h-320v-256h-128z" unicode="F"/>
<glyph glyph-name="G" d="M64 0l-64 64v512l64 64h320l64 -64v-192h-128v128h-192v-384h192v64h-128v128h256v-256l-64 -64h-320z" unicode="G"/>
<glyph glyph-name="H" d="M0 0v640h128v-256h192v256h128v-640h-128v256h-192v-256h-128z" unicode="H"/>
<glyph glyph-name="I" horiz-adv-x="213" unicode="I" d="M0 0v640h128v-640h-128z"/>
<glyph glyph-name="J" d="M64 0l-64 64v192h128v-128h192v384h-320v128h448v-576l-64 -64h-320z" unicode="J"/>
<glyph glyph-name="K" d="M0 0v640h128v-256l192 192v64h128v-128l-192 -192l192 -192v-128h-128v64l-128 128h-64v-192h-128z" unicode="K"/>
<glyph glyph-name="L" d="M0 0v640h128v-512h320v-128h-448z" unicode="L"/>
<glyph glyph-name="M" d="M0 0v640h128v-64l64 -64v-1l32 -31l96 96v64h128v-640h-128v384l-96 -96l-96 96v-384h-128z" unicode="M"/>
<glyph glyph-name="N" d="M0 0v640h128v-64l192 -192v256h128v-640h-128v192l-192 192v-384h-128z" unicode="N"/>
<glyph glyph-name="O" d="M64 0l-64 64v512l64 64h320l64 -64v-512l-64 -64h-320zM320 128v384h-192v-384h192z" unicode="O"/>
<glyph glyph-name="P" d="M0 0v640h384l64 -64v-256l-64 -64h-256v-256h-128zM320 384v128h-192v-128h192z" unicode="P"/>
<glyph glyph-name="Q" horiz-adv-x="597" unicode="Q" d="M416 -32l-32 32l-32 32l-32 -32h-256l-64 64v512l64 64h320l64 -64v-448l64 -64zM256 128l-96 96l96 96l64 -64v256h-192v-384h128z"/>
<glyph glyph-name="R" d="M0 0v640h384l64 -64v-224l-64 -32l64 -32v-288h-128v256h-192v-256h-128zM320 384v128h-192v-128h192z" unicode="R"/>
<glyph glyph-name="S" d="M64 0l-64 64v128h128v-64h192v128h-256l-64 64v256l64 64h320l64 -64v-128h-128v64h-192v-128h256l64 -64v-256l-64 -64h-320z" unicode="S"/>
<glyph glyph-name="T" horiz-adv-x="597" unicode="T" d="M192 0v512h-192v128h512v-128h-192v-512h-128z"/>
<glyph glyph-name="U" d="M64 0l-64 64v576h128v-512h192v512h128v-576l-64 -64h-320z" unicode="U"/>
<glyph glyph-name="V" d="M128 0l-128 128v512h128v-448l64 -64v-1l32 -31l96 96v448h128v-512l-128 -128h-192z" unicode="V"/>
<glyph glyph-name="W" horiz-adv-x="853" unicode="W" d="M128 0l-128 128v512h128v-448l64 -64v-1l32 -31l96 96v448h128v-448l64 -64v-1l32 -31l96 96v448h128v-512l-128 -128h-192l-64 64l-64 -64h-192z"/>
<glyph glyph-name="X" horiz-adv-x="725" unicode="X" d="M0 0v128l192 192l-192 192v128h128v-64l192 -192l192 192v64h128v-128l-192 -192l192 -192v-128h-128v64l-192 192l-192 -192v-64h-128z"/>
<glyph glyph-name="Y" horiz-adv-x="597" unicode="Y" d="M192 0v256l-192 192v192h128v-128l128 -128l128 128v128h128v-192l-192 -192v-256h-128z"/>
<glyph glyph-name="Z" horiz-adv-x="597" unicode="Z" d="M0 0v128l128 128h-128v128h192l128 128h-320v128h512v-128l-128 -128h128v-128h-192l-128 -128h320v-128h-512z"/>
<glyph glyph-name="underscore" d="M0 -64v64h448v-64h-448z" unicode="_"/>
<glyph glyph-name="a" d="M0 0v576l64 64h320l64 -64v-576h-128v256h-192v-256h-128zM320 384v128h-192v-128h192z" unicode="a"/>
<glyph glyph-name="b" d="M0 0v640h384l64 -64v-224l-64 -32l64 -32v-224l-64 -64h-384zM320 384v128h-192v-128h192zM320 128v128h-192v-128h192z" unicode="b"/>
<glyph glyph-name="c" d="M64 0l-64 64v512l64 64h320l64 -64v-192h-128v128h-192v-384h192v128h128v-192l-64 -64h-320z" unicode="c"/>
<glyph glyph-name="d" d="M0 0v640h384l64 -64v-512l-64 -64h-384zM320 128v384h-192v-384h192z" unicode="d"/>
<glyph glyph-name="e" d="M0 0v640h448v-128h-320v-128h320v-128h-320v-128h320v-128h-448z" unicode="e"/>
<glyph glyph-name="f" d="M0 0v640h448v-128h-320v-128h320v-128h-320v-256h-128z" unicode="f"/>
<glyph glyph-name="g" d="M64 0l-64 64v512l64 64h320l64 -64v-192h-128v128h-192v-384h192v64h-128v128h256v-256l-64 -64h-320z" unicode="g"/>
<glyph glyph-name="h" d="M0 0v640h128v-256h192v256h128v-640h-128v256h-192v-256h-128z" unicode="h"/>
<glyph glyph-name="i" horiz-adv-x="213" unicode="i" d="M0 0v640h128v-640h-128z"/>
<glyph glyph-name="j" d="M64 0l-64 64v192h128v-128h192v384h-320v128h448v-576l-64 -64h-320z" unicode="j"/>
<glyph glyph-name="k" d="M0 0v640h128v-256l192 192v64h128v-128l-192 -192l192 -192v-128h-128v64l-128 128h-64v-192h-128z" unicode="k"/>
<glyph glyph-name="l" d="M0 0v640h128v-512h320v-128h-448z" unicode="l"/>
<glyph glyph-name="m" d="M0 0v640h128v-64l64 -64v-1l32 -31l96 96v64h128v-640h-128v384l-96 -96l-96 96v-384h-128z" unicode="m"/>
<glyph glyph-name="n" d="M0 0v640h128v-64l192 -192v256h128v-640h-128v192l-192 192v-384h-128z" unicode="n"/>
<glyph glyph-name="o" d="M64 0l-64 64v512l64 64h320l64 -64v-512l-64 -64h-320zM320 128v384h-192v-384h192z" unicode="o"/>
<glyph glyph-name="p" d="M0 0v640h384l64 -64v-256l-64 -64h-256v-256h-128zM320 384v128h-192v-128h192z" unicode="p"/>
<glyph glyph-name="q" horiz-adv-x="597" unicode="q" d="M416 -32l-32 32l-32 32l-32 -32h-256l-64 64v512l64 64h320l64 -64v-448l64 -64zM256 128l-96 96l96 96l64 -64v256h-192v-384h128z"/>
<glyph glyph-name="r" d="M0 0v640h384l64 -64v-224l-64 -32l64 -32v-288h-128v256h-192v-256h-128zM320 384v128h-192v-128h192z" unicode="r"/>
<glyph glyph-name="s" d="M64 0l-64 64v128h128v-64h192v128h-256l-64 64v256l64 64h320l64 -64v-128h-128v64h-192v-128h256l64 -64v-256l-64 -64h-320z" unicode="s"/>
<glyph glyph-name="t" horiz-adv-x="597" unicode="t" d="M192 0v512h-192v128h512v-128h-192v-512h-128z"/>
<glyph glyph-name="u" d="M64 0l-64 64v576h128v-512h192v512h128v-576l-64 -64h-320z" unicode="u"/>
<glyph glyph-name="v" d="M128 0l-128 128v512h128v-448l64 -64v-1l32 -31l96 96v448h128v-512l-128 -128h-192z" unicode="v"/>
<glyph glyph-name="w" horiz-adv-x="853" unicode="w" d="M128 0l-128 128v512h128v-448l64 -64v-1l32 -31l96 96v448h128v-448l64 -64v-1l32 -31l96 96v448h128v-512l-128 -128h-192l-64 64l-64 -64h-192z"/>
<glyph glyph-name="x" horiz-adv-x="725" unicode="x" d="M0 0v128l192 192l-192 192v128h128v-64l192 -192l192 192v64h128v-128l-192 -192l192 -192v-128h-128v64l-192 192l-192 -192v-64h-128z"/>
<glyph glyph-name="y" horiz-adv-x="597" unicode="y" d="M192 0v256l-192 192v192h128v-128l128 -128l128 128v128h128v-192l-192 -192v-256h-128z"/>
<glyph glyph-name="z" horiz-adv-x="597" unicode="z" d="M0 0v128l128 128h-128v128h192l128 128h-320v128h512v-128l-128 -128h128v-128h-192l-128 -128h320v-128h-512z"/>
<glyph glyph-name="quoteleft" horiz-adv-x="149" unicode="‘" d="M0 384v192h64v-192h-64z"/>
<glyph glyph-name="quoteright" horiz-adv-x="149" unicode="’" d="M0 384v192h64v-192h-64z"/>
<glyph glyph-name="quotedblleft" horiz-adv-x="277" unicode="“" d="M128 384v192h64v-192h-64zM0 384v192h64v-192h-64z"/>
<glyph glyph-name="quotedblright" horiz-adv-x="277" unicode="”" d="M128 384v192h64v-192h-64zM0 384v192h64v-192h-64z"/>
</font>
</defs>
</svg>
