<?xml version="1.0" standalone="no"?>
<!DOCTYPE svg PUBLIC "-//W3C//DTD SVG 1.1//EN" "http://www.w3.org/Graphics/SVG/1.1/DTD/svg11.dtd" >
<svg xmlns="http://www.w3.org/2000/svg" xmlns:xlink="http://www.w3.org/1999/xlink" version="1.1">
<metadata></metadata>
<defs>
<font id="florencesansbold" horiz-adv-x="238" >
<font-face units-per-em="1000" ascent="800" descent="-200" />
<missing-glyph horiz-adv-x="436" />
<glyph unicode="&#xd;" horiz-adv-x="500" />
<glyph unicode=" "  horiz-adv-x="436" />
<glyph unicode="&#x09;" horiz-adv-x="436" />
<glyph unicode="&#xa0;" horiz-adv-x="436" />
<glyph unicode="!" horiz-adv-x="273" d="M191 710h-109l18 -528h73zM208 61q0 30 -20.5 51t-51.5 21q-30 0 -50.5 -21t-20.5 -51t20.5 -51t50.5 -21q31 0 51.5 21t20.5 51z" />
<glyph unicode="&#x22;" horiz-adv-x="483" d="M420 745h-147l40 -252q3 -15 10.5 -23t22.5 -8q16 0 23.5 8t10.5 23zM210 745h-147l40 -252q3 -15 10.5 -23t22.5 -8q16 0 23.5 8t10.5 23z" />
<glyph unicode="#" horiz-adv-x="605" d="M541 287v91h-109l8 84h101v91h-93l9 105h-91l-9 -105h-84l9 105h-91l-9 -105h-117v-91h109l-8 -84h-101v-91h93l-8 -105h91l8 105h84l-8 -105h91l8 105h117zM265 462h84l-8 -84h-84z" />
<glyph unicode="$" horiz-adv-x="710" d="M646 189q0 104 -78 156q-49 30 -159 50v218q43 -7 72 -29q39 -27 39 -82h108q0 102 -72 159q-61 49 -147 63v74h-108v-74q-88 -14 -146 -63q-73 -58 -73 -148q0 -51 17.5 -89t51.5 -64q50 -37 150 -55v-221q-49 7 -83 29q-45 27 -45 86h-108q0 -106 80 -164 q61 -45 156 -59v-74h108v74q92 13 156 59q81 58 81 154zM537 189q0 -87 -128 -105v204q56 -10 84 -26q44 -24 44 -73zM228 441q-37 25 -37 72q0 45 38 71q29 22 72 29v-200q-47 10 -73 28z" />
<glyph unicode="%" horiz-adv-x="894" d="M829 157q0 76 -55 131q-54 55 -130 55q-77 0 -131 -55q-55 -55 -55 -131t55 -131q53 -54 131 -54q77 0 130 54q55 55 55 131zM436 542q0 74 -55 131q-55 55 -131 55t-131 -55q-54 -54 -54 -131t54 -131t131 -54t131 54q55 57 55 131zM815 710h-115l-621 -721h115z M738 157q0 -40 -27 -67t-67 -27t-67 27q-28 28 -28 67q0 40 28 68q27 27 67 27t67 -27t27 -68zM345 542q0 -38 -27 -67q-29 -27 -68 -27t-66 27q-28 28 -28 67q0 40 27 67q28 28 67 28t68 -27q27 -29 27 -68z" />
<glyph unicode="&#x26;" horiz-adv-x="687" d="M631 -11l-84 130q7 11 14 24.5t15 30.5h-2l40 90l-99 44l-36 -83l-107 163q32 20 53 36t32 27q42 48 42 111q0 68 -51 118v-1q-49 49 -119 49q-69 0 -118 -49t-49 -117q0 -42 22 -83q4 -10 38 -60q-71 -46 -105 -86q-52 -61 -52 -138q0 -92 64 -158q67 -65 159 -65 q101 0 184 63l29 -46h130zM288 80q-48 0 -81 34q-34 36 -34 83q0 45 37 79q19 20 71 54l131 -203q-54 -47 -124 -47zM390 561q0 -34 -35 -54l-42 -28l-32 50v-1q-11 17 -11 35q0 23 17 40t40 17q26 0 44.5 -17t18.5 -42z" />
<glyph unicode="'" horiz-adv-x="273" d="M210 745h-147l40 -252q3 -15 10.5 -23t22.5 -8q16 0 23.5 8t10.5 23z" />
<glyph unicode="(" horiz-adv-x="343" d="M285 -98q-33 57 -55 107t-34 94q-11 44 -17 94t-6 109q0 115 23 202q11 44 33.5 94t55.5 108h-75q-80 -98 -113 -190q-17 -45 -24.5 -98.5t-7.5 -115.5q0 -125 32 -214t113 -190h75z" />
<glyph unicode=")" horiz-adv-x="343" d="M278 306q0 125 -32 214q-33 92 -113 190h-75q32 -58 55 -108t34 -94q23 -87 23 -202q0 -116 -24 -203q-11 -44 -33.5 -94t-54.5 -107h75q81 101 113 190t32 214z" />
<glyph unicode="*" horiz-adv-x="488" d="M427 419l-93 53l93 54l-46 79l-91 -55v108h-91v-108l-92 55l-46 -79l92 -54l-92 -53l46 -79l92 54v-107h91v107l91 -54z" />
<glyph unicode="+" horiz-adv-x="500" d="M436 217v91h-140v140h-91v-140h-140v-91h140v-140h91v140h140z" />
<glyph unicode="," horiz-adv-x="273" d="M210 133h-147l40 -252q3 -15 10.5 -23.5t22.5 -8.5q16 0 23.5 8.5t10.5 23.5z" />
<glyph unicode="-" horiz-adv-x="500" d="M436 217v91h-371v-91h371z" />
<glyph unicode="." horiz-adv-x="273" d="M208 61q0 30 -20.5 51t-51.5 21q-30 0 -50.5 -21t-20.5 -51t20.5 -51t50.5 -21q31 0 51.5 21t20.5 51z" />
<glyph unicode="/" horiz-adv-x="458" d="M418 668l-101 36l-277 -759l102 -37z" />
<glyph unicode="0" horiz-adv-x="702" d="M659 350q0 147 -78 255q-90 123 -230 123q-142 0 -230 -123q-78 -108 -78 -255q0 -146 78 -255q88 -123 230 -123q140 0 230 123q78 109 78 255zM550 350q0 -52 -11.5 -97.5t-37.5 -83.5q-54 -89 -150 -89q-95 0 -151 89q-49 76 -49 181q0 104 49 181q55 88 151 88 t150 -88q26 -39 37.5 -84t11.5 -97z" />
<glyph unicode="1" horiz-adv-x="702" d="M472 -11v721h-101l-196 -196l71 -70l118 119v-574h108z" />
<glyph unicode="2" horiz-adv-x="702" d="M624 -11v109h-404q19 27 52 54t81 55q150 89 181 114q90 78 90 183q0 106 -89 168q-77 56 -184 56q-54 0 -99 -13t-84 -39q-90 -59 -90 -174h108q0 64 54 93q43 24 106 24q35 0 63 -5.5t51 -19.5q55 -31 55 -90q0 -79 -109 -151h1q-53 -33 -104.5 -65.5t-104.5 -64.5 q-120 -95 -120 -234h546z" />
<glyph unicode="3" horiz-adv-x="702" d="M629 210q0 125 -122 184q87 45 87 140q0 98 -85 150q-71 44 -170 44q-81 0 -144 -29q-79 -36 -105 -114l102 -37q24 71 147 71q30 0 54 -4t44 -12q49 -23 49 -69q0 -39 -52 -65q-45 -21 -95 -21h-63v-109h63q70 0 121 -32q61 -37 61 -97q0 -64 -59 -100q-50 -30 -123 -30 q-130 0 -175 87l-94 -55q43 -77 119 -109q68 -31 150 -31q117 0 197 58q93 66 93 180z" />
<glyph unicode="4" horiz-adv-x="702" d="M641 129v109h-87v472h-91l-403 -479v-102h385v-140h109v140h87zM186 238l259 304v-304h-259z" />
<glyph unicode="5" horiz-adv-x="702" d="M634 245q0 117 -87 195q-86 78 -203 78q-84 0 -154 -41v125h357v108h-466v-357l97 -38q26 45 71 69.5t95 24.5q73 0 126 -46q56 -47 56 -118t-56 -118q-55 -47 -126 -47q-56 0 -103 28q-46 29 -70 86l-106 -27q37 -97 113 -146q77 -49 166 -49q117 0 203 78q87 76 87 195 z" />
<glyph unicode="6" horiz-adv-x="702" d="M651 247q0 114 -89 197q-86 77 -203 77q-114 0 -187 -73q17 62 52 105q54 66 135 66q86 0 145 -80l85 65q-94 124 -230 124q-142 0 -230 -123q-78 -108 -78 -255q0 -146 78 -255q88 -123 230 -123q119 0 203 77q89 81 89 198zM542 246q0 -73 -55 -118q-54 -48 -128 -48 q-65 0 -120 51q-54 51 -54 115q0 72 49 118q52 48 125 48t127 -46q56 -48 56 -120z" />
<glyph unicode="7" horiz-adv-x="702" d="M628 610v100h-493v-108h363l-358 -613h129z" />
<glyph unicode="8" horiz-adv-x="702" d="M641 210q0 125 -121 184q86 44 86 140q0 98 -85 150q-71 44 -170 44q-100 0 -171 -44q-85 -52 -85 -150q0 -97 87 -140q-122 -59 -122 -184q0 -113 93 -180q80 -58 198 -58q116 0 198 58q92 66 92 180zM533 210q0 -65 -59 -100q-50 -30 -123 -30t-124 30q-58 36 -58 100 q0 61 60 97q52 32 122 32t121 -32q61 -36 61 -97zM498 534q0 -39 -52 -65q-45 -21 -95 -21q-51 0 -96 21q-51 25 -51 65q0 47 49 69q40 16 98 16q30 0 54 -4t44 -12q49 -23 49 -69z" />
<glyph unicode="9" horiz-adv-x="702" d="M651 350q0 147 -78 255q-89 123 -230 123q-119 0 -203 -77q-89 -80 -89 -198q0 -115 89 -197q86 -77 203 -77q114 0 186 72q-8 -30 -21 -56t-30 -48q-55 -67 -135 -67q-87 0 -145 81l-85 -65q94 -124 230 -124q141 0 230 123q78 109 78 255zM517 454q0 -71 -51 -119 q-50 -47 -123 -47q-71 0 -129 47q-55 49 -55 119q0 72 55 118q54 47 129 47q66 0 120 -50q54 -51 54 -115z" />
<glyph unicode=":" horiz-adv-x="273" d="M208 376q0 30 -20.5 51t-51.5 21q-30 0 -50.5 -21t-20.5 -51t20.5 -51t50.5 -21q31 0 51.5 21t20.5 51zM208 61q0 30 -20.5 51t-51.5 21q-30 0 -50.5 -21t-20.5 -51t20.5 -51t50.5 -21q31 0 51.5 21t20.5 51z" />
<glyph unicode=";" horiz-adv-x="273" d="M210 133h-147l40 -252q3 -15 10.5 -23.5t22.5 -8.5q16 0 23.5 8.5t10.5 23.5zM208 376q0 30 -20.5 51t-51.5 21q-30 0 -50.5 -21t-20.5 -51t20.5 -51t50.5 -21q31 0 51.5 21t20.5 51z" />
<glyph unicode="&#x3c;" horiz-adv-x="482" d="M422 99l-253 163l253 164l-50 77l-307 -199v-83l307 -199z" />
<glyph unicode="=" horiz-adv-x="500" d="M436 296v91h-371v-91h371zM436 138v91h-371v-91h371z" />
<glyph unicode="&#x3e;" horiz-adv-x="482" d="M417 221v83l-307 199l-50 -77l252 -164l-252 -163l50 -77z" />
<glyph unicode="?" horiz-adv-x="465" d="M401 556q0 68 -49 120q-51 52 -119 52q-71 0 -120 -52q-48 -49 -48 -131h108q1 29 18 51.5t42 22.5t42 -18.5t17 -44.5q0 -43 -40 -77q-20 -17 -37 -31t-37 -31q-53 -53 -53 -117q0 -3 1.5 -19t3.5 -45q1 -10 2.5 -25.5t3.5 -28.5h71q4 29 6 55t4 41q9 65 54 98 q20 14 41 27.5t42 27.5q47 42 47 125zM243 61q0 30 -20.5 51t-51.5 21q-30 0 -50.5 -21t-20.5 -51t20.5 -51t50.5 -21q31 0 51.5 21t20.5 51z" />
<glyph unicode="@" horiz-adv-x="1060" d="M996 262q0 193 -138 329q-137 137 -328 137q-190 0 -329 -137q-136 -136 -136 -329q0 -192 136 -328q137 -137 329 -137q33 0 68.5 5.5t73.5 17.5l-21 78q-63 -19 -121 -19q-158 0 -271 113q-112 112 -112 270q0 157 112 271q113 113 271 113q159 0 271 -112t112 -272 q0 -72 -37 -127q-42 -63 -106 -63q-26 0 -42.5 22t-16.5 49v3q0 2 1 7l27 317h-86l-5 -53q-53 66 -142 66q-92 0 -160 -74q-66 -74 -66 -166q0 -81 52 -142q55 -59 137 -59q94 0 157 68q6 -43 37 -77q38 -44 101 -44q101 0 170 90q62 83 62 183zM635 275q0 -60 -44 -104v1 q-43 -43 -103 -43q-53 0 -86 35q-35 33 -35 86q0 60 43 103q45 43 104 43q51 0 86 -35q35 -33 35 -86z" />
<glyph unicode="A" horiz-adv-x="666" d="M649 -11l-262 721h-108l-262 -721h114l58 158h287l58 -158h115zM332 542l105 -287h-209z" />
<glyph unicode="B" horiz-adv-x="675" d="M619 197q0 112 -107 157q90 48 90 149q0 89 -71 151q-68 56 -158 56h-308v-721h325q89 0 159 58q36 30 53 67t17 83zM511 197q0 -46 -38 -72q-35 -27 -83 -27h-217v198h217q48 0 83 -27q38 -28 38 -72zM493 503q0 -44 -37 -72q-36 -27 -83 -27h-200v198h200q47 0 83 -27 q37 -28 37 -72z" />
<glyph unicode="C" horiz-adv-x="747" d="M688 98l-70 67q-87 -85 -197 -85t-191 79q-79 81 -79 191t79 191q79 78 191 78q111 0 197 -84l78 74q-119 119 -275 119q-155 0 -267 -112q-111 -111 -111 -266t110 -268q112 -110 268 -110q154 0 267 111v15z" />
<glyph unicode="D" horiz-adv-x="754" d="M698 350q0 151 -107 255q-105 105 -253 105h-273v-721h273q148 0 253 106q107 107 107 255zM590 350q0 -105 -74 -179q-73 -73 -178 -73h-165v504h165q104 0 178 -74t74 -178z" />
<glyph unicode="E" horiz-adv-x="640" d="M576 -11v109h-403v198h315v108h-315v198h403v108h-511v-721h511z" />
<glyph unicode="F" horiz-adv-x="610" d="M576 602v108h-511v-721h108v307h315v108h-315v198h403z" />
<glyph unicode="G" horiz-adv-x="794" d="M738 148v256h-328v-108h220v-118q-79 -98 -209 -98q-110 0 -191 79q-79 81 -79 191t79 191q79 78 191 78q63 0 121 -30.5t100 -85.5l89 62q-57 78 -138 120.5t-172 42.5q-155 0 -267 -112q-111 -111 -111 -266t110 -268q112 -110 268 -110q48 0 93.5 12t86.5 34 t75.5 53.5t60.5 70.5z" />
<glyph unicode="H" horiz-adv-x="710" d="M646 -11v721h-109v-306h-364v306h-108v-721h108v307h364v-307h109z" />
<glyph unicode="I" d="M173 -11v721h-108v-721h108z" />
<glyph unicode="J" horiz-adv-x="551" d="M495 219v491h-286v-108h178v-383q0 -59 -41 -98q-39 -41 -98 -41q-77 0 -122 74l-96 -51q18 -30 42 -54t52.5 -41t60 -26.5t63.5 -9.5q101 0 174 73t73 174z" />
<glyph unicode="K" horiz-adv-x="636" d="M619 -11l-281 434l287 287h-152l-300 -300v300h-108v-721h108v270l86 86l231 -356h129z" />
<glyph unicode="L" horiz-adv-x="522" d="M488 -11v109h-315v612h-108v-721h423z" />
<glyph unicode="M" horiz-adv-x="847" d="M782 -11v721h-157l-202 -553l-201 553h-157v-721h108v541l197 -541h108l196 539v-539h108z" />
<glyph unicode="N" horiz-adv-x="710" d="M646 -11v721h-109v-519l-369 519h-103v-721h108v520l369 -520h104z" />
<glyph unicode="O" horiz-adv-x="842" d="M799 350q0 154 -111 267q-113 111 -267 111q-156 0 -267 -111q-111 -113 -111 -267q0 -156 111 -267t267 -111q154 0 267 111q111 111 111 267zM690 350q0 -112 -78 -191q-81 -79 -191 -79t-191 79q-79 81 -79 191t79 191q79 78 191 78q111 0 191 -78q78 -80 78 -191z " />
<glyph unicode="P" horiz-adv-x="636" d="M602 503q0 89 -71 151q-68 56 -158 56h-308v-721h108v307h200q90 0 159 57q70 60 70 150zM493 503q0 -44 -37 -72q-36 -27 -83 -27h-200v198h200q47 0 83 -27q37 -28 37 -72z" />
<glyph unicode="Q" horiz-adv-x="842" d="M799 350q0 154 -111 267q-113 111 -267 111q-156 0 -267 -111q-111 -113 -111 -267q0 -144 95 -251q93 -104 229 -123v-162h108v162q68 10 124.5 41t103.5 82q96 108 96 251zM690 350q0 -99 -64 -175q-62 -71 -151 -89v99h-108v-99q-91 18 -151 89q-65 76 -65 175 q0 110 79 191q79 78 191 78q111 0 191 -78q78 -80 78 -191z" />
<glyph unicode="R" horiz-adv-x="671" d="M681 -11l-170 262q-14 21 -26 36t-23 24q53 21 93 65q47 56 47 127q0 89 -71 151q-68 56 -158 56h-308v-721h108v307h95q86 0 121 -57l162 -250h130zM493 503q0 -44 -37 -72q-36 -27 -83 -27h-200v198h200q47 0 83 -27q37 -28 37 -72z" />
<glyph unicode="S" horiz-adv-x="693" d="M637 189q0 131 -128 179q-28 5 -54 11t-53 12q-28 6 -55.5 11.5t-54.5 11.5q-110 24 -110 99q0 53 56 82h-1q48 24 109 24q62 0 109 -25q56 -28 56 -92h108q0 112 -91 173q-79 53 -182 53q-102 0 -182 -53q-91 -62 -91 -162q0 -136 130 -184q53 -12 107 -22h-1 q28 -6 55 -11.5t55 -10.5h-1q110 -24 110 -96q0 -57 -62 -86q-51 -23 -120 -23q-67 0 -119 23q-63 28 -63 96h-108q0 -114 100 -175q82 -52 190 -52q107 0 191 51q100 61 100 166z" />
<glyph unicode="T" horiz-adv-x="623" d="M593 602v108h-563v-108h227v-613h109v613h227z" />
<glyph unicode="U" horiz-adv-x="693" d="M637 262v448h-109v-448q0 -76 -53 -129t-129 -53t-129 53t-53 129v448h-108v-448q0 -119 86 -204q85 -86 204 -86t205 86q86 85 86 204z" />
<glyph unicode="V" horiz-adv-x="666" d="M649 710h-115l-202 -553l-201 553h-114l262 -721h108z" />
<glyph unicode="W" horiz-adv-x="957" d="M940 710h-113l-148 -512l-147 512h-107l-148 -512l-147 512h-113l207 -721h107l148 513l147 -513h106z" />
<glyph unicode="X" horiz-adv-x="674" d="M658 -11l-254 361l254 360h-134l-187 -265l-187 265h-134l253 -360l-253 -361h134l187 266l187 -266h134z" />
<glyph unicode="Y" horiz-adv-x="665" d="M654 710h-134l-188 -265l-187 265h-134l267 -378v-343h109v343z" />
<glyph unicode="Z" horiz-adv-x="693" d="M637 -11v109h-429l429 511v101h-581v-108h429l-429 -511v-102h581z" />
<glyph unicode="[" horiz-adv-x="360" d="M296 -98v108h-123v592h123v108h-231v-808h231z" />
<glyph unicode="\" horiz-adv-x="458" d="M418 -55l-276 759l-102 -36l277 -760z" />
<glyph unicode="]" horiz-adv-x="360" d="M296 -98v808h-231v-108h122v-592h-122v-108h231z" />
<glyph unicode="^" horiz-adv-x="506" d="M444 323l-149 335h-84l-150 -335l83 -38l109 243l108 -243z" />
<glyph unicode="_" horiz-adv-x="457" d="M457 -11v91h-457v-91h457z" />
<glyph unicode="`" horiz-adv-x="290" d="M232 584l-63 126h-117l105 -126h75z" />
<glyph unicode="a" horiz-adv-x="689" d="M624 -11v546h-109v-74q-80 92 -199 92q-58 0 -107.5 -21.5t-87.5 -66.5q-78 -84 -78 -203q0 -118 77 -202q78 -88 196 -88q121 0 199 92v-75h109zM515 262q0 -76 -53 -129t-129 -53t-129 53t-53 129t53 129t129 53t129 -53t53 -129z" />
<glyph unicode="b" horiz-adv-x="689" d="M646 262q0 117 -78 203q-79 88 -195 88q-62 0 -111 -23.5t-89 -68.5v249h-108v-721h108v75q40 -46 89 -69t111 -23q117 0 196 88q77 86 77 202zM537 262q0 -76 -53 -129t-129 -53t-129 53t-53 129t53 129t129 53t129 -53t53 -129z" />
<glyph unicode="c" horiz-adv-x="622" d="M561 101l-82 53q-62 -74 -146 -74q-76 0 -129 53t-53 129t53 129t129 53q85 0 146 -73l91 59q-44 58 -106.5 90.5t-130.5 32.5q-119 0 -204 -86q-86 -86 -86 -205t86 -204q85 -86 204 -86q68 0 129 30.5t102 84.5z" />
<glyph unicode="d" horiz-adv-x="689" d="M624 -11v721h-109v-249q-80 92 -199 92q-58 0 -107.5 -21.5t-87.5 -66.5q-78 -84 -78 -203q0 -118 77 -202q78 -88 196 -88q121 0 199 92v-75h109zM515 262q0 -76 -53 -129t-129 -53t-129 53t-53 129t53 129t129 53t129 -53t53 -129z" />
<glyph unicode="e" horiz-adv-x="667" d="M624 262q0 119 -86 205t-205 86t-204 -86q-86 -86 -86 -205t86 -204q85 -86 204 -86q68 0 130.5 32.5t106.5 90.5l-91 59q-60 -74 -146 -74q-62 0 -113 40q-44 35 -60 88h459q2 17 3.5 30t1.5 24zM220 405q51 39 113 39q65 0 113 -39q43 -33 61 -88h-347q16 52 60 88z " />
<glyph unicode="f" horiz-adv-x="349" d="M318 703q-41 25 -81 25q-58 0 -100 -42t-42 -100v-103h-52v-109h52v-560h109v560h87v109h-87v103q0 14 9.5 24t23.5 10q11 0 31 -15z" />
<glyph unicode="g" horiz-adv-x="689" d="M624 87v448h-109v-75q-17 19 -35.5 33.5t-39.5 27.5q-61 32 -124 32q-116 0 -195 -88q-78 -84 -78 -203q0 -118 77 -202q81 -88 196 -88q68 0 124 31q41 23 73 58q-9 -59 -49 -102q-26 -26 -57.5 -40t-73.5 -14q-84 0 -148 75l-83 -69q94 -114 231 -114q119 0 205 86 q86 85 86 204zM515 262q0 -76 -53 -129t-129 -53t-129 53t-53 129t53 129t129 53t129 -53t53 -129z" />
<glyph unicode="h" horiz-adv-x="597" d="M541 -11v326q0 96 -62 164q-63 74 -159 74q-87 0 -147 -61v218h-108v-721h108v326q0 54 38 92q37 37 92 37q53 0 92 -37q37 -39 37 -92v-326h109z" />
<glyph unicode="i" d="M173 -11v546h-108v-546h108zM191 656q0 30 -21 51t-51 21t-51 -21t-21 -51t21 -51t51 -21t51 21t21 51z" />
<glyph unicode="j" d="M173 -61v596h-108v-596q0 -14 -10 -24t-24 -10q-10 0 -30 15l-51 -98q41 -25 81 -25q58 0 100 42t42 100zM191 656q0 30 -21 51t-51 21t-51 -21t-21 -51t21 -51t51 -21t51 21t21 51z" />
<glyph unicode="k" horiz-adv-x="566" d="M549 -11l-212 329l218 217h-152l-230 -230v405h-108v-721h108v165l84 84l163 -249h129z" />
<glyph unicode="l" d="M173 -11v721h-108v-721h108z" />
<glyph unicode="m" horiz-adv-x="894" d="M838 -11v326q0 97 -61 165q-66 73 -159 73q-106 0 -163 -89q-48 89 -144 89q-84 0 -138 -58v40h-108v-546h108v326q0 52 32 90q33 39 80 39q48 0 82 -40q30 -36 30 -89v-326h109v326q0 53 31 90q33 39 81 39q47 0 81 -40q31 -37 31 -89v-326h108z" />
<glyph unicode="n" horiz-adv-x="597" d="M541 -11v326q0 96 -62 164q-63 74 -159 74q-87 0 -147 -61v43h-108v-546h108v326q0 54 38 92q37 37 92 37q53 0 92 -37q37 -39 37 -92v-326h109z" />
<glyph unicode="o" horiz-adv-x="667" d="M624 262q0 119 -86 205t-205 86t-204 -86q-86 -86 -86 -205t86 -204q85 -86 204 -86t205 86q86 85 86 204zM515 262q0 -76 -53 -129t-129 -53t-129 53t-53 129t53 129t129 53t129 -53t53 -129z" />
<glyph unicode="p" horiz-adv-x="689" d="M646 262q0 117 -78 203q-79 88 -195 88q-62 0 -111 -23.5t-89 -68.5v74h-108v-721h108v250q40 -46 89 -69t111 -23q117 0 196 88q77 86 77 202zM537 262q0 -76 -53 -129t-129 -53t-129 53t-53 129t53 129t129 53t129 -53t53 -129z" />
<glyph unicode="q" horiz-adv-x="689" d="M624 -186v721h-109v-74q-80 92 -199 92q-58 0 -107.5 -21.5t-87.5 -66.5q-78 -84 -78 -203q0 -118 77 -202q78 -88 196 -88q121 0 199 92v-250h109zM515 262q0 -76 -53 -129t-129 -53t-129 53t-53 129t53 129t129 53t129 -53t53 -129z" />
<glyph unicode="r" horiz-adv-x="398" d="M364 445v104q-14 2 -25 3t-19 1q-87 0 -147 -61v43h-108v-546h108v326q0 54 38 92q37 37 92 37q23 0 47 -8z" />
<glyph unicode="s" horiz-adv-x="570" d="M514 144q0 104 -95 142h1q-8 5 -167 35q-80 17 -80 60q0 32 38 49q31 14 74 14q23 0 41 -3.5t34 -10.5q37 -17 37 -60h109q0 92 -75 141q-63 42 -146 42t-146 -42q-74 -48 -74 -130q0 -105 95 -143q8 -3 49 -11.5t117 -23.5q80 -17 80 -59q0 -64 -121 -64 q-24 0 -43.5 3.5t-35.5 9.5q-42 16 -42 62h-108q0 -94 79 -143q66 -40 150 -40q83 0 151 40q78 49 78 132z" />
<glyph unicode="t" horiz-adv-x="387" d="M353 427v108h-105v123h-109v-123h-105v-108h105v-613h109v613h105z" />
<glyph unicode="u" horiz-adv-x="597" d="M532 -11v546h-109v-325q0 -53 -37 -92q-19 -18 -42 -28t-50 -10t-50 10t-42 28q-18 19 -28 42t-10 50v325h-108v-325q0 -95 61 -165q64 -73 159 -73q85 0 147 60v-43h109z" />
<glyph unicode="v" horiz-adv-x="582" d="M566 535h-117l-159 -391l-157 391h-116l219 -546h109z" />
<glyph unicode="w" horiz-adv-x="837" d="M820 535h-113l-117 -361l-118 361h-106l-118 -361l-118 361h-113l178 -546h106l118 361l117 -361h106z" />
<glyph unicode="x" horiz-adv-x="550" d="M535 -11l-193 273l193 273h-135l-125 -177l-125 177h-134l191 -273l-191 -273h134l125 178l125 -178h135z" />
<glyph unicode="y" horiz-adv-x="582" d="M566 535h-117l-159 -391l-157 391h-116l215 -535l-31 -77q-6 -18 -30 -18q-8 0 -21.5 3.5t-33.5 10.5v-110q19 -7 32 -9.5t23 -2.5q96 0 132 89v-1z" />
<glyph unicode="z" horiz-adv-x="605" d="M549 -11v109h-335l335 336v101h-493v-108h335l-335 -336v-102h493z" />
<glyph unicode="{" horiz-adv-x="422" d="M357 -98v108h-46q-19 0 -34.5 16t-15.5 35v140q0 35 -25 74q-13 20 -30 31q16 10 30 32q25 37 25 73v140q0 20 15.5 35.5t34.5 15.5h46v108h-54q-61 0 -105 -50q-46 -50 -46 -109v-149q0 -20 -15 -31t-36 -11h-36v-108h36q21 0 36 -11t15 -31v-149q0 -58 46 -108 q45 -51 105 -51h54z" />
<glyph unicode="|" d="M173 -98v808h-108v-808h108z" />
<glyph unicode="}" horiz-adv-x="422" d="M357 252v108h-37q-21 0 -36 11t-15 31v149q0 59 -46 109t-104 50h-54v-108h45q20 0 35.5 -15.5t15.5 -35.5v-140q0 -35 24 -73q14 -22 30 -32q-17 -11 -30 -31q-11 -19 -17.5 -37t-6.5 -37v-140q0 -19 -15.5 -35t-35.5 -16h-45v-108h54q57 0 104 51q46 49 46 108v149 q0 20 15 31t36 11h37z" />
<glyph unicode="~" horiz-adv-x="504" d="M433 294l-75 31q-17 -42 -33 -42q-26 0 -75 21q-53 21 -83 21q-68 0 -105 -93l84 -34q16 41 33 41q14 0 32 -5t43 -15q51 -22 83 -22q68 0 101 84z" />
<glyph unicode="&#xa1;" horiz-adv-x="273" d="M191 -98l-18 528h-73l-18 -528h109zM208 551q0 30 -20.5 51t-51.5 21q-30 0 -50.5 -21t-20.5 -51t20.5 -51t50.5 -21q31 0 51.5 21t20.5 51z" />
<glyph unicode="&#xa2;" horiz-adv-x="653" d="M583 101l-82 53q-41 -49 -92 -65v347q52 -18 93 -65l89 59q-75 98 -182 118v92h-108v-92q-99 -19 -166 -97q-70 -80 -70 -189t70 -189q68 -78 166 -96v-93h108v93q109 18 177 110zM213 149q-20 24 -30 52.5t-10 60.5q0 67 40 114q17 22 39 36.5t49 23.5v-347 q-55 17 -88 60z" />
<glyph unicode="&#xa3;" horiz-adv-x="656" d="M596 597q-18 30 -42 54t-52.5 41t-60 26.5t-64.5 9.5q-100 0 -174 -74q-73 -73 -73 -173v-77h-87v-108h87v-307h459v109h-350v198h175v108h-175v77q0 58 40 98t98 40q75 0 123 -73z" />
<glyph unicode="&#xa4;" horiz-adv-x="818" d="M755 651q-105 77 -229 77q-122 0 -222 -73q-96 -69 -135 -181h-75l-34 -91h89q-1 -8 -1 -17v-16v-17t1 -16h-55l-34 -91h109q39 -113 135 -182q97 -72 222 -72q50 0 99 13.5t97 42.5v135q-95 -83 -196 -83q-81 0 -146 44q-31 20 -53.5 45.5t-39.5 56.5h313l33 91h-375 q-2 8 -2 16v17v16q0 9 2 17h400l33 91h-404q17 31 39.5 56.5t53.5 45.5q65 43 146 43q101 0 190 -77z" />
<glyph unicode="&#xa5;" horiz-adv-x="752" d="M697 710h-134l-187 -265l-187 265h-134l228 -323h-180v-91h219v-67h-219v-91h219v-149h108v149h219v91h-219v67h219v91h-180z" />
<glyph unicode="&#xa6;" d="M173 348v362h-108v-362h108zM173 -98v362h-108v-362h108z" />
<glyph unicode="&#xa7;" horiz-adv-x="588" d="M523 83q0 81 -58 123q58 42 58 113q0 104 -95 142h1q-8 5 -167 35q-80 17 -80 60q0 32 38 49q31 14 74 14t74 -14q38 -17 38 -48v-12h108q0 93 -74 141q-63 42 -146 42t-146 -42q-75 -49 -75 -130q0 -42 14.5 -72t42.5 -50q-57 -45 -57 -115q0 -104 96 -142 q7 -3 48.5 -11.5t117.5 -23.5q80 -17 80 -59q0 -64 -121 -64q-24 0 -44.5 3.5t-36.5 8.5h1q-41 18 -41 49v14h-108q0 -95 78 -143q68 -40 151 -40q84 0 150 40q79 48 79 132zM415 319q0 -32 -38 -50q-17 -6 -35 -10t-39 -4t-40.5 4t-37.5 11q-43 18 -43 49q0 34 36 51 q31 15 73 15q43 0 79 -15q45 -20 45 -51z" />
<glyph unicode="&#xa8;" horiz-adv-x="413" d="M348 656q0 23 -15.5 38.5t-38.5 15.5t-38.5 -15.5t-15.5 -38.5t15.5 -38.5t38.5 -15.5t38.5 15.5t15.5 38.5zM173 656q0 23 -15.5 38.5t-38.5 15.5t-38.5 -15.5t-15.5 -38.5t15.5 -38.5t38.5 -15.5t38.5 15.5t15.5 38.5z" />
<glyph unicode="&#xa9;" horiz-adv-x="702" d="M637 276q0 119 -85 202q-84 84 -201 84t-202 -85q-84 -84 -84 -201q0 -118 83 -203q84 -84 203 -84q117 0 201 84q85 85 85 203zM568 276q0 -90 -64 -154q-63 -63 -153 -63q-91 0 -154 63t-63 154q0 90 63 153q64 64 154 64q89 0 153 -64t64 -153zM497 154l-39 36 q-43 -44 -98 -44q-56 0 -92 38q-38 36 -38 92q0 55 38 91q36 38 92 38q55 0 98 -44l47 44q-65 65 -145 65t-138 -58q-57 -57 -57 -136q0 -80 57 -138q58 -57 138 -57q77 0 137 58v15z" />
<glyph unicode="&#xaa;" horiz-adv-x="570" d="M506 296v414h-87v-50q-58 64 -147 64t-149 -67q-58 -64 -58 -154q0 -89 58 -153q60 -67 149 -67q90 0 147 63v-50h87zM419 503q0 -56 -39 -95t-95 -39q-55 0 -95 40q-39 40 -39 94q0 56 39 95t95 39q55 0 94 -40q40 -40 40 -94z" />
<glyph unicode="&#xab;" horiz-adv-x="736" d="M675 61l-217 147l217 147l-50 76l-272 -182v-82l272 -182zM387 61l-218 147l218 147l-51 76l-271 -182v-82l271 -182z" />
<glyph unicode="&#xac;" horiz-adv-x="500" d="M436 129v179h-371v-91h280v-88h91z" />
<glyph unicode="&#xae;" horiz-adv-x="702" d="M637 276q0 119 -85 202q-84 84 -201 84t-202 -85q-84 -84 -84 -201q0 -118 83 -203q84 -84 203 -84q117 0 201 84q85 85 85 203zM568 276q0 -86 -59 -148l-65 101v-1q-11 16 -21 27q30 13 48.5 39.5t18.5 58.5q0 47 -37 77q-35 31 -83 31h-133q50 32 114 32q89 0 153 -64 t64 -153zM276 90v153h42q39 0 56 -26l83 -127h7q-50 -31 -113 -31q-66 0 -115 31h40zM197 122q-63 63 -63 154q0 90 63 153q3 3 6.5 6t7.5 7v-334q-8 6 -14 14zM425 353q0 -20 -16.5 -32.5t-38.5 -12.5h-94v88h94q22 0 38.5 -11.5t16.5 -31.5z" />
<glyph unicode="&#xaf;" horiz-adv-x="413" d="M348 619v91h-283v-91h283z" />
<glyph unicode="&#xb0;" horiz-adv-x="343" d="M278 604q0 22 -8.5 41.5t-22.5 33.5t-34 22.5t-42 8.5q-45 0 -75.5 -30.5t-30.5 -75.5q0 -23 8.5 -42.5t22.5 -33.5t33.5 -22.5t41.5 -8.5t42 8.5t34 22.5t22.5 33.5t8.5 42.5zM222 604q0 -21 -15 -36t-36 -15t-35.5 15t-14.5 36t14.5 35.5t35.5 14.5t36 -14.5t15 -35.5z " />
<glyph unicode="&#xb1;" horiz-adv-x="500" d="M436 304v91h-140v140h-91v-140h-140v-91h140v-140h91v140h140zM436 -11v91h-371v-91h371z" />
<glyph unicode="&#xb2;" horiz-adv-x="413" d="M348 339v65h-197q19 22 59 45q77 45 91 58q47 39 47 95q0 29 -11.5 50t-34.5 38q-39 29 -96 29q-54 0 -94 -26q-47 -31 -47 -97h64q0 33 24 47q22 11 51 11q35 0 54 -12q25 -13 25 -40q0 -37 -52 -71h1l-104 -65q-63 -50 -63 -127h283z" />
<glyph unicode="&#xb3;" horiz-adv-x="418" d="M353 455q0 61 -55 92q38 23 38 70q0 51 -46 79q-35 23 -87 23q-104 0 -131 -79l60 -22q13 36 71 36q68 0 68 -37q0 -16 -23 -28q-22 -10 -45 -10h-37v-65h37q36 0 58 -14q28 -17 28 -45q0 -30 -27 -46q-23 -14 -59 -14q-60 0 -86 46l-56 -33q43 -77 142 -77q58 0 101 29 q49 36 49 95z" />
<glyph unicode="&#xb4;" horiz-adv-x="290" d="M238 710h-117l-63 -126h75z" />
<glyph unicode="&#xb5;" horiz-adv-x="605" d="M541 -11v546h-109v-325q0 -53 -37 -92q-19 -18 -42 -28t-50 -10q-54 0 -92 38t-38 92v325h-108v-721h108v214q50 -56 130 -56q79 0 129 56v-39h109z" />
<glyph unicode="&#xb6;" horiz-adv-x="754" d="M689 602v108h-395q-90 0 -158 -56q-71 -61 -71 -151q0 -92 71 -150q32 -27 68.5 -41.5t78.5 -15.5v-482h109v788h84v-788h108v788h105z" />
<glyph unicode="&#xb7;" horiz-adv-x="273" d="M208 262q0 31 -20.5 51.5t-51.5 20.5q-30 0 -50.5 -20.5t-20.5 -51.5q0 -30 20.5 -50.5t50.5 -20.5q31 0 51.5 20.5t20.5 50.5z" />
<glyph unicode="&#xb8;" horiz-adv-x="290" d="M226 -105q0 26 -15.5 47t-39.5 29l14 57h-57l-22 -100h39q14 0 23.5 -9.5t9.5 -23.5t-9.5 -23.5t-23.5 -9.5h-68l-16 -48h84q34 0 57.5 23.5t23.5 57.5z" />
<glyph unicode="&#xb9;" horiz-adv-x="287" d="M222 339v371h-58l-103 -103l43 -43l53 55v-280h65z" />
<glyph unicode="&#xba;" horiz-adv-x="570" d="M506 503q0 89 -66 155t-155 66q-90 0 -156 -66q-64 -65 -64 -155q0 -91 64 -156q65 -64 156 -64q90 0 155 64q66 66 66 156zM419 503q0 -56 -39 -95t-95 -39q-55 0 -94 39q-40 40 -40 95q0 56 39 95t95 39q55 0 94 -40q40 -40 40 -94z" />
<glyph unicode="&#xbb;" horiz-adv-x="736" d="M671 167v82l-271 182l-51 -76l218 -147l-218 -147l51 -76zM382 167v82l-271 182l-51 -76l218 -147l-218 -147l51 -76z" />
<glyph unicode="&#xbc;" horiz-adv-x="500" d="M373 45v56h-35v189h-46l-163 -196v-49h153v-56h56v56h35zM316 409v301h-49l-86 -85l38 -35l41 41v-222h56zM436 322v56h-371v-56h371zM199 101l83 98v-98h-83z" />
<glyph unicode="&#xbd;" horiz-adv-x="500" d="M366 -11v56h-154q7 8 18 16t25 17q60 34 72 45q39 33 39 78q0 44 -38 73q-32 23 -77 23q-44 0 -77 -21q-38 -25 -38 -82h56q0 29 17 38q16 9 40 9q29 0 42 -9q19 -10 19 -31q0 -29 -41 -55l-42 -26l-42 -26q-49 -40 -49 -105h230zM316 409v301h-49l-86 -85l38 -35l41 41 v-222h56zM436 322v56h-371v-56h371z" />
<glyph unicode="&#xbe;" horiz-adv-x="500" d="M373 45v56h-35v189h-46l-163 -196v-49h153v-56h56v56h35zM368 504q0 49 -43 73q29 20 29 56q0 43 -36 66q-32 18 -72 18q-83 0 -108 -67l53 -19q10 30 55 30q52 0 52 -28q0 -10 -16 -20q-19 -8 -36 -8h-32v-56h32q12 0 23 -2.5t21 -9.5q22 -13 22 -33q0 -24 -20 -35 q-17 -11 -46 -11q-46 0 -67 38l-50 -29q35 -65 117 -65q46 0 82 25q40 28 40 77zM436 322v56h-371v-56h371zM199 101l83 98v-98h-83z" />
<glyph unicode="&#xbf;" horiz-adv-x="465" d="M390 67h-98q-1 -29 -18 -51.5t-41 -22.5q-26 0 -43 19t-17 45q0 42 40 77q21 17 38 30.5t37 30.5q52 52 52 117q0 4 -1 19.5t-4 44.5q-1 10 -2 26t-3 28h-72q-3 -29 -5.5 -55.5t-4.5 -40.5q-9 -65 -54 -98q-20 -14 -41 -27.5t-42 -27.5q-46 -42 -46 -124q0 -72 48 -121 q49 -52 120 -52q68 0 119 52q49 52 49 121zM366 551q0 30 -21 51t-51 21t-51 -21t-21 -51t21 -51t51 -21t51 21t21 51z" />
<glyph unicode="&#xc0;" horiz-adv-x="666" d="M649 -11l-262 721h-108l-262 -721h114l58 158h287l58 -158h115zM332 542l105 -287h-209zM375 759l-63 126h-116l105 -126h74z" />
<glyph unicode="&#xc1;" horiz-adv-x="666" d="M649 -11l-262 721h-108l-262 -721h114l58 158h287l58 -158h115zM332 542l105 -287h-209zM469 885h-117l-63 -126h75z" />
<glyph unicode="&#xc2;" horiz-adv-x="666" d="M649 -11l-262 721h-108l-262 -721h114l58 158h287l58 -158h115zM332 542l105 -287h-209zM458 759l-84 126h-83l-84 -126h78l47 57l48 -57h78z" />
<glyph unicode="&#xc3;" horiz-adv-x="666" d="M649 -11l-262 721h-108l-262 -721h114l58 158h287l58 -158h115zM332 542l105 -287h-209zM471 857l-61 32q-12 -47 -22 -47q-19 0 -55 21q-41 25 -64 25q-54 0 -82 -93l69 -36q14 47 23 47q21 0 53 -22q21 -12 37 -18.5t28 -6.5q54 0 79 85z" />
<glyph unicode="&#xc4;" horiz-adv-x="666" d="M649 -11l-262 721h-108l-262 -721h114l58 158h287l58 -158h115zM332 542l105 -287h-209zM300 814q0 23 -15.5 38.5t-38.5 15.5t-38.5 -15.5t-15.5 -38.5t15.5 -39t38.5 -16t38.5 16t15.5 39zM475 814q0 23 -15.5 38.5t-38.5 15.5t-38.5 -15.5t-15.5 -38.5t15.5 -39 t38.5 -16t38.5 16t15.5 39z" />
<glyph unicode="&#xc5;" horiz-adv-x="666" d="M649 -11l-250 688q40 31 40 84q0 43 -32 75q-30 32 -75 32q-41 0 -75 -32q-31 -31 -31 -75q0 -55 40 -85l-249 -687h114l58 158h287l58 -158h115zM332 542l105 -287h-209zM383 761q0 -21 -15 -36t-36 -15t-35.5 15t-14.5 36t14.5 36t35.5 15t36 -15t15 -36z" />
<glyph unicode="&#xc6;" horiz-adv-x="1018" d="M954 -11v109h-315v198h227v108h-227v198h315v108h-424v-394l-143 394h-108l-262 -721h114l58 158h287l58 -158h420zM332 542l105 -287h-209z" />
<glyph unicode="&#xc7;" horiz-adv-x="747" d="M688 98l-70 67q-87 -85 -197 -85t-191 79q-79 81 -79 191t79 191q79 78 191 78q111 0 197 -84l78 74q-119 119 -275 119q-155 0 -267 -112q-111 -111 -111 -266q0 -146 97 -253q94 -104 229 -122l-14 -64h40q14 0 23.5 -10t9.5 -24t-9.5 -23.5t-23.5 -9.5h-69l-15 -47h84 q33 0 56.5 23.5t23.5 56.5q0 26 -15.5 47t-38.5 30l4 18q154 3 263 111v15z" />
<glyph unicode="&#xc8;" horiz-adv-x="640" d="M576 -11v109h-403v198h315v108h-315v198h403v108h-511v-721h511zM363 759l-63 126h-116l105 -126h74z" />
<glyph unicode="&#xc9;" horiz-adv-x="640" d="M576 -11v109h-403v198h315v108h-315v198h403v108h-511v-721h511zM457 885h-118l-63 -126h76z" />
<glyph unicode="&#xca;" horiz-adv-x="640" d="M576 -11v109h-403v198h315v108h-315v198h403v108h-511v-721h511zM445 759l-84 126h-82l-84 -126h78l47 57l47 -57h78z" />
<glyph unicode="&#xcb;" horiz-adv-x="640" d="M576 -11v109h-403v198h315v108h-315v198h403v108h-511v-721h511zM287 814q0 23 -15.5 38.5t-38.5 15.5t-39 -15.5t-16 -38.5t16 -39t39 -16t38.5 16t15.5 39zM462 814q0 23 -15.5 38.5t-38.5 15.5t-39 -15.5t-16 -38.5t16 -39t39 -16t38.5 16t15.5 39z" />
<glyph unicode="&#xcc;" d="M173 -11v721h-108v-721h108zM162 759l-63 126h-117l105 -126h75z" />
<glyph unicode="&#xcd;" d="M173 -11v721h-108v-721h108zM255 885h-117l-63 -126h75z" />
<glyph unicode="&#xce;" d="M173 -11v721h-108v-721h108zM244 759l-84 126h-82l-84 -126h78l47 57l47 -57h78z" />
<glyph unicode="&#xcf;" d="M173 -11v721h-108v-721h108zM261 814q0 23 -16 38.5t-39 15.5t-38.5 -15.5t-15.5 -38.5t15.5 -39t38.5 -16t39 16t16 39zM86 814q0 23 -16 38.5t-39 15.5t-38.5 -15.5t-15.5 -38.5t15.5 -39t38.5 -16t39 16t16 39z" />
<glyph unicode="&#xd0;" horiz-adv-x="820" d="M764 350q0 149 -106 254q-105 106 -255 106h-273v-306h-87v-91h87v-324h273q148 0 254 106q107 107 107 255zM655 350q0 -106 -73 -179t-179 -73h-164v215h175v91h-175v198h164q105 0 179 -74q73 -73 73 -178z" />
<glyph unicode="&#xd1;" horiz-adv-x="710" d="M646 -11v721h-109v-519l-369 519h-103v-721h108v520l369 -520h104zM493 857l-60 32q-13 -47 -23 -47q-18 0 -54 21q-41 25 -64 25q-55 0 -82 -93l69 -36q14 47 23 47q19 0 53 -22q21 -12 37 -18.5t28 -6.5q54 0 79 85z" />
<glyph unicode="&#xd2;" horiz-adv-x="842" d="M799 350q0 154 -111 267q-113 111 -267 111q-156 0 -267 -111q-111 -113 -111 -267q0 -156 111 -267t267 -111q154 0 267 111q111 111 111 267zM690 350q0 -112 -78 -191q-81 -79 -191 -79t-191 79q-79 81 -79 191t79 191q79 78 191 78q111 0 191 -78q78 -80 78 -191z M464 759l-63 126h-117l105 -126h75z" />
<glyph unicode="&#xd3;" horiz-adv-x="842" d="M799 350q0 154 -111 267q-113 111 -267 111q-156 0 -267 -111q-111 -113 -111 -267q0 -156 111 -267t267 -111q154 0 267 111q111 111 111 267zM690 350q0 -112 -78 -191q-81 -79 -191 -79t-191 79q-79 81 -79 191t79 191q79 78 191 78q111 0 191 -78q78 -80 78 -191z M557 885h-117l-63 -126h75z" />
<glyph unicode="&#xd4;" horiz-adv-x="842" d="M799 350q0 154 -111 267q-113 111 -267 111q-156 0 -267 -111q-111 -113 -111 -267q0 -156 111 -267t267 -111q154 0 267 111q111 111 111 267zM690 350q0 -112 -78 -191q-81 -79 -191 -79t-191 79q-79 81 -79 191t79 191q79 78 191 78q111 0 191 -78q78 -80 78 -191z M546 759l-84 126h-82l-84 -126h78l47 57l47 -57h78z" />
<glyph unicode="&#xd5;" horiz-adv-x="842" d="M799 350q0 154 -111 267q-113 111 -267 111q-156 0 -267 -111q-111 -113 -111 -267q0 -156 111 -267t267 -111q154 0 267 111q111 111 111 267zM690 350q0 -112 -78 -191q-81 -79 -191 -79t-191 79q-79 81 -79 191t79 191q79 78 191 78q111 0 191 -78q78 -80 78 -191z M559 857l-60 32q-13 -47 -23 -47q-20 0 -54 21q-42 25 -64 25q-55 0 -82 -93l69 -36q12 47 22 47q20 0 54 -22q21 -12 37 -18.5t28 -6.5q54 0 78 85z" />
<glyph unicode="&#xd6;" horiz-adv-x="842" d="M799 350q0 154 -111 267q-113 111 -267 111q-156 0 -267 -111q-111 -113 -111 -267q0 -156 111 -267t267 -111q154 0 267 111q111 111 111 267zM690 350q0 -112 -78 -191q-81 -79 -191 -79t-191 79q-79 81 -79 191t79 191q79 78 191 78q111 0 191 -78q78 -80 78 -191z M563 814q0 23 -16 38.5t-39 15.5t-38.5 -15.5t-15.5 -38.5t15.5 -39t38.5 -16t39 16t16 39zM388 814q0 23 -16 38.5t-39 15.5t-38.5 -15.5t-15.5 -38.5t15.5 -39t38.5 -16t39 16t16 39z" />
<glyph unicode="&#xd7;" horiz-adv-x="497" d="M436 139l-124 123l124 124l-64 64l-124 -124l-123 124l-64 -64l124 -124l-124 -123l64 -64l123 124l124 -124z" />
<glyph unicode="&#xd8;" horiz-adv-x="842" d="M825 673l-41 41l-102 -92q-110 106 -261 106q-156 0 -267 -111q-111 -113 -111 -267q0 -130 78 -230l-104 -93l41 -41l102 92q110 -106 261 -106q154 0 267 111q111 111 111 267q0 129 -79 229zM151 350q0 110 79 191q79 78 191 78q105 0 180 -69l-400 -358 q-50 70 -50 158zM690 350q0 -112 -78 -191q-81 -79 -191 -79q-53 0 -98 17t-83 52l400 358q50 -68 50 -157z" />
<glyph unicode="&#xd9;" horiz-adv-x="693" d="M637 262v448h-109v-448q0 -76 -53 -129t-129 -53t-129 53t-53 129v448h-108v-448q0 -119 86 -204q85 -86 204 -86t205 86q86 85 86 204zM389 759l-63 126h-116l105 -126h74z" />
<glyph unicode="&#xda;" horiz-adv-x="693" d="M637 262v448h-109v-448q0 -76 -53 -129t-129 -53t-129 53t-53 129v448h-108v-448q0 -119 86 -204q85 -86 204 -86t205 86q86 85 86 204zM483 885h-117l-63 -126h75z" />
<glyph unicode="&#xdb;" horiz-adv-x="693" d="M637 262v448h-109v-448q0 -76 -53 -129t-129 -53t-129 53t-53 129v448h-108v-448q0 -119 86 -204q85 -86 204 -86t205 86q86 85 86 204zM472 759l-84 126h-83l-84 -126h78l47 57l48 -57h78z" />
<glyph unicode="&#xdc;" horiz-adv-x="693" d="M637 262v448h-109v-448q0 -76 -53 -129t-129 -53t-129 53t-53 129v448h-108v-448q0 -119 86 -204q85 -86 204 -86t205 86q86 85 86 204zM488 814q0 23 -15.5 38.5t-38.5 15.5t-38.5 -15.5t-15.5 -38.5t15.5 -39t38.5 -16t38.5 16t15.5 39zM313 814q0 23 -15.5 38.5 t-38.5 15.5t-38.5 -15.5t-15.5 -38.5t15.5 -39t38.5 -16t38.5 16t15.5 39z" />
<glyph unicode="&#xdd;" horiz-adv-x="665" d="M654 710h-134l-188 -265l-187 265h-134l267 -378v-343h109v343zM469 885h-117l-63 -126h75z" />
<glyph unicode="&#xde;" horiz-adv-x="636" d="M602 350q0 90 -71 150q-68 57 -158 57h-200v153h-108v-721h108v154h200q90 0 159 57q70 60 70 150zM493 350q0 -44 -37 -72q-36 -27 -83 -27h-200v198h200q47 0 83 -27q37 -28 37 -72z" />
<glyph unicode="&#xdf;" horiz-adv-x="667" d="M611 210q0 67 -41 120q-31 41 -81 64q87 44 87 140q0 99 -83 151q-68 43 -168 43q-116 0 -189 -90q-71 -84 -71 -201v-535h108v535q0 73 41 126q41 56 111 56q142 0 142 -85q0 -41 -51 -65q-45 -21 -96 -21h-63v-109h63q71 0 122 -32q60 -36 60 -97q0 -64 -58 -100 q-51 -30 -124 -30q-29 0 -78 11l-26 -105q29 -8 54 -11t50 -3q118 0 198 58q93 67 93 180z" />
<glyph unicode="&#xe0;" horiz-adv-x="689" d="M624 -11v546h-109v-74q-80 92 -199 92q-58 0 -107.5 -21.5t-87.5 -66.5q-78 -84 -78 -203q0 -118 77 -202q78 -88 196 -88q121 0 199 92v-75h109zM515 262q0 -76 -53 -129t-129 -53t-129 53t-53 129t53 129t129 53t129 -53t53 -129zM376 584l-63 126h-116l105 -126h74z " />
<glyph unicode="&#xe1;" horiz-adv-x="689" d="M624 -11v546h-109v-74q-80 92 -199 92q-58 0 -107.5 -21.5t-87.5 -66.5q-78 -84 -78 -203q0 -118 77 -202q78 -88 196 -88q121 0 199 92v-75h109zM515 262q0 -76 -53 -129t-129 -53t-129 53t-53 129t53 129t129 53t129 -53t53 -129zM470 710h-117l-63 -126h75z" />
<glyph unicode="&#xe2;" horiz-adv-x="689" d="M624 -11v546h-109v-74q-80 92 -199 92q-58 0 -107.5 -21.5t-87.5 -66.5q-78 -84 -78 -203q0 -118 77 -202q78 -88 196 -88q121 0 199 92v-75h109zM515 262q0 -76 -53 -129t-129 -53t-129 53t-53 129t53 129t129 53t129 -53t53 -129zM458 584l-84 126h-82l-84 -126h78 l47 57l48 -57h77z" />
<glyph unicode="&#xe3;" horiz-adv-x="689" d="M624 -11v546h-109v-74q-80 92 -199 92q-58 0 -107.5 -21.5t-87.5 -66.5q-78 -84 -78 -203q0 -118 77 -202q78 -88 196 -88q121 0 199 92v-75h109zM515 262q0 -76 -53 -129t-129 -53t-129 53t-53 129t53 129t129 53t129 -53t53 -129zM472 682l-61 32q-13 -47 -23 -47 q-18 0 -54 21q-41 25 -64 25q-55 0 -82 -93l69 -36q14 47 23 47q21 0 53 -22q21 -12 37 -18.5t28 -6.5q54 0 79 85z" />
<glyph unicode="&#xe4;" horiz-adv-x="689" d="M624 -11v546h-109v-74q-80 92 -199 92q-58 0 -107.5 -21.5t-87.5 -66.5q-78 -84 -78 -203q0 -118 77 -202q78 -88 196 -88q121 0 199 92v-75h109zM515 262q0 -76 -53 -129t-129 -53t-129 53t-53 129t53 129t129 53t129 -53t53 -129zM300 639q0 23 -15.5 38.5t-38.5 15.5 t-38.5 -15.5t-15.5 -38.5t15.5 -39t38.5 -16t38.5 16t15.5 39zM475 639q0 23 -15.5 38.5t-38.5 15.5t-38.5 -15.5t-15.5 -38.5t15.5 -39t38.5 -16t38.5 16t15.5 39z" />
<glyph unicode="&#xe5;" horiz-adv-x="689" d="M624 -11v546h-109v-74q-80 92 -199 92q-58 0 -107.5 -21.5t-87.5 -66.5q-78 -84 -78 -203q0 -118 77 -202q78 -88 196 -88q121 0 199 92v-75h109zM515 262q0 -76 -53 -129t-129 -53t-129 53t-53 129t53 129t129 53t129 -53t53 -129zM440 691q0 22 -8.5 42t-22.5 34 t-34 22.5t-42 8.5t-41.5 -8.5t-33.5 -22.5t-22.5 -34t-8.5 -42t8.5 -41.5t22.5 -34t33.5 -23t41.5 -8.5t42 8.5t34 23t22.5 34t8.5 41.5zM384 691q0 -21 -15 -36t-36 -15t-35.5 15t-14.5 36t14.5 36t35.5 15t36 -15t15 -36z" />
<glyph unicode="&#xe6;" horiz-adv-x="1139" d="M1096 262q0 117 -76 202q-78 89 -194 89q-124 0 -202 -92v74h-109v-74q-80 92 -199 92q-116 0 -195 -88q-78 -84 -78 -203q0 -118 77 -202q81 -88 196 -88q122 0 199 91v-74h109v74q77 -91 195 -91q131 0 224 123l-91 59q-62 -74 -146 -74q-63 0 -114 40q-44 35 -59 88 h458q3 17 4 30t1 24zM515 262q0 -76 -53 -129t-129 -53t-129 53t-53 129t53 129t129 53t129 -53t53 -129zM692 405q51 39 114 39t113 -39q44 -35 60 -88h-346q15 51 59 88z" />
<glyph unicode="&#xe7;" horiz-adv-x="622" d="M561 101l-82 53q-62 -74 -146 -74q-76 0 -129 53t-53 129t53 129t129 53q85 0 146 -73l91 59q-44 58 -106.5 90.5t-130.5 32.5q-119 0 -204 -86q-86 -86 -86 -205q0 -109 72 -190q66 -78 167 -96l-14 -65h39q14 0 23.5 -10t9.5 -24t-9.5 -23.5t-23.5 -9.5h-68l-16 -47h84 q34 0 57.5 23.5t23.5 56.5q0 26 -15.5 47t-39.5 30l5 18q69 2 126 30t100 85z" />
<glyph unicode="&#xe8;" horiz-adv-x="667" d="M624 262q0 119 -86 205t-205 86t-204 -86q-86 -86 -86 -205t86 -204q85 -86 204 -86q68 0 130.5 32.5t106.5 90.5l-91 59q-60 -74 -146 -74q-62 0 -113 40q-44 35 -60 88h459q2 17 3.5 30t1.5 24zM220 405q51 39 113 39q65 0 113 -39q43 -33 61 -88h-347q16 52 60 88z M376 584l-63 126h-116l105 -126h74z" />
<glyph unicode="&#xe9;" horiz-adv-x="667" d="M624 262q0 119 -86 205t-205 86t-204 -86q-86 -86 -86 -205t86 -204q85 -86 204 -86q68 0 130.5 32.5t106.5 90.5l-91 59q-60 -74 -146 -74q-62 0 -113 40q-44 35 -60 88h459q2 17 3.5 30t1.5 24zM220 405q51 39 113 39q65 0 113 -39q43 -33 61 -88h-347q16 52 60 88z M470 710h-117l-63 -126h75z" />
<glyph unicode="&#xea;" horiz-adv-x="667" d="M624 262q0 119 -86 205t-205 86t-204 -86q-86 -86 -86 -205t86 -204q85 -86 204 -86q68 0 130.5 32.5t106.5 90.5l-91 59q-60 -74 -146 -74q-62 0 -113 40q-44 35 -60 88h459q2 17 3.5 30t1.5 24zM220 405q51 39 113 39q65 0 113 -39q43 -33 61 -88h-347q16 52 60 88z M458 584l-84 126h-82l-84 -126h78l47 57l48 -57h77z" />
<glyph unicode="&#xeb;" horiz-adv-x="667" d="M624 262q0 119 -86 205t-205 86t-204 -86q-86 -86 -86 -205t86 -204q85 -86 204 -86q68 0 130.5 32.5t106.5 90.5l-91 59q-60 -74 -146 -74q-62 0 -113 40q-44 35 -60 88h459q2 17 3.5 30t1.5 24zM220 405q51 39 113 39q65 0 113 -39q43 -33 61 -88h-347q16 52 60 88z M300 639q0 23 -15.5 38.5t-38.5 15.5t-38.5 -15.5t-15.5 -38.5t15.5 -39t38.5 -16t38.5 16t15.5 39zM475 639q0 23 -15.5 38.5t-38.5 15.5t-38.5 -15.5t-15.5 -38.5t15.5 -39t38.5 -16t38.5 16t15.5 39z" />
<glyph unicode="&#xec;" d="M173 -11v546h-108v-546h108zM162 584l-63 126h-117l105 -126h75z" />
<glyph unicode="&#xed;" d="M173 -11v546h-108v-546h108zM255 710h-117l-63 -126h75z" />
<glyph unicode="&#xee;" d="M173 -11v546h-108v-546h108zM244 584l-84 126h-82l-84 -126h78l47 57l47 -57h78z" />
<glyph unicode="&#xef;" d="M173 -11v546h-108v-546h108zM261 639q0 23 -16 38.5t-39 15.5t-38.5 -15.5t-15.5 -38.5t15.5 -39t38.5 -16t39 16t16 39zM86 639q0 23 -16 38.5t-39 15.5t-38.5 -15.5t-15.5 -38.5t15.5 -39t38.5 -16t39 16t16 39z" />
<glyph unicode="&#xf0;" horiz-adv-x="741" d="M711 567v91h-87v52h-109v-52h-87v-91h87v-106q-80 92 -199 92q-116 0 -195 -88q-78 -84 -78 -203t86 -204q85 -86 204 -86t205 86q86 85 86 204v305h87zM515 262q0 -76 -53 -129t-129 -53t-129 53t-53 129t53 129t129 53t129 -53t53 -129z" />
<glyph unicode="&#xf1;" horiz-adv-x="597" d="M541 -11v326q0 96 -62 164q-63 74 -159 74q-87 0 -147 -61v43h-108v-546h108v326q0 54 38 92q37 37 92 37q53 0 92 -37q37 -39 37 -92v-326h109zM441 682l-60 32q-13 -47 -23 -47q-20 0 -54 21q-42 25 -64 25q-55 0 -83 -93l70 -36q12 47 22 47q20 0 54 -22 q44 -25 64 -25q55 0 79 85z" />
<glyph unicode="&#xf2;" horiz-adv-x="667" d="M624 262q0 119 -86 205t-205 86t-204 -86q-86 -86 -86 -205t86 -204q85 -86 204 -86t205 86q86 85 86 204zM515 262q0 -76 -53 -129t-129 -53t-129 53t-53 129t53 129t129 53t129 -53t53 -129zM376 584l-63 126h-116l105 -126h74z" />
<glyph unicode="&#xf3;" horiz-adv-x="667" d="M624 262q0 119 -86 205t-205 86t-204 -86q-86 -86 -86 -205t86 -204q85 -86 204 -86t205 86q86 85 86 204zM515 262q0 -76 -53 -129t-129 -53t-129 53t-53 129t53 129t129 53t129 -53t53 -129zM470 710h-117l-63 -126h75z" />
<glyph unicode="&#xf4;" horiz-adv-x="667" d="M624 262q0 119 -86 205t-205 86t-204 -86q-86 -86 -86 -205t86 -204q85 -86 204 -86t205 86q86 85 86 204zM515 262q0 -76 -53 -129t-129 -53t-129 53t-53 129t53 129t129 53t129 -53t53 -129zM458 584l-84 126h-82l-84 -126h78l47 57l48 -57h77z" />
<glyph unicode="&#xf5;" horiz-adv-x="667" d="M624 262q0 119 -86 205t-205 86t-204 -86q-86 -86 -86 -205t86 -204q85 -86 204 -86t205 86q86 85 86 204zM515 262q0 -76 -53 -129t-129 -53t-129 53t-53 129t53 129t129 53t129 -53t53 -129zM472 682l-61 32q-13 -47 -23 -47q-18 0 -54 21q-41 25 -64 25q-55 0 -82 -93 l69 -36q14 47 23 47q21 0 53 -22q21 -12 37 -18.5t28 -6.5q54 0 79 85z" />
<glyph unicode="&#xf6;" horiz-adv-x="667" d="M624 262q0 119 -86 205t-205 86t-204 -86q-86 -86 -86 -205t86 -204q85 -86 204 -86t205 86q86 85 86 204zM515 262q0 -76 -53 -129t-129 -53t-129 53t-53 129t53 129t129 53t129 -53t53 -129zM475 639q0 23 -15.5 38.5t-38.5 15.5t-38.5 -15.5t-15.5 -38.5t15.5 -39 t38.5 -16t38.5 16t15.5 39zM300 639q0 23 -15.5 38.5t-38.5 15.5t-38.5 -15.5t-15.5 -38.5t15.5 -39t38.5 -16t38.5 16t15.5 39z" />
<glyph unicode="&#xf7;" horiz-adv-x="500" d="M436 217v91h-371v-91h371zM322 61q0 30 -21 51t-51 21t-51 -21t-21 -51t21 -51t51 -21t51 21t21 51zM322 464q0 30 -21 50.5t-51 20.5t-51 -20.5t-21 -50.5q0 -31 21 -51.5t51 -20.5t51 20.5t21 51.5z" />
<glyph unicode="&#xf8;" horiz-adv-x="667" d="M650 498l-41 41l-76 -66q-84 80 -200 80q-119 0 -204 -86q-86 -86 -86 -205q0 -93 52 -167l-78 -68l41 -41l76 66q83 -80 199 -80q119 0 205 86q86 85 86 204q0 91 -54 168zM515 262q0 -76 -53 -129t-129 -53q-67 0 -117 43l271 235q28 -44 28 -96zM151 262q0 76 53 129 t129 53q66 0 117 -42l-272 -235q-27 45 -27 95z" />
<glyph unicode="&#xf9;" horiz-adv-x="597" d="M532 -11v546h-109v-325q0 -53 -37 -92q-19 -18 -42 -28t-50 -10t-50 10t-42 28q-18 19 -28 42t-10 50v325h-108v-325q0 -95 61 -165q64 -73 159 -73q85 0 147 60v-43h109zM337 584l-63 126h-117l105 -126h75z" />
<glyph unicode="&#xfa;" horiz-adv-x="597" d="M532 -11v546h-109v-325q0 -53 -37 -92q-19 -18 -42 -28t-50 -10t-50 10t-42 28q-18 19 -28 42t-10 50v325h-108v-325q0 -95 61 -165q64 -73 159 -73q85 0 147 60v-43h109zM430 710h-117l-63 -126h75z" />
<glyph unicode="&#xfb;" horiz-adv-x="597" d="M532 -11v546h-109v-325q0 -53 -37 -92q-19 -18 -42 -28t-50 -10t-50 10t-42 28q-18 19 -28 42t-10 50v325h-108v-325q0 -95 61 -165q64 -73 159 -73q85 0 147 60v-43h109zM419 584l-84 126h-82l-84 -126h78l47 57l47 -57h78z" />
<glyph unicode="&#xfc;" horiz-adv-x="597" d="M532 -11v546h-109v-325q0 -53 -37 -92q-19 -18 -42 -28t-50 -10t-50 10t-42 28q-18 19 -28 42t-10 50v325h-108v-325q0 -95 61 -165q64 -73 159 -73q85 0 147 60v-43h109zM261 639q0 23 -16 38.5t-39 15.5t-38.5 -15.5t-15.5 -38.5t15.5 -39t38.5 -16t39 16t16 39z M436 639q0 23 -16 38.5t-39 15.5t-38.5 -15.5t-15.5 -38.5t15.5 -39t38.5 -16t39 16t16 39z" />
<glyph unicode="&#xfd;" horiz-adv-x="582" d="M566 535h-117l-159 -391l-157 391h-116l215 -535l-31 -77q-6 -18 -30 -18q-8 0 -21.5 3.5t-33.5 10.5v-110q19 -7 32 -9.5t23 -2.5q96 0 132 89v-1zM427 710h-117l-63 -126h75z" />
<glyph unicode="&#xfe;" horiz-adv-x="689" d="M646 262q0 117 -78 203q-79 88 -195 88q-62 0 -111 -23.5t-89 -68.5v249h-108v-896h108v250q40 -46 89 -69t111 -23q117 0 196 88q77 86 77 202zM537 262q0 -76 -53 -129t-129 -53t-129 53t-53 129t53 129t129 53t129 -53t53 -129z" />
<glyph unicode="&#xff;" horiz-adv-x="582" d="M566 535h-117l-159 -391l-157 391h-116l215 -535l-31 -77q-6 -18 -30 -18q-8 0 -21.5 3.5t-33.5 10.5v-110q19 -7 32 -9.5t23 -2.5q96 0 132 89v-1zM258 639q0 23 -15.5 38.5t-38.5 15.5t-38.5 -15.5t-15.5 -38.5t15.5 -39t38.5 -16t38.5 16t15.5 39zM433 639 q0 23 -15.5 38.5t-38.5 15.5t-38.5 -15.5t-15.5 -38.5t15.5 -39t38.5 -16t38.5 16t15.5 39z" />
<glyph unicode="&#x131;" d="M173 -11v546h-108v-546h108z" />
<glyph unicode="&#x152;" horiz-adv-x="1179" d="M1114 -11v109h-315v198h227v108h-227v198h315v108h-424v-95q-108 113 -269 113q-156 0 -267 -111q-111 -113 -111 -267q0 -156 111 -267t267 -111q161 0 269 112v-95h424zM690 350q0 -112 -78 -191q-81 -79 -191 -79t-191 79q-79 81 -79 191t79 191q79 78 191 78 q111 0 191 -78q78 -80 78 -191z" />
<glyph unicode="&#x153;" horiz-adv-x="1139" d="M1096 262q0 119 -85 205q-86 86 -205 86q-71 0 -133 -32.5t-103 -90.5q-42 58 -104 90.5t-133 32.5q-119 0 -204 -86q-86 -86 -86 -205t86 -204q85 -86 204 -86q71 0 133 32.5t104 89.5q41 -57 103 -89.5t133 -32.5q68 0 130 32.5t107 90.5l-91 59q-62 -74 -146 -74 q-63 0 -114 40q-44 35 -59 88h458q3 17 4 30t1 24zM515 262q0 -76 -53 -129t-129 -53t-129 53t-53 129t53 129t129 53t129 -53t53 -129zM692 405q51 39 114 39t113 -39q44 -35 60 -88h-346q15 51 59 88z" />
<glyph unicode="&#x160;" horiz-adv-x="693" d="M637 189q0 131 -128 179q-28 5 -54 11t-53 12q-28 6 -55.5 11.5t-54.5 11.5q-110 24 -110 99q0 53 56 82h-1q48 24 109 24q62 0 109 -25q56 -28 56 -92h108q0 112 -91 173q-79 53 -182 53q-102 0 -182 -53q-91 -62 -91 -162q0 -136 130 -184q53 -12 107 -22h-1 q28 -6 55 -11.5t55 -10.5h-1q110 -24 110 -96q0 -57 -62 -86q-51 -23 -120 -23q-67 0 -119 23q-63 28 -63 96h-108q0 -114 100 -175q82 -52 190 -52q107 0 191 51q100 61 100 166zM472 885h-78l-48 -56l-47 56h-78l84 -126h83z" />
<glyph unicode="&#x161;" horiz-adv-x="570" d="M514 144q0 104 -95 142h1q-8 5 -167 35q-80 17 -80 60q0 32 38 49q31 14 74 14q23 0 41 -3.5t34 -10.5q37 -17 37 -60h109q0 92 -75 141q-63 42 -146 42t-146 -42q-74 -48 -74 -130q0 -105 95 -143q8 -3 49 -11.5t117 -23.5q80 -17 80 -59q0 -64 -121 -64 q-24 0 -43.5 3.5t-35.5 9.5q-42 16 -42 62h-108q0 -94 79 -143q66 -40 150 -40q83 0 151 40q78 49 78 132zM410 710h-78l-47 -56l-47 56h-78l84 -126h82z" />
<glyph unicode="&#x178;" horiz-adv-x="665" d="M654 710h-134l-188 -265l-187 265h-134l267 -378v-343h109v343zM299 814q0 23 -15.5 38.5t-38.5 15.5t-38.5 -15.5t-15.5 -38.5t15.5 -39t38.5 -16t38.5 16t15.5 39zM474 814q0 23 -15.5 38.5t-38.5 15.5t-38.5 -15.5t-15.5 -38.5t15.5 -39t38.5 -16t38.5 16t15.5 39z " />
<glyph unicode="&#x17d;" horiz-adv-x="693" d="M637 -11v109h-429l429 511v101h-581v-108h429l-429 -511v-102h581zM472 885h-78l-48 -56l-47 56h-78l84 -126h83z" />
<glyph unicode="&#x17e;" horiz-adv-x="605" d="M549 -11v109h-335l335 336v101h-493v-108h335l-335 -336v-102h493zM428 710h-78l-47 -56l-48 56h-77l84 -126h82z" />
<glyph unicode="&#x192;" horiz-adv-x="539" d="M500 703q-42 25 -79 25q-59 0 -105 -42q-46 -40 -55 -98l-27 -184h-87l-15 -108h88l-50 -356q-2 -14 -14 -24.5t-26 -10.5q-5 0 -12 4t-16 10l-64 -96q41 -26 80 -26q58 0 105 42q46 40 55 98l50 359h88l15 108h-87l25 180q2 15 14 25.5t26 10.5q11 0 28 -14z" />
<glyph unicode="&#x2c6;" horiz-adv-x="360" d="M305 584l-84 126h-82l-84 -126h78l47 57l47 -57h78z" />
<glyph unicode="&#x2c7;" horiz-adv-x="360" d="M305 710h-78l-47 -56l-47 56h-78l84 -126h82z" />
<glyph unicode="&#x2d8;" horiz-adv-x="1029" d="M923 571v128h-270v-201h139v-47h43v138h-43v-47h-94v113h176l7 -84h42zM964 98q0 72 -74 96q51 25 51 81q0 17 -5 29.5t-13 23.5h3v128h-43v-85h-270v171h-210v114h48v44h-378l-8 -96h44v52h104v-285h-127v-371h750q51 0 86 24q42 27 42 74zM917 105q0 -40 -39 -53 q-11 -5 -29 -7t-42 -2h-123l-118 285h242q35 0 56 -11q30 -14 30 -45q0 -26 -26 -44q-11 -7 -24 -11t-28 -4h-103v-43h94q110 0 110 -65zM635 44h-505v284h128v328h98v-157h212v-127h-48v-44h1l69 -170h-175l-19 -43h210zM412 211v162h-56v-162h56z" />
<glyph unicode="&#x2da;" horiz-adv-x="343" d="M278 604q0 22 -8.5 41.5t-22.5 33.5t-34 22.5t-42 8.5q-45 0 -75.5 -30.5t-30.5 -75.5q0 -23 8.5 -42.5t22.5 -33.5t33.5 -22.5t41.5 -8.5t42 8.5t34 22.5t22.5 33.5t8.5 42.5zM222 604q0 -21 -15 -36t-36 -15t-35.5 15t-14.5 36t14.5 35.5t35.5 14.5t36 -14.5t15 -35.5z " />
<glyph unicode="&#x2dc;" horiz-adv-x="416" d="M346 679l-61 32q-14 -47 -23 -47q-18 0 -54 21q-38 25 -64 25q-55 0 -82 -92l69 -37q14 47 23 47q21 0 53 -22q21 -11 37 -17.5t28 -6.5q54 0 79 85z" />
<glyph unicode="&#x2013;" horiz-adv-x="413" d="M348 217v91h-283v-91h283z" />
<glyph unicode="&#x2014;" horiz-adv-x="588" d="M523 217v91h-458v-91h458z" />
<glyph unicode="&#x2018;" horiz-adv-x="273" d="M208 444v144h-87q2 28 17 47t35 19v56q-52 0 -81 -40q-27 -38 -27 -93v-133h143z" />
<glyph unicode="&#x2019;" horiz-adv-x="273" d="M208 577v133h-143v-143h86q-2 -29 -16.5 -48t-34.5 -19v-56q53 0 80 41q28 37 28 92z" />
<glyph unicode="&#x201a;" horiz-adv-x="273" d="M208 0v133h-143v-144h86q-2 -27 -16.5 -46.5t-34.5 -19.5v-56q52 0 80 40q28 38 28 93z" />
<glyph unicode="&#x201c;" horiz-adv-x="465" d="M401 444v144h-88q3 28 18 47t35 19v56q-51 0 -82 -40q-13 -19 -20 -42t-7 -51v-133h144zM208 444v144h-87q2 28 17 47t35 19v56q-52 0 -81 -40q-27 -38 -27 -93v-133h143z" />
<glyph unicode="&#x201d;" horiz-adv-x="465" d="M401 577v133h-144v-143h87q-3 -29 -17.5 -48t-34.5 -19v-56q52 0 81 41q28 37 28 92zM208 577v133h-143v-143h86q-2 -29 -16.5 -48t-34.5 -19v-56q53 0 80 41q28 37 28 92z" />
<glyph unicode="&#x201e;" horiz-adv-x="465" d="M401 0v133h-144v-144h87q-3 -27 -17.5 -46.5t-34.5 -19.5v-56q52 0 81 40q28 38 28 93zM208 0v133h-143v-144h86q-2 -27 -16.5 -46.5t-34.5 -19.5v-56q52 0 80 40q28 38 28 93z" />
<glyph unicode="&#x2020;" horiz-adv-x="509" d="M444 427v108h-135v175h-109v-175h-135v-108h135v-613h109v613h135z" />
<glyph unicode="&#x2021;" horiz-adv-x="509" d="M444 164v109h-135v154h135v108h-135v175h-109v-175h-135v-108h135v-154h-135v-109h135v-350h109v350h135z" />
<glyph unicode="&#x2022;" horiz-adv-x="465" d="M401 262q0 35 -12.5 64t-37.5 55q-49 49 -118 49t-118 -49q-50 -50 -50 -119q0 -68 50 -118t118 -50q69 0 118 49q50 52 50 119z" />
<glyph unicode="&#x2026;" horiz-adv-x="728" d="M663 61q0 30 -20.5 51t-51.5 21q-30 0 -50.5 -21t-20.5 -51t20.5 -51t50.5 -21q31 0 51.5 21t20.5 51zM208 61q0 30 -20.5 51t-51.5 21q-30 0 -50.5 -21t-20.5 -51t20.5 -51t50.5 -21q31 0 51.5 21t20.5 51zM436 61q0 30 -21 51t-51 21t-51 -21t-21 -51t21 -51t51 -21 t51 21t21 51z" />
<glyph unicode="&#x2030;" horiz-adv-x="1297" d="M1232 157q0 76 -55 131t-131 55t-131 -55q-54 -54 -54 -131t54 -131t131 -54t131 54q55 55 55 131zM829 157q0 76 -55 131q-54 55 -130 55q-77 0 -131 -55q-55 -55 -55 -131t55 -131q53 -54 131 -54q77 0 130 54q55 55 55 131zM436 542q0 74 -55 131q-55 55 -131 55 t-131 -55q-54 -54 -54 -131t54 -131t131 -54t131 54q55 57 55 131zM815 710h-115l-621 -721h115zM738 157q0 -40 -27 -67t-67 -27t-67 27q-28 28 -28 67q0 40 28 68q27 27 67 27t67 -27t27 -68zM1141 157q0 -38 -27 -67q-29 -27 -68 -27q-38 0 -67 27q-27 29 -27 67 q0 39 27 68q29 27 67 27q39 0 68 -27q27 -29 27 -68zM345 542q0 -38 -27 -67q-29 -27 -68 -27t-66 27q-28 28 -28 67q0 40 27 67q28 28 67 28t68 -27q27 -29 27 -68z" />
<glyph unicode="&#x2039;" horiz-adv-x="395" d="M334 192l-165 112l165 112l-51 76l-218 -147v-83l218 -147z" />
<glyph unicode="&#x203a;" horiz-adv-x="395" d="M330 262v83l-219 147l-51 -76l166 -112l-166 -112l51 -77z" />
<glyph unicode="&#x20ac;" horiz-adv-x="818" d="M755 651q-105 77 -229 77q-122 0 -222 -73q-96 -69 -135 -181h-75l-34 -91h89q-1 -8 -1 -17v-16v-17t1 -16h-55l-34 -91h109q39 -113 135 -182q97 -72 222 -72q50 0 99 13.5t97 42.5v135q-95 -83 -196 -83q-81 0 -146 44q-31 20 -53.5 45.5t-39.5 56.5h313l33 91h-375 q-2 8 -2 16v17v16q0 9 2 17h400l33 91h-404q17 31 39.5 56.5t53.5 45.5q65 43 146 43q101 0 190 -77z" />
<glyph unicode="&#x2122;" horiz-adv-x="787" d="M723 322v388h-103l-91 -250l-91 250h-373v-82h113v-306h83v306h75v-306h82v205l75 -205h73l74 204v-204h83z" />
<glyph unicode="&#x2212;" horiz-adv-x="500" d="M436 217v91h-371v-91h371z" />
<glyph unicode="&#x25fc;" horiz-adv-x="535" d="M0 535h535v-535h-535v535z" />
</font>
</defs>
</svg>
