<?xml version="1.0" standalone="no"?>
<!DOCTYPE svg PUBLIC "-//W3C//DTD SVG 1.1//EN" "http://www.w3.org/Graphics/SVG/1.1/DTD/svg11.dtd" >
<svg xmlns="http://www.w3.org/2000/svg" xmlns:xlink="http://www.w3.org/1999/xlink" version="1.1">
<metadata></metadata>
<defs>
<font id="wdb_bangnaregular" horiz-adv-x="562" >
<font-face units-per-em="1000" ascent="800" descent="-200" />
<missing-glyph horiz-adv-x="337" />
<glyph unicode="&#x3b;&#x3b;For&#x20;Education&#x20;Used&#x20;Only&#x3b;&#x3b;" horiz-adv-x="815" d="M408 631q76 0 143 -29t116.5 -79t78.5 -117t29 -143t-29 -143t-78.5 -116.5t-116.5 -78.5t-143 -29t-143 29t-117 78.5t-79 116.5t-29 143t29 143t79 117t117 79t143 29zM408 -57q66 0 124 25t101.5 68.5t68.5 102t25 124.5t-25 124t-68.5 101.5t-101.5 68.5t-124 25 t-124.5 -25t-102 -68.5t-68.5 -101.5t-25 -124t25 -124.5t68.5 -102t102 -68.5t124.5 -25zM408 48q36 0 67.5 13.5t55 37t37 55t13.5 67.5h48q0 -46 -17.5 -86t-47.5 -70t-70 -47.5t-86 -17.5t-86 17.5t-70 47.5t-47.5 70t-17.5 86v84q0 46 17.5 86.5t47.5 70.5t70 47.5 t86 17.5t86 -17.5t70 -47.5t47.5 -70t17.5 -86h-48q0 36 -13.5 67.5t-37 55t-55 37t-67.5 13.5t-67.5 -13.5t-55 -37.5t-37 -55.5t-13.5 -67.5v-84q0 -36 13.5 -67.5t37 -55t55 -37t67.5 -13.5z" />
<glyph unicode="&#x3b;&#x3b;Registered&#x3b;&#x3b;" horiz-adv-x="815" d="M407 631q76 0 143 -29t117 -79t79 -117t29 -143t-29 -142.5t-79 -116.5t-117 -79t-143 -29t-142.5 29t-116.5 79t-79 116.5t-29 142.5t29 143t79 117t116.5 79t142.5 29zM407 -56q66 0 124.5 25t102 68.5t68.5 101.5t25 124t-25 124t-68.5 101.5t-102 69t-124.5 25.5 t-124 -25.5t-101.5 -69t-68.5 -101.5t-25 -124t25 -124t68.5 -101.5t101.5 -68.5t124 -25zM636 379q-5 -56 -46 -94h1q-26 -25 -62 -34l86 -227l-45 -17l-91 239h-12h-6h-1h-47h-88h-37v-191v-48h-48v48v191v48v192v48h30h19h124h48h31h7q28 -1 53.5 -12.5t44 -31t29.5 -45 t11 -54.5q0 -3 -0.5 -6t-0.5 -6zM588 390v1q0 19 -7.5 36.5t-20.5 30.5t-30.5 20.5t-36.5 7.5h-1h-31h-48h-97h-28v-192h28h97h47h1h31h1q19 0 38 8q24 11 39.5 32.5t17.5 48.5v7z" />
<glyph unicode="&#x3b;&#x3b;Trademark&#x3b;&#x3b;" horiz-adv-x="608" d="M139 630h64h16v-16v-16v-16h-16h-49v-249v-16h-16h-16h-16v16v249h-50h-16v16v16v16h16h67h16zM532 630h16v-16v-281v-16h-16h-16h-16v16v136l-48 -141l-3 -11h-12h-1h-16h-1h-11l-4 11l-50 143v-138v-16h-16h-16h-16v16v281v16h16h17h11l4 -11l74 -213l72 211v13h16h16z " />
<glyph unicode="&#x3b;&#x3b;Multiply&#x3b;&#x3b;" horiz-adv-x="435" d="M341 480l34 -34l-123 -123l123 -123l-34 -34l-123 123l-124 -123l-34 34l124 123l-124 123l34 34l124 -123l123 123v0z" />
<glyph unicode="&#x3b;&#x3b;Divide&#x3b;&#x3b;" horiz-adv-x="433" d="M252 412q0 -15 -10.5 -25.5t-25.5 -10.5t-25.5 10.5t-10.5 25.5t10.5 25.5t25.5 10.5t25.5 -10.5t10.5 -25.5zM252 234q0 -15 -10.5 -25.5t-25.5 -10.5t-25.5 10.5t-10.5 25.5t10.5 25.5t25.5 10.5t25.5 -10.5t10.5 -25.5zM60 299v48h313v-48h-313z" />
<glyph unicode="&#x2018;&#x2018;" horiz-adv-x="290" d="M158 548q1 8 2.5 15.5t4.5 14.5q4 11 11 19t15 16q9 7 18 11q1 0 11 4q4 2 10 3v-50q-12 -6 -21 -21q21 -10 21 -32q0 -15 -10.5 -25.5t-25.5 -10.5q-9 0 -15 3q-11 5 -15 13.5t-6 19.5v20zM60 548q1 8 2.5 15.5t4.5 14.5q4 11 11 19t15 16q9 7 18 11q1 0 11 4q4 2 10 3 v-50q-12 -6 -21 -21q21 -10 21 -32q0 -15 -10.5 -25.5t-25.5 -10.5q-9 0 -15 3q-11 5 -15 13.5t-6 19.5v20z" />
<glyph unicode="&#x2019;&#x2019;" horiz-adv-x="290" d="M132 574q-1 -7 -2.5 -14.5t-3.5 -14.5q-7 -20 -27 -35q-8 -8 -18 -12q-1 -1 -11 -3q-4 -1 -10 -3v50q15 7 21 20q-21 10 -21 33q0 15 10.5 25.5t25.5 10.5q7 0 15 -4q11 -5 15.5 -13t5.5 -19v-21zM230 574q-1 -7 -2.5 -14.5t-3.5 -14.5q-7 -20 -27 -35q-8 -8 -18 -12 q-1 -1 -11 -3q-4 -1 -10 -3v50q15 7 21 20q-21 10 -21 33q0 15 10.5 25.5t25.5 10.5q7 0 15 -4q11 -5 15.5 -13t5.5 -19v-21z" />
<glyph unicode="&#xe24;&#xe32;" horiz-adv-x="962" d="M681 631q46 0 86 -17.5t70 -47.5t47.5 -70t17.5 -86v-678h-48v678q0 36 -13.5 67.5t-37 55t-55 37t-67.5 13.5t-67 -13.5t-54.5 -37t-37.5 -54.5t-14 -67v-1v-410v-268h-48v268v410v2q0 35 -14 66t-37.5 54.5t-54.5 37t-67 13.5q-54 0 -96 -28.5t-62 -74.5l-21 -42l6 -40 v-201v-61v-42q0 -25 9 -46h48h76v-48h-76h-74q-1 1 -1 1.5t-1 1.5q-6 8 -10.5 17t-8.5 18q-10 26 -10 56v316l-6 40l27 54l3 6q27 54 79.5 87.5t117.5 33.5t117 -33.5t80 -87.5q27 54 79.5 87.5t117.5 33.5z" />
<glyph unicode="&#xe26;&#xe32;" horiz-adv-x="953" d="M672 631q46 0 86 -17.5t70 -47.5t47.5 -70t17.5 -86v-678h-48v678q0 36 -13.5 67.5t-37 55t-55 37t-67.5 13.5q-35 0 -65.5 -13t-53.5 -35t-37.5 -51.5t-16.5 -63.5v-7v-3v-410v-268h-48v268v410v9q-1 34 -15 64t-37.5 52t-54.5 35t-66 13q-53 0 -95.5 -28t-62.5 -73 l-21 -42l6 -39v1v-355v-39v-8h-105v47h57v366l-6 39l27 54l3 6q28 54 80 86.5t117 32.5t117.5 -33t79.5 -87q28 54 80 87t117 33z" />
<glyph unicode="&#xd;" horiz-adv-x="283" />
<glyph unicode=" "  horiz-adv-x="337" />
<glyph unicode="&#x09;" horiz-adv-x="337" />
<glyph unicode="&#xa0;" horiz-adv-x="337" />
<glyph unicode="!" horiz-adv-x="192" d="M132 36q0 -15 -10.5 -25.5t-25.5 -10.5t-25.5 10.5t-10.5 25.5t10.5 25.5t25.5 10.5t25.5 -10.5t10.5 -25.5zM121 112h-48v568h48v-568z" />
<glyph unicode="&#x22;" horiz-adv-x="263" d="M108 542h-48v132h48v-132v0zM203 542h-48v132h48v-132v0z" />
<glyph unicode="#" horiz-adv-x="388" d="M368 356h-74l-27 -61h66v-48h-88l-33 -74l-44 20l24 54h-67l-33 -74l-44 20l25 54h-53v48h74l28 61h-67v48h89l33 74l44 -20l-25 -54h67l33 73l44 -19l-24 -54h52v-48zM214 295l27 61h-66l-28 -61h67z" />
<glyph unicode="$" horiz-adv-x="563" d="M407 259q28 -8 49 -26t34 -43q13 -29 13 -58q0 -27 -10.5 -51t-28.5 -42t-42 -28.5t-51 -10.5h-65v-61h-48v61h-67v1q-27 0 -51 10t-42 28t-28 42t-10 51h48q0 -35 24.5 -59t58.5 -24v-1h67h48h65q35 0 59 24.5t24 59.5q0 29 -17.5 51t-43.5 30l-5 1l-17 4l-201 47 q-5 1 -8.5 2t-8.5 2q-55 17 -80 69q-13 28 -13 57q0 27 10 51t28 42t42 28.5t51 10.5h67v61h48v-61h65q27 0 51 -10.5t42 -28.5t28.5 -42t10.5 -51h-48h-1q0 17 -6.5 32.5t-17.5 27t-26 18t-33 6.5h-65h-48h-67q-17 0 -32.5 -6.5t-26.5 -18t-17.5 -26.5t-6.5 -33 q0 -28 16 -49.5t41 -29.5l14 -3l12 -3l205 -49q5 0 11 -2z" />
<glyph unicode="%" horiz-adv-x="349" d="M201 250q-12 -27 -1.5 -55t37.5 -40t55 -1.5t40 37.5q13 27 2.5 55t-37.5 40q-28 13 -55.5 2.5t-40.5 -38.5zM288 211q-5 -9 -14 -12.5t-18 0.5q-9 5 -12.5 14t0.5 18q5 9 14 12.5t18 -0.5q9 -5 12.5 -14t-0.5 -18zM17 490q-12 -27 -1.5 -55t37.5 -40t55 -1.5t40 37.5 q13 27 2.5 55t-37.5 40q-28 13 -55.5 2.5t-40.5 -38.5zM104 451q-5 -9 -14 -12.5t-18 0.5q-9 5 -12.5 14t0.5 18q5 9 14 12.5t18 -0.5q9 -5 12.5 -14t-0.5 -18zM77 67l-44 20l240 527l43 -19z" />
<glyph unicode="&#x26;" horiz-adv-x="700" d="M640 14l-20 -14l-19 -14l-91 128l-86 -61q-7 -6 -14.5 -11.5t-15.5 -10.5q-5 -3 -10.5 -6t-10.5 -5q-43 -20 -92 -20q-46 0 -86 17.5t-70 47.5t-47.5 70t-17.5 86q0 43 15.5 81.5t41.5 67.5l3.5 3.5l3.5 3.5l57 41l76 56l-57 81l-28 39v1q-18 34 -18 76q0 35 13.5 66 t36.5 54t53.5 36.5t65.5 13.5t66 -13.5t54 -36.5t36.5 -54t13.5 -66q0 -34 -12.5 -64t-33.5 -53q-3 -2 -9 -8l-31 -23l-84 -60l21 -30l158 -223l20 -28l63 45l14 -19l14 -20l-64 -46zM294 504q3 0 4 -1l84 61l25 19q17 17 27.5 39.5t10.5 48.5q0 25 -9.5 47.5t-26 39t-39 26 t-47.5 9.5t-47 -9.5t-38.5 -26t-26 -39t-9.5 -47.5q0 -29 12 -53l22 -32zM483 154l-31 43l-136 194l-31 43l-80 -58l-48 -34q-23 -24 -36 -55t-13 -66q0 -36 13.5 -67.5t37 -55t55 -37t67.5 -13.5q24 0 45.5 6.5t41.5 17.5l26 18z" />
<glyph unicode="'" horiz-adv-x="168" d="M108 542h-48v132h48v-132z" />
<glyph unicode="(" horiz-adv-x="282" d="M282 -92q-46 0 -86 17.5t-70 47.5t-47.5 70t-17.5 86h-1v583h1q0 46 17.5 86t47.5 70t70 47.5t86 17.5v-48q-36 0 -67.5 -13.5t-55 -37t-37 -55t-13.5 -67.5h-1v-583h1q0 -36 13.5 -67.5t37 -55t54.5 -37t67 -13.5h1v-48z" />
<glyph unicode=")" horiz-adv-x="282" d="M0 -44h1q36 0 67 13.5t54.5 37t37 55t13.5 67.5h1v583h-1q0 36 -13.5 67.5t-37 55t-55 37t-67.5 13.5v48q46 0 86 -17.5t70 -47.5t47.5 -70t17.5 -86h1v-583h-1q0 -46 -17.5 -86t-47.5 -70t-70 -47.5t-86 -17.5v48z" />
<glyph unicode="*" horiz-adv-x="517" d="M457 347v-48h-140l99 -99l-34 -34l-99 99v-141h-48v141l-100 -99l-34 34l100 99h-141v48h141l-100 99l34 34l100 -99v140h48v-140l99 99l34 -34l-99 -99h140v0z" />
<glyph unicode="+" horiz-adv-x="433" d="M373 347v-48h-133v-133h-48v133h-132v48h132v132h48v-132h133v0z" />
<glyph unicode="," horiz-adv-x="193" d="M132 36v-21.5t-4 -21.5q-7 -23 -25.5 -39t-42.5 -21v50q15 7 21 20q-21 10 -21 33q0 15 10.5 25.5t25.5 10.5t25.5 -10.5t10.5 -25.5z" />
<glyph unicode="-" horiz-adv-x="467" d="M60 257v48h347v-48h-347v0z" />
<glyph unicode="." horiz-adv-x="192" d="M132 36q0 -15 -10.5 -25.5t-25.5 -10.5t-25.5 10.5t-10.5 25.5t10.5 25.5t25.5 10.5t25.5 -10.5t10.5 -25.5z" />
<glyph unicode="/" horiz-adv-x="438" d="M34 -70l-44 20l414 901l44 -20l-414 -901v0z" />
<glyph unicode="0" d="M502 221q0 -46 -17 -86t-47 -70t-70.5 -47.5t-86.5 -17.5t-86 17.5t-70 47.5t-47.5 70t-17.5 86v291q0 46 17.5 86t47.5 70t70 47.5t86 17.5t86.5 -17.5t70.5 -47.5t47 -70t17 -86v-291zM281 48q36 0 67.5 13.5t55 37t37 55t13.5 67.5v291q0 36 -13.5 67.5t-37 55t-55 37 t-67.5 13.5t-67.5 -13.5t-55 -37t-37 -55t-13.5 -67.5v-291q0 -36 13.5 -67.5t37 -55t55 -37t67.5 -13.5z" />
<glyph unicode="1" horiz-adv-x="291" d="M180 733h1v-733h-48v625q-15 -14 -33.5 -23t-39.5 -13v50q32 8 52 34t20 60h48z" />
<glyph unicode="2" horiz-adv-x="565" d="M505 48v-48h-445v48l245 244l90 90l16 15q20 23 31.5 52.5t11.5 62.5q0 36 -13.5 67.5t-37 55t-55 37t-67.5 13.5t-67.5 -13.5t-55 -37t-37 -55t-13.5 -67.5h-48q0 46 17.5 86t47.5 70t70 47.5t86 17.5t86 -17.5t70 -47.5t47.5 -70t17.5 -86v-12.5t-1 -12.5 q-4 -35 -18 -65.5t-36 -55.5q-10 -11 -21 -21l-298 -297h377z" />
<glyph unicode="3" d="M401 367q45 -25 73 -70t28 -101q0 -41 -17.5 -76.5t-46 -61.5t-66.5 -41.5t-78 -15.5q-46 0 -88 17.5t-74.5 47.5t-52 70t-19.5 86h48q0 -36 15.5 -67.5t41.5 -55t59.5 -37t69.5 -13.5q30 0 59 11.5t51.5 31.5t36 47t13.5 57q0 29 -10.5 54.5t-29 45.5t-43 32.5 t-52.5 14.5h-36v48h24h7h3q28 2 53 14t44 32t29.5 46t10.5 55q0 30 -13.5 57t-36 47t-51.5 31.5t-59 11.5q-36 0 -69.5 -13.5t-59.5 -37t-41.5 -55t-15.5 -67.5h-48q0 46 19.5 86t52 70t74.5 47.5t88 17.5q40 0 78 -15.5t66.5 -41.5t46 -62t17.5 -76q0 -56 -28 -101t-73 -70 z" />
<glyph unicode="4" horiz-adv-x="592" d="M484 126h48v-48h-48v-78h-48v78h-372h-24v48v0v0v0l396 607h1h12h35v-607zM97 126h339v519z" />
<glyph unicode="5" horiz-adv-x="565" d="M283 527q46 0 86.5 -17.5t70.5 -47.5t47.5 -70.5t17.5 -86.5v-83q0 -46 -17.5 -86.5t-47.5 -70.5t-70.5 -47.5t-86.5 -17.5t-86.5 17.5t-70.5 47.5t-48 70.5t-18 86.5h49q0 -36 13.5 -67.5t37.5 -55.5t55.5 -37.5t67.5 -13.5t67.5 13.5t55.5 37.5t37.5 55.5t13.5 67.5v83 q0 36 -13.5 67.5t-37.5 55.5t-55.5 37.5t-67.5 13.5t-67.5 -13.5t-55.5 -37.5t-37.5 -55.5t-13.5 -67.5h-49h1v428h48h396v-48h-396v-242q30 38 75 61t99 23z" />
<glyph unicode="6" d="M281 442q46 0 86 -17.5t70 -47.5t47.5 -70t17.5 -86t-17.5 -86t-47.5 -70t-70 -47.5t-86 -17.5q-38 0 -72 12t-62 33.5t-48.5 50.5t-30.5 64q-8 30 -8 61q0 45 17 85v1l177 426h52l-132 -319q48 28 107 28zM454 221q0 36 -13.5 67.5t-37 55t-55 37t-67.5 13.5 t-67.5 -13.5t-55 -37t-37 -55t-13.5 -67.5t13.5 -67.5t37 -55t55 -37t67.5 -13.5t67.5 13.5t55 37t37 55t13.5 67.5z" />
<glyph unicode="7" horiz-adv-x="545" d="M485 685v0l-284 -685h-52l284 685h-373h-20v48h445v-48v0z" />
<glyph unicode="8" d="M374 422q57 -26 92.5 -80t35.5 -121q0 -46 -17.5 -86t-47.5 -70t-70 -47.5t-86 -17.5t-86 17.5t-70 47.5t-47.5 70t-17.5 86q0 33 9.5 64t26.5 57t40.5 46.5t52.5 33.5q-35 23 -56 60t-21 82q0 35 13.5 65.5t36.5 53.5t53.5 36.5t65.5 13.5t65.5 -13.5t53.5 -36.5 t36.5 -53.5t13.5 -65.5q0 -45 -20.5 -82t-55.5 -60zM160 564q0 -25 9 -47t25 -38.5t37.5 -26t45.5 -10.5h4h4q24 1 45.5 10.5t37.5 26t25 38.5t9 47t-9.5 47t-26 38.5t-38.5 26t-47 9.5t-47 -9.5t-38.5 -26t-26 -38.5t-9.5 -47zM454 221q0 36 -13.5 67.5t-37 55t-55 37 t-67.5 13.5t-67.5 -13.5t-55 -37t-37 -55t-13.5 -67.5t13.5 -67.5t37 -55t55 -37t67.5 -13.5t67.5 13.5t55 37t37 55t13.5 67.5z" />
<glyph unicode="9" d="M281 291q-46 0 -86 17.5t-70 47.5t-47.5 70t-17.5 86t17.5 86t47.5 70t70 47.5t86 17.5q38 0 72 -12t62 -33.5t48 -51t30 -64.5q9 -29 9 -60q0 -44 -17 -86h-1l-176 -426h-52l132 318q-24 -13 -51 -20t-56 -7zM108 512q0 -36 13.5 -67.5t37 -55t55 -37t67.5 -13.5 t67.5 13.5t55 37t37 55t13.5 67.5t-13.5 67.5t-37 55t-55 37t-67.5 13.5t-67.5 -13.5t-55 -37t-37 -55t-13.5 -67.5z" />
<glyph unicode=":" horiz-adv-x="192" d="M132 456q0 -15 -10.5 -25.5t-25.5 -10.5t-25.5 10.5t-10.5 25.5t10.5 25.5t25.5 10.5t25.5 -10.5t10.5 -25.5zM132 159q0 -15 -10.5 -25.5t-25.5 -10.5t-25.5 10.5t-10.5 25.5t10.5 25.5t25.5 10.5t25.5 -10.5t10.5 -25.5z" />
<glyph unicode=";" horiz-adv-x="193" d="M132 456q0 -15 -10.5 -25.5t-25.5 -10.5t-25.5 10.5t-10.5 25.5t10.5 25.5t25.5 10.5t25.5 -10.5t10.5 -25.5zM132 149q0 15 -10.5 25.5t-25.5 10.5t-25.5 -10.5t-10.5 -25.5q0 -23 21 -33q-6 -13 -21 -20v-50q24 5 42.5 21t25.5 39q4 11 4 21.5v21.5z" />
<glyph unicode="&#x3c;" horiz-adv-x="375" d="M60 319v0v0l34 34v0l187 187l34 -34l-187 -187l187 -188l-34 -34l-187 188v0l-34 34v0z" />
<glyph unicode="=" horiz-adv-x="433" d="M60 249v48h313v-48h-313v0zM60 348v48h313v-48h-313v0z" />
<glyph unicode="&#x3e;" horiz-adv-x="375" d="M315 319v0v0l-34 -34v0l-187 -188l-34 34l187 188l-187 187l34 34l187 -187v0l34 -34v0z" />
<glyph unicode="?" horiz-adv-x="412" d="M249 36q0 -15 -10.5 -25.5t-25.5 -10.5t-25.5 10.5t-10.5 25.5t10.5 25.5t25.5 10.5t25.5 -10.5t10.5 -25.5zM352 534q0 -43 -16 -83.5t-48 -72.5q-24 -24 -37.5 -55.5t-13.5 -67.5v-143h-48v143q0 46 17 86t47 70q26 26 38.5 57.5t12.5 65.5q0 41 -28 69.5t-70 28.5 q-41 0 -69 -28.5t-28 -69.5h-49q0 30 11.5 57t31 46.5t46.5 31t57 11.5t57 -11.5t46.5 -31t31 -46.5t11.5 -57z" />
<glyph unicode="@" horiz-adv-x="815" d="M775 263q0 -103 -46 -144q-26 -24 -63 -24q-3 0 -6 0.5t-6 0.5q-28 3 -44 21q-5 -9 -10.5 -17.5t-12.5 -16.5v1q-26 -34 -64 -56t-83 -27h-6h-1q-3 0 -5 -1h-1h-6h-1h-6h-63q-33 0 -61.5 12.5t-49.5 34t-33.5 50t-12.5 61.5q0 48 24 84q29 48 82 65q3 2 6.5 2.5t6.5 1.5 l165 49l25 7l12 3q26 11 44 30q-23 35 -61 57t-84 22q-36 0 -67.5 -13.5t-55 -37t-37 -55t-13.5 -67.5h-48q0 46 17.5 86t47.5 70t70 47.5t86 17.5q52 0 96 -21.5t74 -58.5q10 -11 17.5 -23.5t14.5 -26.5h-1q20 -43 20 -91v-77v-8v-11q0 -5 -0.5 -9.5t-1.5 -9.5q0 -9 2 -20 t8 -19q5 -6 16 -8q22 -3 38 10q14 14 22.5 42t8.5 67q0 67 -25 125.5t-68.5 102t-102 68.5t-124.5 25t-124.5 -25t-102 -68.5t-69 -102t-25.5 -125.5q0 -66 25.5 -124.5t69 -102t102 -68.5t124.5 -25t124 25t102 69l33 -33q-50 -51 -116.5 -79.5t-143.5 -28.5 q-76 0 -142.5 29t-116.5 79t-79 116.5t-29 142.5t29 143t79 117t116.5 79t142.5 29t143 -29t117 -79t79 -117t29 -143zM457 53q51 14 85.5 51.5t42.5 89.5q1 5 1 8t1 4v15v85q0 25 -6 48q-23 -20 -52 -29q-3 -2 -6.5 -2.5t-7.5 -2.5l-164 -48l-28 -8l-5 -1 q-33 -11 -54.5 -39.5t-21.5 -65.5q0 -23 8.5 -42.5t23.5 -34.5t34.5 -24t42.5 -9h63q21 0 43 5z" />
<glyph unicode="A" horiz-adv-x="582" d="M492 0l-47 159h-308l-47 -159h-50l215 733h36h36l215 -733h-50zM151 207h280l-140 478z" />
<glyph unicode="B" horiz-adv-x="590" d="M421 379q28 -10 51.5 -28t41 -42t27 -53t9.5 -61q0 -41 -15.5 -76.5t-42 -61.5t-62.5 -41.5t-76 -15.5h-246h-48v733h24h24h198q40 0 76 -15.5t62.5 -42t42 -62.5t15.5 -76q0 -49 -22 -90t-59 -68zM108 685v-295h198q31 0 58 11.5t47 31.5t31.5 47t11.5 57q0 31 -11.5 58 t-31.5 47t-47 31.5t-58 11.5h-198zM354 48q31 0 58 11.5t47 31.5t31.5 47t11.5 57q0 31 -11.5 57.5t-32 46.5t-47.5 31.5t-57 11.5h-246v-294h246z" />
<glyph unicode="C" d="M281 733q46 0 86 -17.5t70 -47.5t47.5 -70t17.5 -86h-48q0 36 -13.5 67.5t-37 55t-55 37t-67.5 13.5t-67.5 -13.5t-55 -37t-37 -55t-13.5 -67.5v-291q0 -36 13.5 -67.5t37 -55t55 -37t67.5 -13.5t67.5 13.5t55 37t37 55t13.5 67.5h48q0 -46 -17.5 -86t-47.5 -70 t-70 -47.5t-86 -17.5t-86 17.5t-70 47.5t-47.5 70t-17.5 86v291q0 46 17.5 86t47.5 70t70 47.5t86 17.5z" />
<glyph unicode="D" d="M281 733q46 0 86 -17.5t70 -47.5t47.5 -70t17.5 -86v-291q0 -46 -17.5 -86t-47.5 -70t-70 -47.5t-86 -17.5h-173h-48v733h48h173zM454 512q0 36 -13.5 67.5t-37 55t-55 37t-67.5 13.5h-173v-637h173q36 0 67.5 13.5t55 37t37 55t13.5 67.5v291z" />
<glyph unicode="E" d="M60 733h48h394v-48h-394v-294h394v-49h-394v-294h394v-48h-442v1v47v294v48v295v48v0z" />
<glyph unicode="F" d="M108 342v-342h-48v342v48v295v48h48h394v-48h-394v-294h394v-49h-394v0z" />
<glyph unicode="G" horiz-adv-x="563" d="M61 221h-1v293q0 46 17.5 86t47.5 70t70.5 47.5t86.5 17.5t86 -17.5t70 -47.5t47.5 -70t17.5 -86h-48q0 36 -13.5 67.5t-37 55t-55 37t-67.5 13.5t-67.5 -13.5t-55 -37t-37 -55t-13.5 -67.5v-293q0 -36 13.5 -67.5t37 -55t55 -37t67.5 -13.5t67.5 13.5t55 37t37 55 t13.5 67.5v123h-173v49h221v-172q0 -46 -17.5 -86t-47.5 -70t-70 -47.5t-86 -17.5t-86.5 17.5t-70.5 47.5t-47.5 70t-17.5 86h1z" />
<glyph unicode="H" horiz-adv-x="563" d="M108 341v-341h-48v341v48v344h48v-343h346v343h49v-344v-48v-341h-49v341h-346v0z" />
<glyph unicode="I" horiz-adv-x="168" d="M60 0v733h48v-733h-48v0z" />
<glyph unicode="J" horiz-adv-x="542" d="M482 221q0 -46 -17.5 -86t-47.5 -70t-70 -47.5t-86 -17.5t-86 17.5t-70 47.5t-47.5 70t-17.5 86h48q0 -36 13.5 -67.5t37 -55t55 -37t67.5 -13.5t67.5 13.5t55 37t37 55t13.5 67.5v512h48v-512z" />
<glyph unicode="K" horiz-adv-x="492" d="M502 733l-329 -366l329 -366h-65l-297 330l-32 -36v-295h-48v733h48v-366l329 366h65v0z" />
<glyph unicode="L" horiz-adv-x="522" d="M108 733v-685h394v-48h-394h-48v48v685h48v0z" />
<glyph unicode="M" horiz-adv-x="750" d="M642 733h48v-733h-48v600l-234 -600h-33h-33l-234 601v-601h-48v733h48l267 -685l267 685v0v0z" />
<glyph unicode="N" d="M454 733h48v-721v-12h-48v0v0l-346 633v-633h-48v733h48l346 -633v633v0z" />
<glyph unicode="O" d="M281 733q46 0 86 -17.5t70 -47.5t47.5 -70t17.5 -86v-291q0 -46 -17.5 -86t-47.5 -70t-70 -47.5t-86 -17.5t-86 17.5t-70 47.5t-47.5 70t-17.5 86v291q0 46 17.5 86t47.5 70t70 47.5t86 17.5zM454 512q0 36 -13.5 67.5t-37 55t-55 37t-67.5 13.5t-67.5 -13.5t-55 -37 t-37 -55t-13.5 -67.5v-291q0 -36 13.5 -67.5t37 -55t55 -37t67.5 -13.5t67.5 13.5t55 37t37 55t13.5 67.5v291z" />
<glyph unicode="P" horiz-adv-x="570" d="M550 537q0 -41 -15.5 -76.5t-42 -61.5t-62.5 -41.5t-76 -15.5v1h-246v-343h-48v733h48h246q40 0 76 -15.5t62.5 -42t42 -62.5t15.5 -76zM502 537q0 31 -11.5 58t-31.5 47t-47 31.5t-58 11.5h-246v-294h246q31 0 58 11.5t47 31t31.5 46.5t11.5 57z" />
<glyph unicode="Q" d="M502 221q0 -47 -18 -88t-50 -71q33 -14 68 -14v-48q-30 0 -58 7.5t-52 21.5q-25 -14 -53 -21.5t-58 -7.5q-46 0 -86 17.5t-70 47.5t-47.5 70t-17.5 86v291q0 46 17.5 86t47.5 70t70 47.5t86 17.5t86 -17.5t70 -47.5t47.5 -70t17.5 -86v-291zM454 512q0 36 -13.5 67.5 t-37 55t-55 37t-67.5 13.5t-67.5 -13.5t-55 -37t-37 -55t-13.5 -67.5v-291q0 -36 13.5 -67.5t37 -55t55 -37t67.5 -13.5t67.5 13.5t55 37t37 55t13.5 67.5v291z" />
<glyph unicode="R" horiz-adv-x="570" d="M498 1l-142 341h-2v1h-246v-343h-48v733h48h246q40 0 76 -15.5t62 -42t41.5 -62.5t15.5 -76q0 -34 -11 -64.5t-30 -55t-45.5 -42.5t-57.5 -26l145 -348h-52zM108 391h246q30 0 57 11.5t47 31t31.5 46.5t11.5 57q0 31 -11.5 58t-31.5 47t-46.5 31.5t-57.5 11.5h-246v-294z " />
<glyph unicode="S" horiz-adv-x="563" d="M401 356q21 -12 39.5 -29t32.5 -38t22 -45t8 -49q0 -41 -17.5 -76.5t-46 -61.5t-66.5 -41.5t-78 -15.5q-46 0 -88.5 17.5t-75 47.5t-52 70t-19.5 86h48q0 -36 15.5 -67.5t42 -55t60 -37t69.5 -13.5q31 0 59.5 11.5t51 31.5t36 47t13.5 57q0 14 -4 28t-10 26 q-17 34 -45.5 52t-62 27.5t-69.5 16t-67 17.5q-27 9 -52 26.5t-43.5 40t-29.5 50.5t-11 58q0 40 17 76t46 62.5t66 42t78 15.5q46 0 88.5 -17.5t75 -47.5t52 -70t19.5 -86h-48q0 36 -15.5 67.5t-42 55t-60 37t-69.5 13.5q-31 0 -59.5 -11.5t-51 -31.5t-36 -47t-13.5 -58 q0 -30 15 -55.5t37 -44.5q25 -22 54.5 -31t61.5 -15l64 -14t61 -21z" />
<glyph unicode="T" horiz-adv-x="482" d="M217 0v685h-197v48h197h48h197v-48h-197v-685h-48v0z" />
<glyph unicode="U" d="M502 221q0 -46 -17.5 -86t-47.5 -70t-70 -47.5t-86 -17.5t-86 17.5t-70 47.5t-47.5 70t-17.5 86v512h48v-512q0 -36 13.5 -67.5t37 -55t55 -37t67.5 -13.5t67.5 13.5t55 37t37 55t13.5 67.5v512h48v-512z" />
<glyph unicode="V" horiz-adv-x="542" d="M472 733h50l-215 -733h-36h-36l-215 733h50l201 -685l201 685v0z" />
<glyph unicode="W" horiz-adv-x="994" d="M235 0l-215 733h50l201 -685l201 685h50l201 -685l201 685h50l-215 -733h-36h-36l-190 648l-190 -648h-36h-36v0z" />
<glyph unicode="X" horiz-adv-x="540" d="M520 733l-222 -367l222 -366h-56l-194 320l-194 -320h-56l222 366l-222 367h56l194 -320l194 320h56v0z" />
<glyph unicode="Y" horiz-adv-x="540" d="M520 733l-222 -367l-4 -6v-360h-48v360l-4 6l-222 367h56l194 -320l194 320h56v0z" />
<glyph unicode="Z" horiz-adv-x="522" d="M482 733v-48l-386 -637h386v-48h-415h-27v48v0v0l386 637h-386v48h442v0z" />
<glyph unicode="[" horiz-adv-x="258" d="M258 886h-150v-930h150v-48h-150h-48v48v930v48h48h150v-48v0z" />
<glyph unicode="\" horiz-adv-x="438" d="M448 -50l-44 -20l-414 901l44 20z" />
<glyph unicode="]" horiz-adv-x="258" d="M0 -44h150v930h-150v48h150h48v-48v-930v-48h-48h-150v48v0z" />
<glyph unicode="^" horiz-adv-x="463" d="M231 446v0v0l34 -34v0l188 -187l-34 -34l-188 187l-187 -187l-34 34l187 187v0l34 34v0z" />
<glyph unicode="_" horiz-adv-x="441" d="M0 -72v48h441v-48h-441v0z" />
<glyph unicode="`" horiz-adv-x="248" d="M188 578l-34 -34l-94 94l34 34l94 -94v0z" />
<glyph unicode="a" d="M502 211q-2 -37 -14.5 -69.5t-33.5 -59.5q-26 -34 -64 -55.5t-83 -26.5h-89q-33 0 -61.5 12.5t-50 34t-34 50t-12.5 61.5q0 45 25 83q29 48 82 65q1 1 6 2.5t25.5 7.5t63.5 18t120 35q26 11 44 30q-23 36 -61 57.5t-84 21.5q-30 0 -56.5 -9.5t-48.5 -26t-37.5 -39 t-23.5 -49.5h-50q8 37 28 68.5t48.5 54.5t64.5 36t75 13q51 0 95.5 -21.5t74.5 -58.5q18 -21 31 -50q20 -43 20 -91v-84v-10zM454 306q0 26 -7 47q-23 -20 -51 -29q-2 -1 -6.5 -2.5t-25 -7.5t-62 -18t-117.5 -34q-33 -11 -54.5 -39.5t-21.5 -65.5q0 -23 8.5 -42.5t23.5 -34 t34.5 -23.5t42.5 -9h63q20 0 43 5q28 7 52 23t41 38.5t27 49.5t10 57v85z" />
<glyph unicode="b" d="M502 221q0 -46 -17.5 -86t-47.5 -70t-70 -47.5t-86 -17.5t-86 17.5t-70 47.5t-47.5 70t-17.5 86v85v427h48v-290q31 38 75.5 61t97.5 23q46 0 86 -17.5t70 -47.5t47.5 -70t17.5 -86v-85zM454 306q0 36 -13.5 67.5t-37 55t-55 37t-67.5 13.5t-67.5 -13.5t-55 -37t-37 -55 t-13.5 -67.5v-85q0 -36 13.5 -67.5t37 -55t55 -37t67.5 -13.5t67.5 13.5t55 37t37 55t13.5 67.5v85z" />
<glyph unicode="c" horiz-adv-x="543" d="M493 159q-10 -35 -30.5 -64t-48 -50t-61.5 -33t-72 -12q-46 0 -86 17.5t-70 47.5t-47.5 70t-17.5 86v85q0 46 17.5 86t47.5 70t70 47.5t86 17.5q38 0 72 -12t62 -33.5t48 -51t30 -63.5h-50q-19 49 -62.5 80.5t-99.5 31.5q-36 0 -67.5 -13.5t-55 -37t-37 -55t-13.5 -67.5 v-85q0 -36 13.5 -67.5t37 -55t55 -37t67.5 -13.5q56 0 99 31t62 80h51z" />
<glyph unicode="d" d="M502 221q0 -46 -17.5 -86t-47.5 -70t-70 -47.5t-86 -17.5t-86 17.5t-70 47.5t-47.5 70t-17.5 86v85q0 46 17.5 86t47.5 70t70 47.5t86 17.5q53 0 98 -23t75 -61v290h48v-427v-85zM454 306q0 36 -13.5 67.5t-37 55t-55 37t-67.5 13.5t-67.5 -13.5t-55 -37t-37 -55 t-13.5 -67.5v-85q0 -36 13.5 -67.5t37 -55t55 -37t67.5 -13.5t67.5 13.5t55 37t37 55t13.5 67.5v85z" />
<glyph unicode="e" d="M494 159q-10 -35 -30.5 -64t-48.5 -50t-62 -33t-72 -12q-46 0 -86 17.5t-70 47.5t-47.5 70t-17.5 86v85q0 46 17.5 86t47.5 70t70 47.5t86 17.5t86 -17.5t70 -47.5t47.5 -70t17.5 -86v-49h-290h-104v-36q0 -36 13.5 -67.5t37 -55t55 -37t67.5 -13.5q56 0 99.5 31t62.5 80 h51zM281 479q-36 0 -67.5 -13.5t-55 -37t-37 -55t-13.5 -67.5h346q0 36 -13.5 67.5t-37 55t-55 37t-67.5 13.5z" />
<glyph unicode="f" horiz-adv-x="423" d="M383 685q-36 0 -67.5 -13.5t-55 -37t-37 -55t-13.5 -67.5v-64h173v-49h-173v-399h-48v399h-102v49h102v64q0 46 17.5 86t47.5 70t70 47.5t86 17.5v-48z" />
<glyph unicode="g" horiz-adv-x="563" d="M281 527q46 0 86.5 -17.5t70.5 -47.5t47.5 -70t17.5 -86v-85v-331q0 -46 -17.5 -86.5t-47.5 -70.5t-70.5 -47t-86.5 -17t-86 17.5t-70 47.5t-47.5 70t-17.5 86h48q0 -36 13.5 -67.5t37 -55t55 -37t67.5 -13.5t67.5 13.5t55 37t37 55t13.5 67.5v194q-30 -38 -75 -61 t-98 -23q-46 0 -86 17.5t-70 47.5t-47.5 70t-17.5 86v85q0 46 17.5 86t47.5 70t70 47.5t86 17.5zM454 306q0 36 -13.5 67.5t-37 55t-55 37t-67.5 13.5t-67.5 -13.5t-55 -37t-37 -55t-13.5 -67.5v-85q0 -36 13.5 -67.5t37 -55t55 -37t67.5 -13.5t67.5 13.5t55 37t37 55 t13.5 67.5v85z" />
<glyph unicode="h" horiz-adv-x="563" d="M503 0h-48v306q0 36 -13.5 67.5t-37.5 55t-55.5 37t-67.5 13.5t-67.5 -13.5t-55 -37t-37 -55t-13.5 -67.5v-306h-48v306v427h48v-290q31 38 75.5 61t97.5 23q46 0 86.5 -17.5t70.5 -47.5t47.5 -70t17.5 -86v-306z" />
<glyph unicode="i" horiz-adv-x="168" d="M60 0v527h48v-527h-48zM60 629v104h48v-104h-48z" />
<glyph unicode="j" horiz-adv-x="281" d="M173 733h48v-104h-48v104zM221 -110q0 -46 -17.5 -86.5t-47.5 -70.5t-70 -47.5t-86 -17.5v49q36 0 67.5 13.5t55 37t37 55t13.5 67.5v637h48v-637z" />
<glyph unicode="k" horiz-adv-x="492" d="M423 527h79l-346 -264l346 -263h-79l-307 233l-8 -6v-227h-48v733h48v-445l315 239v0z" />
<glyph unicode="l" horiz-adv-x="168" d="M60 0v733h48v-733h-48v0z" />
<glyph unicode="m" horiz-adv-x="750" d="M521 527q34 0 64 -12.5t52.5 -34.5t36.5 -51t16 -63v-366h-48v357q0 25 -9.5 47.5t-26 39t-38.5 26t-47 9.5q-26 0 -48 -9.5t-38.5 -26t-26 -39t-9.5 -47.5v-357h-48v357q0 25 -9.5 47.5t-26 39t-39 26t-47.5 9.5t-47 -9.5t-38.5 -26t-26 -39t-9.5 -47.5v-357h-48v527h48 v-51q23 23 54.5 37t66.5 14q47 0 85 -22.5t61 -60.5q23 38 61 60.5t85 22.5z" />
<glyph unicode="n" d="M281 527q46 0 86 -17.5t70 -47.5t47.5 -70t17.5 -86v-306h-48v306q0 36 -13.5 67.5t-37 55t-55 37t-67.5 13.5t-67.5 -13.5t-55 -37t-37 -55t-13.5 -67.5v-306h-48v306v221h48v-83q31 38 75.5 60.5t97.5 22.5z" />
<glyph unicode="o" d="M502 221q0 -46 -17.5 -86t-47.5 -70t-70 -47.5t-86 -17.5t-86 17.5t-70 47.5t-47.5 70t-17.5 86v85q0 46 17.5 86t47.5 70t70 47.5t86 17.5t86 -17.5t70 -47.5t47.5 -70t17.5 -86v-85zM454 306q0 36 -13.5 67.5t-37 55t-55 37t-67.5 13.5t-67.5 -13.5t-55 -37t-37 -55 t-13.5 -67.5v-85q0 -36 13.5 -67.5t37 -55t55 -37t67.5 -13.5t67.5 13.5t55 37t37 55t13.5 67.5v85z" />
<glyph unicode="p" d="M281 527q46 0 86 -17.5t70 -47.5t47.5 -70t17.5 -86v-85q0 -46 -17.5 -86t-47.5 -70t-70 -47.5t-86 -17.5q-53 0 -98 23t-75 61v-305h-48v442v85q0 46 17 86t47 70t70.5 47.5t86.5 17.5zM454 306q0 36 -13.5 67.5t-37 55t-55 37t-67.5 13.5t-67.5 -13.5t-55 -37t-37 -55 t-13.5 -67.5v-85q0 -36 13.5 -67.5t37 -55t55 -37t67.5 -13.5t67.5 13.5t55 37t37 55t13.5 67.5v85z" />
<glyph unicode="q" d="M281 527q46 0 86 -17.5t70 -47.5t47.5 -70t17.5 -86v-85v-442h-48v305q-30 -38 -75 -61t-98 -23q-46 0 -86 17.5t-70 47.5t-47.5 70t-17.5 86v85q0 46 17.5 86t47.5 70t70 47.5t86 17.5zM454 306q0 36 -13.5 67.5t-37 55t-55 37t-67.5 13.5t-67.5 -13.5t-55 -37t-37 -55 t-13.5 -67.5v-85q0 -36 13.5 -67.5t37 -55t55 -37t67.5 -13.5t67.5 13.5t55 37t37 55t13.5 67.5v85z" />
<glyph unicode="r" horiz-adv-x="302" d="M282 479q-36 0 -67.5 -13.5t-55 -37t-37 -55t-13.5 -67.5v-306h-49v306v221h49v-83q30 38 75 60.5t98 22.5v-48z" />
<glyph unicode="s" horiz-adv-x="524" d="M352 527q27 0 51 -10.5t42 -28.5t28.5 -42t10.5 -51h-49q0 35 -24 59.5t-59 24.5h-180q-17 0 -32.5 -6.5t-27 -18t-18 -26.5t-6.5 -33q0 -28 16 -49.5t42 -29.5l242 -57q27 -8 48.5 -26t33.5 -43q13 -26 13 -58q0 -27 -10 -51t-28 -42t-42 -28.5t-51 -10.5h-180 q-27 0 -51 10.5t-42 28.5t-28.5 42t-10.5 51h49q0 -35 24 -59.5t59 -24.5h180q35 0 59 24.5t24 59.5q0 29 -17.5 51t-44.5 30l-239 56q-55 17 -80 69q-14 26 -14 57q0 27 10.5 51t28.5 42t42 28.5t51 10.5h180v0z" />
<glyph unicode="t" horiz-adv-x="421" d="M235 733v-206h166v-48h-166v-479h-48v479h-167v48h167v206h48v0z" />
<glyph unicode="u" horiz-adv-x="563" d="M454 527h49v-306q0 -46 -17.5 -86t-47.5 -70t-70.5 -47.5t-86.5 -17.5t-86 17.5t-70 47.5t-47.5 70t-17.5 86v306h48v-306q0 -36 13.5 -67.5t37 -55t55 -37t67.5 -13.5t67.5 13.5t55 37t37 55t13.5 67.5v306z" />
<glyph unicode="v" horiz-adv-x="482" d="M241 66l169 461h52l-194 -527h-3h-48h-4l-193 527h51l170 -461v0z" />
<glyph unicode="w" horiz-adv-x="667" d="M478 89l120 438h49l-143 -527h-2h-48h-1l-119 436l-119 -436h-2h-48h-1l-144 527h50l119 -438l120 438v0h49h1l119 -438v0z" />
<glyph unicode="x" horiz-adv-x="483" d="M403 527h60l-192 -264l192 -263h-60l-162 223l-161 -223h-60l192 263l-192 264h60l161 -223l162 223v0z" />
<glyph unicode="y" d="M454 527h48v-306v-331q0 -46 -17.5 -86.5t-47.5 -70.5t-70 -47t-86 -17t-86 17.5t-70 47.5t-47.5 70t-17.5 86h48q0 -36 13.5 -67.5t37 -55t55 -37t67.5 -13.5t67.5 13.5t55 37t37 55t13.5 67.5v194q-31 -38 -75.5 -61t-97.5 -23q-46 0 -86 17.5t-70 47.5t-47.5 70 t-17.5 86v306h48v-306q0 -36 13.5 -67.5t37 -55t55 -37t67.5 -13.5t67.5 13.5t55 37t37 55t13.5 67.5v306z" />
<glyph unicode="z" horiz-adv-x="523" d="M40 479v48h443v-19v0v-29v0h-1l-378 -431h379v-48h-443v19v0v29v0v0l378 431h-378v0z" />
<glyph unicode="{" horiz-adv-x="389" d="M167 460l-39 -39l39 -39l25 -25l23 -23v-36v-169h1q0 -36 13.5 -67.5t37 -55t54.5 -37t67 -13.5h1v-48q-46 0 -86 17.5t-70 47.5t-47.5 70t-17.5 86h-1v117v68l-107 107l107 107v67v117h1q0 46 17.5 86t47.5 70t70 47.5t86 17.5v-48q-36 0 -67.5 -13.5t-55 -37t-37 -55 t-13.5 -67.5h-1v-168v-36l-23 -23z" />
<glyph unicode="|" horiz-adv-x="168" d="M108 -41h-48v926h48v-926v0z" />
<glyph unicode="}" horiz-adv-x="389" d="M222 382l39 39l-39 39l-25 25l-23 23v36v169h-1q0 36 -13.5 67.5t-37 55t-55 37t-67.5 13.5v-1v48v1q46 0 86 -17.5t70 -47.5t47.5 -70t17.5 -86h1v-118v-67l107 -107l-107 -108v-67v-116h-1q0 -46 -17.5 -86.5t-47.5 -70.5t-70 -47.5t-86 -17.5v48v1q36 0 67.5 13.5 t55 37t37 55t13.5 67.5h1v168v36l23 23z" />
<glyph unicode="~" horiz-adv-x="533" d="M166 351q31 0 57.5 -11.5t46.5 -31.5l28 -26q27 -29 69 -29q41 0 69.5 28.5t28.5 69.5h48q0 -30 -11.5 -57t-31.5 -46.5t-46.5 -31t-56.5 -11.5q-31 0 -57.5 11.5t-46.5 31.5l-28 26q-27 29 -69 29q-41 0 -69.5 -28.5t-28.5 -69.5h-48q0 30 11.5 57t31.5 46.5t46.5 31 t56.5 11.5z" />
<glyph unicode="&#xde;" horiz-adv-x="962" d="M902 0q0 -46 -17.5 -86t-47.5 -70t-70 -47.5t-86 -17.5t-86 17.5t-70 47.5t-47.5 70t-17.5 86h48q0 -36 13.5 -67.5t37 -55t55 -37t67.5 -13.5t67.5 13.5t55 37t37 55t13.5 67.5v83q-30 -38 -75 -60.5t-98 -22.5q-46 0 -86 17.5t-70 47.5t-47.5 70t-17.5 86v189 q0 36 -13.5 67.5t-37 55t-55 37t-67.5 13.5q-54 0 -96 -28.5t-62 -74.5l-21 -42l6 -40v-201v-61v-42q0 -25 9 -46h48h76v-48h-76h-74q-1 1 -1 1.5t-1 1.5q-6 8 -10.5 17t-8.5 18q-10 26 -10 56v316l-6 40l27 54l3 6q27 54 79.5 87.5t117.5 33.5q46 0 86 -17.5t70 -47.5 t47.5 -70t17.5 -86v-189q0 -36 13.5 -67.5t37 -55t55 -37t67.5 -13.5t67.5 13.5t55 37t37 55t13.5 67.5v410h48v-410v-221v0z" />
<glyph unicode="&#xe0d;" horiz-adv-x="962" d="M902 0q0 -46 -17.5 -86t-47.5 -70t-70 -47.5t-86 -17.5t-86 17.5t-70 47.5t-47.5 70t-17.5 86h48q0 -36 13.5 -67.5t37 -55t55 -37t67.5 -13.5t67.5 13.5t55 37t37 55t13.5 67.5v83q-30 -38 -75 -60.5t-98 -22.5q-46 0 -86 17.5t-70 47.5t-47.5 70t-17.5 86v189 q0 36 -13.5 67.5t-37 55t-55 37t-67.5 13.5q-54 0 -96 -28.5t-62 -74.5l-21 -42l6 -40v-201v-61v-42q0 -25 9 -46h48h76v-48h-76h-74q-1 1 -1 1.5t-1 1.5q-6 8 -10.5 17t-8.5 18q-10 26 -10 56v316l-6 40l27 54l3 6q27 54 79.5 87.5t117.5 33.5q46 0 86 -17.5t70 -47.5 t47.5 -70t17.5 -86v-189q0 -36 13.5 -67.5t37 -55t55 -37t67.5 -13.5t67.5 13.5t55 37t37 55t13.5 67.5v410h48v-410v-221v0z" />
<glyph unicode="&#xff;" horiz-adv-x="948" />
<glyph unicode="&#x152;" horiz-adv-x="0" d="M60 757v-48h-196v2v25v21v35h-49v48h49h48v-37v-11v-35h148z" />
<glyph unicode="&#xf70b;" horiz-adv-x="0" d="M60 757v-48h-196v2v25v21v35h-49v48h49h48v-37v-11v-35h148z" />
<glyph unicode="&#x153;" horiz-adv-x="0" d="M-40 936v-48h-196v2v25v21v35h-49v48h49h48v-37v-11v-35h148z" />
<glyph unicode="&#xf714;" horiz-adv-x="0" d="M-40 936v-48h-196v2v25v21v35h-49v48h49h48v-37v-11v-35h148z" />
<glyph unicode="&#x160;" horiz-adv-x="0" d="M-80 840v-48h-130h-10q-16 -2 -27 -13t-11 -28v-42h-48v42q0 30 17.5 53t44.5 32q6 2 7 2q8 2 13 2h2h5h7h130z" />
<glyph unicode="&#xf709;" horiz-adv-x="0" d="M-80 840v-48h-130h-10q-16 -2 -27 -13t-11 -28v-42h-48v42q0 30 17.5 53t44.5 32q6 2 7 2q8 2 13 2h2h5h7h130z" />
<glyph unicode="&#x161;" horiz-adv-x="0" d="M-300 839q-16 -2 -27 -13t-11 -28t13 -30l52 53l9 -11l39 -39q8 8 13 20h50q-9 -39 -39 -64q-5 -4 -10.5 -7.5t-10.5 -6.5l-8 -4l-44 43l-43 -43q-9 0 -20.5 7t-22.5 19t-18.5 28.5t-7.5 34.5q0 30 17.5 53t44.5 32q6 2 7 2q8 2 13 2h2h5h7h130v-48h-130h-10v0z" />
<glyph unicode="&#xf712;" horiz-adv-x="0" d="M-300 839q-16 -2 -27 -13t-11 -28t13 -30l52 53l9 -11l39 -39q8 8 13 20h50q-9 -39 -39 -64q-5 -4 -10.5 -7.5t-10.5 -6.5l-8 -4l-44 43l-43 -43q-9 0 -20.5 7t-22.5 19t-18.5 28.5t-7.5 34.5q0 30 17.5 53t44.5 32q6 2 7 2q8 2 13 2h2h5h7h130v-48h-130h-10v0z" />
<glyph unicode="&#x178;" horiz-adv-x="0" d="M-80 1019v-48h-130h-10q-16 -2 -27 -13t-11 -28v-42h-48v42q0 30 17.5 53t44.5 32q6 2 7 2q8 2 13 2h2h5h7h130z" />
<glyph unicode="&#xf717;" horiz-adv-x="0" d="M-80 1019v-48h-130h-10q-16 -2 -27 -13t-11 -28v-42h-48v42q0 30 17.5 53t44.5 32q6 2 7 2q8 2 13 2h2h5h7h130z" />
<glyph unicode="&#x17d;" horiz-adv-x="0" d="M-18 751h-42v-42h-48v42h-42v48h42v42h48v-42h42v-48z" />
<glyph unicode="&#xf70d;" horiz-adv-x="0" d="M-18 751h-42v-42h-48v42h-42v48h42v42h48v-42h42v-48z" />
<glyph unicode="&#x17e;" horiz-adv-x="0" d="M-118 929h-42v-42h-48v42h-42v48h42v42h48v-42h42v-48z" />
<glyph unicode="&#xf716;" horiz-adv-x="0" d="M-118 929h-42v-42h-48v42h-42v48h42v42h48v-42h42v-48z" />
<glyph unicode="&#x192;" horiz-adv-x="0" d="M-232 853q30 0 51 -21t21 -51t-21 -51t-51 -21h-274v48h206q-4 11 -4 24q0 30 21 51t51 21zM-232 758q10 0 17 7t7 17t-7 17t-17 7t-17 -7t-7 -17t7 -17t17 -7z" />
<glyph unicode="&#xf703;" horiz-adv-x="0" d="M-232 853q30 0 51 -21t21 -51t-21 -51t-51 -21h-274v48h206q-4 11 -4 24q0 30 21 51t51 21zM-232 758q10 0 17 7t7 17t-7 17t-17 7t-17 -7t-7 -17t7 -17t17 -7z" />
<glyph unicode="&#x2c6;" horiz-adv-x="0" d="M-120 757v-48h-47h-47h-1v24q0 25 -16 44l-50 -50l-9 11l-39 39q-17 -19 -17 -44v-24h-48v24q0 26 10.5 48.5t30.5 39.5q5 4 10.5 7.5t10.5 6.5l8 4l44 -43l43 43l8 -4q10 -5 21 -14q30 -25 39 -64h49z" />
<glyph unicode="&#xf707;" horiz-adv-x="0" d="M-120 757v-48h-47h-47h-1v24q0 25 -16 44l-50 -50l-9 11l-39 39q-17 -19 -17 -44v-24h-48v24q0 26 10.5 48.5t30.5 39.5q5 4 10.5 7.5t10.5 6.5l8 4l44 -43l43 43l8 -4q10 -5 21 -14q30 -25 39 -64h49z" />
<glyph unicode="&#x2dc;" horiz-adv-x="0" d="M-188 710h-7h-5h-2q-5 0 -13 2q-1 0 -7 2q-27 9 -44.5 32t-17.5 53v42h48v-42q0 -17 11 -28t27 -13h10h148v-48h-148z" />
<glyph unicode="&#xf710;" horiz-adv-x="0" d="M-188 710h-7h-5h-2q-5 0 -13 2q-1 0 -7 2q-27 9 -44.5 32t-17.5 53v42h48v-42q0 -17 11 -28t27 -13h10h148v-48h-148z" />
<glyph unicode="&#xe01;" horiz-adv-x="568" d="M60 450l27 54l3 6q27 54 79.5 87.5t117.5 33.5q46 0 86 -17.5t70 -47.5t47.5 -70t17.5 -86v-410h-48v410q0 36 -13.5 67.5t-37 55t-55 37t-67.5 13.5q-54 0 -96 -28.5t-62 -74.5l-21 -42l6 -40v-398h-48v410z" />
<glyph unicode="&#xe02;" horiz-adv-x="416" d="M108 432q19 19 25 48v39q0 5 -1 8q0 10 -5 26t-13 30h-114v48h22h54h1h37h21q14 -15 25 -33.5t16 -39.5v-1l1 -2v-2q4 -15 4 -34v-39q-3 -23 -13.5 -44.5t-27.5 -38.5l-2 -2q-1 0 -1 -1q-26 -28 -26 -67v-181q0 -20 7.5 -38t21 -31.5t31.5 -21.5t39 -8t39 8t31.5 21.5 t21 31.5t7.5 38v485h47v-485q0 -60 -43 -103q-20 -21 -47 -32t-56 -11t-56 11t-47 32q-43 43 -43 103v181q0 29 11 56t32 47q0 1 0.5 1t0.5 1z" />
<glyph unicode="&#xe03;" horiz-adv-x="416" d="M57 583h-57v48h37h24h16l25 -25l24 25h25q1 -1 1 -1.5t1 -1.5q6 -8 10.5 -17t8.5 -18q1 -4 3 -10q7 -21 7 -46v-37q0 -60 -43 -103q0 -1 -0.5 -1t-0.5 -1q-27 -29 -27 -68v-181q0 -20 7.5 -38t21 -31.5t31.5 -21.5t39 -8t39 8t31.5 21.5t21 31.5t7.5 38v485h47v-485 q0 -60 -43 -103t-103 -43q-61 0 -104 43t-43 103v181q0 29 11 56t32 47l2 2q27 29 27 68v36v1q0 8 -1 15.5t-3 15.5l-29 -29l-34 34z" />
<glyph unicode="&#xe04;" d="M60 410q0 46 17.5 86t47.5 70t70 47.5t86 17.5t86 -17.5t70 -47.5t47.5 -70t17.5 -86v-410h-48v410q0 36 -13.5 67.5t-37 55t-55 37t-67.5 13.5t-67.5 -13.5t-55 -37t-37 -55t-13.5 -67.5v-95h140v-48h-140v-267h-48v410v0z" />
<glyph unicode="&#xe05;" d="M60 434q0 51 21.5 95t58.5 75q17 14 41 27l36 -36l64 -65l64 65l36 36q24 -13 41 -27q37 -31 58.5 -75t21.5 -95v-1v-23v-410h-48v410v23v1q0 42 -18 77t-48 59l-107 -108l-107 108q-30 -24 -48 -59t-18 -77v-1v-23v-95h140v-48h-140v-267h-48v410v23v1z" />
<glyph unicode="&#xe06;" horiz-adv-x="565" d="M57 583h-57v48h37h24h16l25 -25l24 25h25q1 -1 1 -1.5t1 -1.5q6 -8 10.5 -17t8.5 -18q1 -4 3 -10q7 -21 7 -46v-37q0 -60 -43 -103q0 -1 -0.5 -1t-0.5 -1q-27 -29 -27 -68v-106q0 -36 13.5 -67.5t37 -55t55 -37t67.5 -13.5t67.5 13.5t55 37t37 55t13.5 67.5v410h48v-410 q0 -46 -17.5 -86t-47.5 -70t-70 -47.5t-86 -17.5q-53 0 -97.5 23t-75.5 61v-84h-48v327q0 29 11 56t32 47l2 2q27 29 27 68v36v1q0 8 -1 15.5t-3 15.5l-29 -29l-34 34z" />
<glyph unicode="&#xe07;" horiz-adv-x="503" d="M443 208q0 -46 -14.5 -83.5t-41 -64t-63.5 -41t-83 -14.5t-86 17.5t-70 47.5t-47.5 70t-17.5 86h48q0 -36 13.5 -67.5t37 -55t55 -37t67.5 -13.5t64.5 12.5t48.5 33.5t30.5 49t10.5 60v380h-105v48h129h24v-428v0z" />
<glyph unicode="&#xe08;" horiz-adv-x="502" d="M221 631q46 0 86 -17.5t70 -47.5t47.5 -70t17.5 -86v-410h-48v267h-129v48h129v95q0 36 -13.5 67.5t-37 55t-55 37t-67.5 13.5t-67.5 -13.5t-55 -37t-37 -55t-13.5 -67.5h-48q0 46 17.5 86t47.5 70t70 47.5t86 17.5z" />
<glyph unicode="&#xe09;" horiz-adv-x="559" d="M278 631q46 0 86 -17.5t70 -47.5t47.5 -70t17.5 -86v-410h-48v84q-30 -38 -75 -61t-98 -23q-46 0 -86 17.5t-70 47.5t-47.5 70t-17.5 86v46h-17v48h65v-48v-46q0 -36 13.5 -67.5t37 -55t55 -37t67.5 -13.5t67.5 13.5t55 37t37 55t13.5 67.5v189q0 36 -13.5 67.5t-37 55 t-55 37t-67.5 13.5t-67.5 -13.5t-55 -37t-37 -55t-13.5 -67.5h-48q0 46 17.5 86t47.5 70t70 47.5t86 17.5z" />
<glyph unicode="&#xe0a;" horiz-adv-x="416" d="M132 527q0 10 -5 26t-13 30h-114v48h22h54h1h37h21q14 -15 25 -33.5t16 -39.5v-1l1 -2v-2q4 -15 4 -34v-39q-3 -23 -13.5 -44.5t-27.5 -38.5l-2 -2q-1 0 -1 -1q-26 -28 -26 -67v-181q0 -20 7.5 -38t21 -31.5t31.5 -21.5t39 -8t39 8t31.5 21.5t21 31.5t7.5 38v265 q0 31 -22 53t-54 22v48q32 0 54 21.5t22 52.5v23h47v-23q0 -29 -12.5 -54t-34.5 -42q-2 -2 -3 -2q2 -2 3 -2q22 -17 34.5 -42.5t12.5 -54.5v-265q0 -60 -43 -103q-20 -21 -47 -32t-56 -11t-56 11t-47 32q-43 43 -43 103v181q0 29 11 56t32 47q0 1 0.5 1t0.5 1q19 19 25 48 v39q0 5 -1 8z" />
<glyph unicode="&#xe0b;" horiz-adv-x="416" d="M135 536v1q0 8 -1 15.5t-3 15.5l-29 -29l-34 34l-11 10h-57v48h37h24h16l25 -25l24 25h25q1 -1 1 -1.5t1 -1.5q6 -8 10.5 -17t8.5 -18q1 -4 3 -10q7 -21 7 -46v-37q0 -60 -43 -103q0 -1 -0.5 -1t-0.5 -1q-27 -29 -27 -68v-181q0 -20 7.5 -38t21 -31.5t31.5 -21.5t39 -8 t39 8t31.5 21.5t21 31.5t7.5 38v265q0 31 -22 53t-54 22v48q32 0 54 21.5t22 52.5v23h47v-23q0 -15 -3 -28q-11 -43 -44 -68q-2 -2 -3 -2q2 -2 3 -2q33 -27 44 -68q3 -14 3 -29v-265q0 -60 -43 -103t-103 -43q-61 0 -104 43t-43 103v181q0 29 11 56t32 47l2 2q27 29 27 68 v36z" />
<glyph unicode="&#xe0c;" horiz-adv-x="962" d="M247 0h-76h-74q-1 1 -1 1.5t-1 1.5q-6 8 -10.5 17t-8.5 18q-10 26 -10 56v316l-6 40l27 54l3 6q27 54 79.5 87.5t117.5 33.5q46 0 86 -17.5t70 -47.5t47.5 -70t17.5 -86v-189q0 -36 13.5 -67.5t37 -55t55 -37t67.5 -13.5t67.5 13.5t55 37t37 55t13.5 67.5v410h48v-410 q0 -46 -17.5 -86t-47.5 -70t-70 -47.5t-86 -17.5q-53 0 -97.5 22.5t-75.5 60.5v-83h-48v410q0 36 -13.5 67.5t-37 55t-55 37t-67.5 13.5q-54 0 -96 -28.5t-62 -74.5l-21 -42l6 -40v-201v-61v-42q0 -25 9 -46h48h76v-48z" />
<glyph unicode="&#xe0e;" horiz-adv-x="559" d="M470 -266q-2 -2 -2 -3h-74h-31l-85 86l-86 -86h-192v48h172l106 106l105 -106h11h48q9 21 9 46v585q0 36 -13.5 67.5t-37 55t-55 37t-67.5 13.5q-53 0 -95.5 -28.5t-62.5 -74.5l-21 -42l6 -40v-350v-48v-1h-105v48h57v1v362l-6 40l27 54l3 6q27 54 79.5 87.5t117.5 33.5 q46 0 86 -17.5t70 -47.5t47.5 -70t17.5 -86v-585q0 -30 -10 -56q-4 -9 -8.5 -18t-10.5 -17z" />
<glyph unicode="&#xe0f;" horiz-adv-x="559" d="M408 -269l-85 86l-86 -86l-86 86l-85 -86h-66v48h46l105 106l86 -86l86 86l105 -106h1h12q10 20 10 46v585q0 36 -13.5 67.5t-37 55t-55 37t-67.5 13.5q-54 0 -96 -28.5t-62 -74.5l-21 -42l6 -40v-350v-48v-1h-105v48h57v1v362l-6 40l27 54l3 6q27 54 79.5 87.5 t117.5 33.5q46 0 86 -17.5t70 -47.5t47.5 -70t17.5 -86v-585q0 -30 -10 -56q-4 -9 -8.5 -18t-10.5 -17q-2 -2 -2 -3h-28h-11h-21z" />
<glyph unicode="&#xe10;" horiz-adv-x="502" d="M221 583q-36 0 -67.5 -13.5t-55 -37t-37 -55t-13.5 -67.5h-48q0 46 17.5 86t47.5 70t70 47.5t86 17.5q47 0 88 -18t71 -49q15 20 15 44v23h47v-23q0 -15 -3 -28q-7 -30 -29 -55q15 -25 23.5 -54t8.5 -61v-410h-48v267h-129v48h129v95q0 36 -13.5 67.5t-37 55t-55 37 t-67.5 13.5zM470 -218q-2 -2 -2 -3h-28h-11h-21l-85 86l-86 -86l-86 86l-85 -86h-66v48h46l105 106l86 -86l86 86l105 -106h1h12q10 20 10 46h48q0 -30 -10 -56q-4 -9 -8.5 -18t-10.5 -17z" />
<glyph unicode="&#xe11;" horiz-adv-x="636" d="M355 583q-36 0 -67.5 -13.5t-55 -37t-37 -55t-13.5 -67.5v-410h-48v410v161l-32 -32l-34 34l-11 10h-57v48h37h24h16l25 -25l24 25h8h17h31v-84q31 38 75.5 61t97.5 23q46 0 86 -17.5t70 -47.5t47.5 -70t17.5 -86v-410h-48v410q0 36 -13.5 67.5t-37 55t-55 37t-67.5 13.5 z" />
<glyph unicode="&#xe12;" horiz-adv-x="956" d="M896 221q0 -46 -17.5 -86t-47.5 -70t-70 -47.5t-86 -17.5q-53 0 -98 22.5t-75 60.5v-83h-48v214v7v189v23v1q0 42 -18 77t-48 59l-107 -108l-107 108q-30 -24 -48 -59t-18 -77v-1v-23v-316q0 -25 9 -46h48h23h47q10 20 10 46h48q0 -28 -11 -56q-3 -9 -8 -18t-11 -17 q0 -1 -2 -3h-73h-23h-74q-1 1 -1 1.5t-1 1.5q-6 8 -10.5 17t-8.5 18q-10 26 -10 56v316v23v1q0 51 21.5 95t57.5 75q18 14 41 27l37 -36l64 -65l64 65l36 36q24 -13 41 -27q37 -31 58.5 -75t21.5 -95v-1v-23v-195q1 -35 15 -65.5t37.5 -53t54.5 -35.5t66 -13q36 0 67.5 13.5 t55 37t37 55t13.5 67.5v410h48v-410v0z" />
<glyph unicode="&#xe13;" horiz-adv-x="962" d="M854 83q-30 -38 -75 -60.5t-98 -22.5q-46 0 -86 17.5t-70 47.5t-47.5 70t-17.5 86v189q0 36 -13.5 67.5t-37 55t-55 37t-67.5 13.5q-54 0 -96 -28.5t-62 -74.5l-21 -42l6 -40v-201v-61v-42q0 -25 9 -46h48h76v-48h-76h-74q-1 1 -1 1.5t-1 1.5q-6 8 -10.5 17t-8.5 18 q-10 26 -10 56v316l-6 40l27 54l3 6q27 54 79.5 87.5t117.5 33.5q46 0 86 -17.5t70 -47.5t47.5 -70t17.5 -86v-189q0 -36 13.5 -67.5t37 -55t55 -37t67.5 -13.5t67.5 13.5t55 37t37 55t13.5 67.5v410h48v-410v-221h-48v83z" />
<glyph unicode="&#xe14;" d="M281 631q46 0 86 -17.5t70 -47.5t47.5 -70t17.5 -86v-410h-48v410q0 36 -13.5 67.5t-37 55t-55 37t-67.5 13.5t-67.5 -13.5t-55 -37t-37 -55t-13.5 -67.5v-315q1 -20 14.5 -33.5t33.5 -13.5h22h10h48q9 22 9 46h48q0 -30 -10 -56q-4 -9 -8.5 -18t-10.5 -17q-2 -2 -2 -3 h-74h-10h-22q-40 0 -68 28t-28 68v314q0 46 17.5 86t47.5 70t70 47.5t86 17.5z" />
<glyph unicode="&#xe15;" d="M422 604q37 -31 58.5 -75t21.5 -95v-1v-23v-410h-48v410v23v1q0 42 -18 77t-48 59l-107 -108l-107 108q-30 -24 -48 -59t-18 -77v-1v-23v-315q1 -20 14.5 -33.5t33.5 -13.5h15h7h10h48q9 22 9 46h48q0 -30 -10 -56q-4 -9 -8.5 -18t-10.5 -17q-2 -2 -2 -3h-74h-10h-7h-15 q-40 0 -68 28t-28 68v314v23v1q0 51 21.5 95t58.5 75q17 14 41 27l36 -36l64 -65l64 65l37 36q11 -6 21 -12.5t19 -14.5z" />
<glyph unicode="&#xe16;" horiz-adv-x="568" d="M287 631q46 0 86 -17.5t70 -47.5t47.5 -70t17.5 -86v-410h-48v410q0 36 -13.5 67.5t-37 55t-55 37t-67.5 13.5q-54 0 -96 -28.5t-62 -74.5l-21 -42l6 -40v-201v-61v-42q0 -25 9 -46h48h76v-48h-76h-74q-1 1 -1 1.5t-1 1.5q-6 8 -10.5 17t-8.5 18q-10 26 -10 56v316l-6 40 l27 54l3 6q27 54 79.5 87.5t117.5 33.5z" />
<glyph unicode="&#xe17;" d="M281 631q46 0 86 -17.5t70 -47.5t47.5 -70t17.5 -86v-410h-48v410q0 36 -13.5 67.5t-37 55t-55 37t-67.5 13.5t-67.5 -13.5t-55 -37t-37 -55t-13.5 -67.5v-410h-48v410v221h48v-84q31 38 75.5 61t97.5 23z" />
<glyph unicode="&#x2219;" d="M281 631q46 0 86 -17.5t70 -47.5t47.5 -70t17.5 -86v-410h-48v410q0 36 -13.5 67.5t-37 55t-55 37t-67.5 13.5t-67.5 -13.5t-55 -37t-37 -55t-13.5 -67.5v-410h-48v410v221h48v-84q31 38 75.5 61t97.5 23z" />
<glyph unicode="&#xe18;" horiz-adv-x="564" d="M283 631q46 0 86 -17.5t70 -47.5t47.5 -70t17.5 -86h-48q0 36 -13.5 67.5t-37.5 55t-55.5 37t-67.5 13.5h-64q-23 0 -43 -8.5t-35 -23.5t-23.5 -35t-8.5 -42q0 -36 20.5 -64t52.5 -40q77 -23 119.5 -35t63 -18t25.5 -7.5t7 -2.5q53 -17 82 -65q24 -36 24 -84 q0 -33 -12.5 -61.5t-33.5 -50t-49.5 -34t-61.5 -12.5h-115q-35 0 -66 13.5t-54 36.5t-36.5 54t-13.5 66v146h48v-146q0 -25 10 -47.5t26.5 -39t38.5 -26t47 -9.5h115q22 0 42 9t35 24t23.5 34.5t8.5 42.5q0 37 -21.5 65.5t-54.5 39.5q-76 22 -118 34t-62 18l-25 7.5t-7 2.5 q-26 8 -46.5 24.5t-34.5 39.5q-25 39 -25 84q0 33 12.5 62t34 50t50 33.5t61.5 12.5h64h1v0z" />
<glyph unicode="&#xe19;" d="M454 82q-31 -38 -75.5 -60t-97.5 -22q-46 0 -86 17t-70 47t-47.5 69.5t-17.5 84.5v413h48v-413q0 -35 13.5 -66.5t37 -54.5t55 -36.5t67.5 -13.5t67.5 13.5t55 36.5t37 54.5t13.5 66.5v413h48v-413v-218h-48v82v0z" />
<glyph unicode="&#xe1a;" horiz-adv-x="563" d="M281 0q-46 0 -86 17t-70 47t-47.5 69.5t-17.5 84.5v413h48v-413q0 -35 13.5 -66.5t37 -54.5t55 -36.5t67.5 -13.5t67.5 13.5t55.5 36.5t37.5 54.5t13.5 66.5v413h48v-413q0 -45 -17.5 -84.5t-47.5 -69.5t-70.5 -47t-86.5 -17z" />
<glyph unicode="&#xe1b;" d="M502 218q0 -45 -17.5 -84.5t-47.5 -69.5t-70 -47t-86 -17t-86 17t-70 47t-47.5 69.5t-17.5 84.5v413h48v-413q0 -35 13.5 -66.5t37 -54.5t55 -36.5t67.5 -13.5t67.5 13.5t55 36.5t37 54.5t13.5 66.5v623h48v-623v0z" />
<glyph unicode="&#xe1c;" d="M454 631h48v-413v-23v-1q0 -51 -21.5 -94t-57.5 -73q-19 -16 -41 -27l-37 36l-64 63l-64 -63l-36 -36q-24 11 -41 27q-37 30 -58.5 73t-21.5 94v1v23v413h24h24h105v-47h-105v-366v-23v-1q0 -41 18 -75.5t48 -58.5l107 106l107 -106q30 24 48 58.5t18 75.5v1v23v413z" />
<glyph unicode="&#xe1d;" horiz-adv-x="563" d="M455 841h48v-623v-23v-1q0 -51 -21.5 -94t-58.5 -73q-17 -16 -41 -27l-36 36l-64 63l-65 -63l-36 -36q-24 11 -41 27q-37 30 -58.5 73t-21.5 94v1v23v413h24h24h106v-47h-106v-366v-23v-1q0 -41 18 -75.5t48 -58.5l108 106l107 -106q30 24 48 58.5t18 75.5v1v23v623z" />
<glyph unicode="&#xe1e;" d="M502 185q0 -50 -21 -92.5t-56 -72.5q0 -1 -1 -1l-1 -1q-6 -5 -12.5 -9.5t-12.5 -8.5l-16 57l-101 370l-101 -370l-16 -57q-6 4 -12.5 8.5t-12.5 9.5l-2 1q0 1 -1 1q-35 30 -55.5 73t-20.5 92v1v23v422h48v-422v-23v-1q0 -54 31 -97l105 387h73l106 -387q31 43 31 97v1v23 v422h48v-422v-23v-1z" />
<glyph unicode="&#xe1f;" d="M502 185q0 -50 -21 -92.5t-56 -72.5q0 -1 -1 -1l-1 -1q-6 -5 -12.5 -9.5t-12.5 -8.5l-16 57l-101 370l-101 -370l-16 -57q-6 4 -12.5 8.5t-12.5 9.5l-2 1q0 1 -1 1q-35 30 -55.5 73t-20.5 92v1v23v422h48v-422v-23v-1q0 -54 31 -97l105 387h74l105 -387q31 43 31 97v1v23 v632h48v-632v-23v-1v0z" />
<glyph unicode="&#xe20;" horiz-adv-x="559" d="M278 631q46 0 86 -17t70 -47t47.5 -69.5t17.5 -84.5v-413h-48v413q0 35 -13.5 66t-37 54t-55 36.5t-67.5 13.5q-53 0 -95.5 -28t-62.5 -73l-21 -42l6 -39v1v-355v-39v-8h-105v47h57v366l-6 39l27 54l3 6q28 54 80 86.5t117 32.5z" />
<glyph unicode="&#xe21;" horiz-adv-x="563" d="M455 631h48v-410q0 -46 -17.5 -86t-47.5 -70t-70.5 -47.5t-86.5 -17.5q-53 0 -97.5 22.5t-75.5 60.5v-83h-48v631h48v-410q0 -36 13.5 -67.5t37 -55t55 -37t67.5 -13.5t67.5 13.5t55.5 37t37.5 55t13.5 67.5v410z" />
<glyph unicode="&#xe22;" d="M502 221q0 -46 -17.5 -86t-47.5 -70t-70 -47.5t-86 -17.5t-86 17.5t-70 47.5t-47.5 70t-17.5 86q0 54 24 100t64 77q-38 10 -63 41t-25 73q0 24 8.5 44.5t23.5 36.5t35 25.5t43 11.5v1h111v-48h-103q-29 0 -49.5 -21t-20.5 -50t20.5 -49.5t49.5 -20.5h103v-48 q-36 0 -67.5 -13.5t-55 -37t-37 -55t-13.5 -67.5t13.5 -67.5t37 -55t55 -37t67.5 -13.5t67.5 13.5t55 37t37 55t13.5 67.5v410h48v-410z" />
<glyph unicode="&#xe23;" horiz-adv-x="564" d="M218 583q-23 0 -43 -8.5t-35 -23.5t-23.5 -35t-8.5 -42q0 -36 20.5 -64t52.5 -40q77 -23 119.5 -35t63 -18t25.5 -7.5t7 -2.5q53 -17 82 -65q24 -36 24 -84q0 -33 -12.5 -61.5t-33.5 -50t-49.5 -34t-61.5 -12.5h-63q-46 0 -86.5 17.5t-70.5 47.5t-47.5 70t-17.5 86h49 q0 -36 13.5 -67.5t37 -55t55 -37t67.5 -13.5h63q22 0 42 9t35 24t23.5 34.5t8.5 42.5q0 37 -21.5 65.5t-54.5 39.5q-76 22 -118 34t-62 18l-25 7.5t-7 2.5q-26 8 -46.5 24.5t-34.5 39.5q-25 39 -25 84q0 33 12.5 62t34 50t50 33.5t61.5 12.5h64h1q46 0 86 -17.5t70 -47.5 t47.5 -70t17.5 -86h-48q0 36 -13.5 67.5t-37.5 55t-55.5 37t-67.5 13.5h-64v0z" />
<glyph unicode="&#xe24;" horiz-adv-x="568" d="M508 0v-268h-48v268v410q0 36 -13.5 67.5t-37 55t-55 37t-67.5 13.5q-54 0 -96 -28.5t-62 -74.5l-21 -42l6 -40v-201v-61v-42q0 -25 9 -46h48h76v-48h-76h-74q-1 1 -1 1.5t-1 1.5q-6 8 -10.5 17t-8.5 18q-10 26 -10 56v316l-6 40l27 54l3 6q27 54 79.5 87.5t117.5 33.5 q46 0 86 -17.5t70 -47.5t47.5 -70t17.5 -86v-410z" />
<glyph unicode="&#xe25;" horiz-adv-x="542" d="M482 0h-48v348q-24 -24 -58 -35q-2 -1 -6.5 -2.5t-25 -7.5t-62 -18t-117.5 -34q-33 -11 -54.5 -39.5t-21.5 -65.5q0 -41 28 -69.5t69 -28.5h70v-48h-70q-30 0 -56.5 11.5t-46.5 31.5t-31.5 46.5t-11.5 56.5q0 46 25 84q29 48 82 65q1 1 6.5 2.5t26.5 7.5t63.5 18.5 t118.5 35.5q41 14 62 55q2 5 4.5 18t-2.5 31q-9 26 -25 48t-37.5 38t-47.5 25t-55 9q-36 0 -67.5 -13.5t-55 -37t-37 -55t-13.5 -67.5h-48q0 46 17.5 86t47.5 70t70 47.5t86 17.5q39 0 74 -12.5t63.5 -34.5t48.5 -53t29 -67q3 -11 4.5 -23t1.5 -31v-410z" />
<glyph unicode="&#xe26;" horiz-adv-x="559" d="M278 631q46 0 86 -17t70 -47t47.5 -69.5t17.5 -84.5v-3v-410v-268h-48v268v410v3q0 35 -13.5 66t-37 54t-55 36.5t-67.5 13.5q-53 0 -95.5 -28t-62.5 -73l-21 -42l6 -39v1v-355v-39v-8h-105v47h57v366l-6 39l27 54l3 6q28 54 80 86.5t117 32.5z" />
<glyph unicode="&#xe27;" horiz-adv-x="523" d="M463 221q0 -46 -17.5 -86t-47.5 -70t-70 -47.5t-86 -17.5v48q36 0 67.5 13.5t55 37t37 55t13.5 67.5v189q0 36 -13.5 67.5t-37 55t-55 37t-67.5 13.5t-67.5 -13.5t-55 -37t-37 -55t-13.5 -67.5h-49q0 46 17.5 86t47.5 70t70.5 47.5t86.5 17.5t86 -17.5t70 -47.5t47.5 -70 t17.5 -86v-189z" />
<glyph unicode="&#xe28;" d="M499 580q-8 -32 -29 -55q15 -26 23.5 -55t8.5 -61v-409h-48v409q0 36 -13.5 67.5t-37 55t-55 37t-67.5 13.5t-67.5 -13.5t-55 -37t-37 -55t-13.5 -67.5v-94h140v-48h-140v-267h-48v409q0 46 17.5 86.5t47.5 70.5t70 47t86 17q47 0 88 -17.5t71 -49.5q7 10 11 21t4 24v23 h47v-23q0 -15 -3 -28z" />
<glyph unicode="&#xe29;" horiz-adv-x="563" d="M502 363h46v-48h-46v-94q0 -46 -17.5 -86t-47.5 -70t-70 -47.5t-86 -17.5t-86 17.5t-70 47.5t-47.5 70t-17.5 86v410h48v-410q0 -36 13.5 -67.5t37 -55t55 -37t67.5 -13.5t67.5 13.5t55 37t37 55t13.5 67.5v94h-46h-94v48h94h46v268h48v-268z" />
<glyph unicode="&#xe2a;" horiz-adv-x="542" d="M482 0h-48v348q-24 -24 -58 -35q-2 -1 -6.5 -2.5t-25 -7.5t-62 -18t-117.5 -34q-33 -11 -54.5 -39.5t-21.5 -65.5q0 -41 28 -69.5t69 -28.5h70v-48h-70q-30 0 -56.5 11.5t-46.5 31.5t-31.5 46.5t-11.5 56.5q0 46 25 84q29 48 82 65q1 1 6 2.5t25.5 7.5t63.5 18.5 t120 35.5q41 14 62 55q2 5 4.5 18t-2.5 31q-9 26 -25 48t-37.5 38t-47.5 25t-55 9q-36 0 -67.5 -13.5t-55 -37t-37 -55t-13.5 -67.5h-48q0 46 17.5 86t47.5 70t70 47.5t86 17.5q47 0 88 -18t71 -49q15 20 15 44v23h47v-23q0 -15 -3 -28q-7 -30 -29 -55q9 -14 16 -30t11 -33 q3 -11 4 -22.5t1 -29.5v-410z" />
<glyph unicode="&#xe2b;" d="M502 601q0 -42 -25.5 -74.5t-63.5 -43.5q41 -30 65 -76t24 -101v-306h-48v306q0 36 -13.5 67.5t-37 55t-55 37t-67.5 13.5t-67.5 -13.5t-55 -37t-37 -55t-13.5 -67.5v-306h-48v410v221h48v-188q31 38 75.5 61t97.5 23h1h98q31 0 52.5 21.5t21.5 52.5v30h48v-30v0z" />
<glyph unicode="&#xe2c;" d="M502 185q0 -50 -21 -92.5t-56 -72.5q0 -1 -1 -1l-1 -1q-6 -5 -12.5 -9.5t-12.5 -8.5l-16 57l-101 370l-101 -370l-16 -57q-6 4 -12.5 8.5t-12.5 9.5l-2 1q0 1 -1 1q-35 30 -55.5 73t-20.5 92v1v23v422h48v-422v-23v-1q0 -54 31 -97l105 387h74l105 -387q31 43 31 97v1v23 v422q0 29 -20.5 49.5t-49.5 20.5v48q29 0 49.5 20.5t20.5 49.5v1v32h48v-32q0 -29 -13 -53.5t-34 -41.5q21 -16 34 -40.5t13 -53.5v-422v-23v-1v0z" />
<glyph unicode="&#xe2d;" d="M281 631q46 0 86 -17.5t70 -47.5t47.5 -70t17.5 -86v-189q0 -46 -17.5 -86t-47.5 -70t-70 -47.5t-86 -17.5t-86 17.5t-70 47.5t-47.5 70t-17.5 86v46v48h140v-48h-92v-46q0 -36 13.5 -67.5t37 -55t55 -37t67.5 -13.5t67.5 13.5t55 37t37 55t13.5 67.5v189 q0 36 -13.5 67.5t-37 55t-55 37t-67.5 13.5t-67.5 -13.5t-55 -37t-37 -55t-13.5 -67.5h-48q0 46 17.5 86t47.5 70t70 47.5t86 17.5z" />
<glyph unicode="&#xe2e;" d="M499 580q-7 -31 -29 -54q15 -26 23.5 -55t8.5 -61v-189q0 -46 -17.5 -86t-47.5 -70t-70 -47.5t-86 -17.5t-86 17.5t-70 47.5t-47.5 70t-17.5 86v46v48h140v-48h-92v-46q0 -36 13.5 -67.5t37 -55t55 -37t67.5 -13.5t67.5 13.5t55 37t37 55t13.5 67.5v189q0 36 -13.5 67.5 t-37 55t-55 37t-67.5 13.5t-67.5 -13.5t-55 -37t-37 -55t-13.5 -67.5h-48q0 46 17.5 86t47.5 70t70 47.5t86 17.5q47 0 88 -18t71 -49q15 20 15 44v23h47v-23q0 -15 -3 -28z" />
<glyph unicode="&#xe2f;" horiz-adv-x="438" d="M309 495q32 -31 50.5 -72t18.5 -89v-1v-23v-531h-48v531v23v1q0 32 -11 61t-31 52q-20 -30 -52 -48t-70 -18q-30 0 -56.5 11.5t-46.5 31t-31.5 46.5t-11.5 57h48q0 -41 28.5 -69.5t69.5 -28.5t69.5 28.5t28.5 69.5h1q9 -5 17 -10.5t16 -12.5q3 -2 5.5 -4.5t5.5 -4.5z" />
<glyph unicode="&#xe30;" horiz-adv-x="316" d="M108 481h148v-48h-196v2v46v46h48v-46v0zM108 181h148v-48h-196v2v46v46h48v-46v0z" />
<glyph unicode="&#xe31;" horiz-adv-x="0" d="M-88 710h-7h-5h-2q-5 0 -13 2q-1 0 -7 2q-27 9 -44.5 32t-17.5 53v42h48v-42q0 -17 11 -28t27 -13h10h148v-48h-148z" />
<glyph unicode="&#xe32;" horiz-adv-x="503" d="M443 0h-49v410q0 36 -13.5 67.5t-37 55t-55 37t-67.5 13.5t-67.5 -13.5t-55 -37t-37 -55t-13.5 -67.5h-48q0 46 17.5 86t47.5 70t70 47.5t86 17.5t86.5 -17.5t70.5 -47.5t47.5 -70t17.5 -86v-410z" />
<glyph unicode="&#xe33;" horiz-adv-x="503" d="M443 0h-49v410q0 36 -13.5 67.5t-37 55t-55 37t-67.5 13.5t-67.5 -13.5t-55 -37t-37 -55t-13.5 -67.5h-48q0 46 17.5 86t47.5 70t70 47.5t86 17.5t86.5 -17.5t70.5 -47.5t47.5 -70t17.5 -86v-410zM-130 853q30 0 51 -21t21 -51t-21 -51t-51 -21t-51 21t-21 51t21 51 t51 21zM-130 758q11 0 17.5 7t6.5 17t-6.5 17t-17.5 7q-10 0 -17 -7t-7 -17t7 -17t17 -7z" />
<glyph unicode="&#xe34;" horiz-adv-x="0" d="M-406 709v48h346v-48h-346v0z" />
<glyph unicode="&#xe35;" horiz-adv-x="0" d="M-108 757v84h48v-84v-48h-48h-298v48h298v0z" />
<glyph unicode="&#xe36;" horiz-adv-x="0" d="M-132 853q30 0 51 -21t21 -51t-21 -51t-51 -21h-274v48h206q-4 11 -4 24q0 30 21 51t51 21zM-132 758q10 0 17 7t7 17t-7 17t-17 7t-17 -7t-7 -17t7 -17t17 -7z" />
<glyph unicode="&#xe37;" horiz-adv-x="0" d="M-108 757v84h48v-84v-48h-48h-48h-48h-202v48h202v84h48v-84h48v0z" />
<glyph unicode="&#xe38;" horiz-adv-x="0" d="M-63 -78h3v-60v-136h-48v136v12h-46v48h46h45v0z" />
<glyph unicode="&#xe39;" horiz-adv-x="0" d="M-60 -78v-124q0 -30 -21 -51t-51 -21t-51 21t-21 51v76h-46v48h46h29h19v-124q0 -10 7 -17t17 -7t17 7t7 17v124h48z" />
<glyph unicode="&#xe3a;" horiz-adv-x="0" d="M-60 -114q0 -15 -10.5 -25.5t-25.5 -10.5t-25.5 10.5t-10.5 25.5t10.5 25.5t25.5 10.5t25.5 -10.5t10.5 -25.5z" />
<glyph unicode="&#xe3b;" horiz-adv-x="0" />
<glyph unicode="&#xe3c;" horiz-adv-x="0" />
<glyph unicode="&#xe3d;" horiz-adv-x="0" />
<glyph unicode="&#xe3e;" horiz-adv-x="0" />
<glyph unicode="&#xe3f;" d="M410 278q41 -16 66.5 -52t25.5 -83q0 -30 -11.5 -56t-31 -45.5t-45.5 -30.5t-56 -11h-77v-61h-48v61h-125h-48v48v191v48v192v48h48h125v61h48v-61h31q30 0 56 -11.5t45.5 -31t31 -45.5t11.5 -56q0 -31 -12.5 -58t-33.5 -47zM281 479v-192h32q19 0 36.5 7.5t30.5 21 t20.5 30.5t7.5 37q0 40 -28 68t-68 28h-31zM108 287h125v192h-125v-192zM233 48v191h-125v-191h125zM358 48q20 0 37.5 7.5t30.5 20.5t20.5 30t7.5 37q0 40 -28 68t-68 28h-77v-191h77z" />
<glyph unicode="&#xe40;" horiz-adv-x="194" d="M108 48h46v-48h-46h-46h-2v631h48v-583v0z" />
<glyph unicode="&#xe41;" horiz-adv-x="342" d="M108 48h46v-48h-46h-46h-2v631h48v-583zM256 48h46v-48h-46h-46h-2v631h48v-583z" />
<glyph unicode="&#xe42;" horiz-adv-x="194" d="M154 48v-48h-46h-46h-2v909q0 37 -21.5 65.5t-54.5 39.5q-2 0 -3 0.5t-2 0.5l-28 8l-154 45q-27 6 -45 28.5t-18 51.5q0 34 24 58t58 24h295v-48h-295q-14 0 -24 -10t-10 -24q0 -11 6 -19.5t16 -12.5l6 -1l6 -2l173 -51l13 -4q53 -17 82 -65q24 -38 24 -84v-861h46z" />
<glyph unicode="&#xe43;" horiz-adv-x="194" d="M75 1230q30 0 57 -11.5t47.5 -31.5t32.5 -47t12 -58q0 -43 -16.5 -83.5t-48.5 -72.5l-1 -1q-25 -25 -37.5 -57t-12.5 -65v-755h46v-48h-46h-46h-2v803q0 43 16 83.5t49 72.5q25 26 37.5 58t12.5 65q0 42 -29 71t-71 29q-21 0 -39.5 -8t-32 -21.5t-21.5 -32t-8 -39.5 q0 -36 22 -63t56 -35v-48q-27 4 -50 17t-40 32.5t-26.5 44.5t-9.5 53q0 31 11.5 58t32 47t47.5 31.5t58 11.5z" />
<glyph unicode="&#xe44;" horiz-adv-x="194" d="M154 48v-48h-46h-46h-2v1009v23v1q0 42 -18 77t-48 58l-107 -107l-101 101v67v1l37 -37l64 -64l64 64l36 37q24 -13 41 -27q37 -31 58.5 -75t21.5 -95v-1v-23v-961h46z" />
<glyph unicode="&#xe45;" horiz-adv-x="502" d="M442 -237h-48v647q0 36 -13.5 67.5t-37 55t-55 37t-67.5 13.5t-67.5 -13.5t-55 -37t-37 -55t-13.5 -67.5h-48q0 46 17.5 86t47.5 70t70 47.5t86 17.5t86 -17.5t70 -47.5t47.5 -70t17.5 -86v-647z" />
<glyph unicode="&#xe46;" horiz-adv-x="542" d="M402 500q37 -31 58.5 -75t21.5 -95v-1v-23v-527h-48v527v23v1q0 42 -18 77t-48 59l-107 -107l-107 107q-30 -24 -48 -59t-18 -77v-1v-23h-1q1 -35 25 -59t59 -24v-49q-27 0 -51 10.5t-42 28.5t-28 42t-10 51v23v1q0 51 21.5 95t58.5 75q9 8 19 15t21 12l37 -36l64 -64 l64 64l36 36q11 -5 21.5 -12t19.5 -15z" />
<glyph unicode="&#xe47;" horiz-adv-x="0" d="M-200 839q-16 -2 -27 -13t-11 -28t13 -30l52 53l9 -11l39 -39q8 8 13 20h50q-9 -39 -39 -64q-5 -4 -10.5 -7.5t-10.5 -6.5l-8 -4l-44 43l-43 -43q-9 0 -20.5 7t-22.5 19t-18.5 28.5t-7.5 34.5q0 30 17.5 53t44.5 32q6 2 7 2q8 2 13 2h2h5h7h130v-48h-130h-10v0z" />
<glyph unicode="&#xe48;" horiz-adv-x="0" d="M-60 875h-48v132h48v-132v0z" />
<glyph unicode="&#xe49;" horiz-adv-x="0" d="M-110 923h148v-48h-196v2v25v21v35h-49v48h49h48v-37v-11v-35v0z" />
<glyph unicode="&#xe4a;" horiz-adv-x="0" d="M-20 923v-48h-47h-47h-1v24q0 25 -16 44l-50 -50l-9 11l-39 39q-17 -19 -17 -44v-24h-48v24q0 26 10.5 48.5t30.5 39.5q5 4 10.5 7.5t10.5 6.5l8 4l44 -43l43 43l8 -4q10 -5 21 -14q30 -25 39 -64h49z" />
<glyph unicode="&#xe4b;" horiz-adv-x="0" d="M-18 965v-48h-42v-42h-48v42h-42v48h42v42h48v-42h42v0z" />
<glyph unicode="&#xe4c;" horiz-adv-x="0" d="M20 1006v-48h-130h-10q-16 -2 -27 -13t-11 -28v-42h-48v42q0 30 17.5 53t44.5 32q6 2 7 2q8 2 13 2h2h5h7h130z" />
<glyph unicode="&#xe4d;" horiz-adv-x="0" d="M-92 853q30 0 51 -21t21 -51t-21 -51t-51 -21t-51 21t-21 51t21 51t51 21zM-92 758q11 0 17.5 7t6.5 17t-6.5 17t-17.5 7q-10 0 -17 -7t-7 -17t7 -17t17 -7z" />
<glyph unicode="&#xe4e;" horiz-adv-x="0" d="M-159 612q-15 12 -15 29q0 16 10.5 30t27.5 25t38.5 17t43.5 6q15 -1 31 -2.5t31 -7.5l11 -4v-32q-13 4 -22.5 7.5t-17.5 5t-15.5 2.5t-17.5 1q-14 0 -29.5 -4t-29 -11t-22.5 -15.5t-9 -17.5q0 -12 38 -21l11 -4v-25h-15q-2 0 -5.5 0.5t-5.5 0.5q-9 0 -19.5 -5t-19.5 -12 t-15 -14.5t-6 -13.5q0 -16 13.5 -26t35.5 -10q40 0 57 30l5 8h31l-9 -22q-25 -46 -84 -46q-17 0 -31.5 5t-25 14t-16.5 21t-6 26q0 39 52 65z" />
<glyph unicode="&#xe4f;" horiz-adv-x="412" d="M242 230q0 -14 -10.5 -25t-25.5 -11t-25.5 11t-10.5 25q0 15 10.5 25.5t25.5 10.5t25.5 -10.5t10.5 -25.5zM206 377q30 0 56.5 -11.5t46.5 -31.5t31.5 -46.5t11.5 -56.5t-11.5 -57t-31.5 -46.5t-46.5 -31t-56.5 -11.5t-57 11.5t-46.5 31t-31 46.5t-11.5 57t11.5 56.5 t31 46.5t46.5 31.5t57 11.5zM205 133q41 0 69.5 28.5t28.5 69.5t-28.5 69.5t-69.5 28.5t-69.5 -28.5t-28.5 -69.5t28.5 -69.5t69.5 -28.5z" />
<glyph unicode="&#xe50;" d="M281 527q46 0 86 -17.5t70 -47.5t47.5 -70t17.5 -86v-85q0 -46 -17.5 -86t-47.5 -70t-70 -47.5t-86 -17.5t-86 17.5t-70 47.5t-47.5 70t-17.5 86v85q0 46 17.5 86t47.5 70t70 47.5t86 17.5zM281 48q36 0 67.5 13.5t55 37t37 55t13.5 67.5v85q0 36 -13.5 67.5t-37 55 t-55 37t-67.5 13.5t-67.5 -13.5t-55 -37t-37 -55t-13.5 -67.5v-85q0 -36 13.5 -67.5t37 -55t55 -37t67.5 -13.5z" />
<glyph unicode="&#xe51;" d="M281 527q46 0 86 -17t70 -47t47.5 -70t17.5 -86v-86q0 -46 -17.5 -86t-47.5 -70t-70 -47.5t-86 -17.5t-86 17.5t-70 47.5t-47.5 70t-17.5 86h48q0 -36 13.5 -67.5t37 -55t55 -37t67.5 -13.5t67.5 13.5t55 37t37 55t13.5 67.5v85q0 36 -13.5 67.5t-37 55t-55 37 t-67.5 13.5q-32 0 -60.5 -11t-51 -30t-37.5 -45t-21 -56q0 -5 1 -10t4 -10q17 -29 96 -29v-48q-105 0 -137 52q-4 7 -7 14q-4 10 -5 19.5t0 18.5q2 17 6.5 28.5t4.5 12.5q12 31 32.5 57t47.5 45t59.5 29.5t67.5 10.5z" />
<glyph unicode="&#xe52;" d="M422 500q37 -31 58.5 -75t21.5 -95v-1v-23v-85q0 -46 -17.5 -86t-47.5 -70t-70 -47.5t-86 -17.5t-86 17.5t-70 47.5t-47.5 70t-17.5 86v410h48v-410q0 -36 13.5 -67.5t37 -55t55 -37t67.5 -13.5t67.5 13.5t55 37t37 55t13.5 67.5v85v23v1q0 42 -18 77t-48 59l-25 -25 l-34 -34l-34 34l-25 25q-30 -24 -48 -59t-18 -77v-1v-23h-48v23v1q0 51 21.5 95t58.5 75q17 14 41 27l36 -36l16 -16l16 16l36 36q24 -13 41 -27z" />
<glyph unicode="&#xe53;" d="M422 500q37 -31 58.5 -75t21.5 -95v-1v-23v-306h-48v306v23v1q0 42 -18 77t-48 59l-107 -107l-107 107q-30 -24 -48 -59t-18 -77v-1v-23v-85q0 -36 13.5 -67.5t37 -55t55 -37t67.5 -13.5v-48q-46 0 -86 17.5t-70 47.5t-47.5 70t-17.5 86v85v23v1q0 51 21.5 95t58.5 75 q9 8 19.5 15t21.5 12l36 -36l64 -64l64 64l36 36q11 -5 21.5 -12t19.5 -15z" />
<glyph unicode="&#xe54;" d="M329 221q0 -36 13.5 -67.5t37 -55t55 -37t67.5 -13.5v-48h-221q-46 0 -86 17.5t-70 47.5t-47.5 70t-17.5 86v86q0 46 17.5 86t47.5 70t70 47t86 17q27 0 53 7.5t48.5 21.5t40.5 33t28 42h51q-11 -33 -33 -61t-51.5 -48t-64.5 -31.5t-72 -11.5q-36 0 -67.5 -13.5t-55 -37 t-37 -55t-13.5 -67.5v-85q0 -36 13.5 -67.5t37 -55t55 -37t67.5 -13.5h83q-38 30 -60.5 75t-22.5 98h48v0z" />
<glyph unicode="&#xe55;" d="M329 221q0 -36 13.5 -67.5t37 -55t55 -37t67.5 -13.5v-48h-221q-46 0 -86 17.5t-70 47.5t-47.5 70t-17.5 86v86q0 37 11.5 70.5t32 61t49 47.5t62.5 31q-10 16 -10 38q0 32 22 54t54 22t54 -22t22 -54q0 -8 -1 -12q32 13 56.5 36t38.5 52h51q-11 -33 -33 -61t-51.5 -48 t-64.5 -31.5t-72 -11.5h-4q-35 -1 -66 -15t-54 -37t-36 -54.5t-13 -66.5v-85q0 -36 13.5 -67.5t37 -55t55 -37t67.5 -13.5h83q-38 30 -60.5 75t-22.5 98h48zM253 555q0 -11 7 -19t18 -9h3q11 0 19.5 8.5t8.5 19.5t-8.5 19.5t-19.5 8.5q-12 0 -20 -8.5t-8 -19.5z" />
<glyph unicode="&#xe56;" horiz-adv-x="502" d="M221 527q46 0 86 -17t70 -47t47.5 -70t17.5 -86v-86q0 -46 -17.5 -86t-47.5 -70t-70 -47.5t-86 -17.5q-30 0 -57 11.5t-46.5 31t-31 46.5t-11.5 57t11.5 57t31 46.5t46.5 31t57 11.5v-48q-41 0 -69.5 -28.5t-28.5 -69.5t28.5 -69.5t69.5 -28.5q36 0 67.5 13.5t55 37 t37 55t13.5 67.5v85q0 36 -13.5 67.5t-37 55t-55 37t-67.5 13.5q-53 0 -97 -30l-26 26v10q0 41 -28.5 69.5t-69.5 28.5v48q54 0 93.5 -33.5t49.5 -84.5q37 14 78 14z" />
<glyph unicode="&#xe57;" horiz-adv-x="658" d="M550 631h48v-535q0 -40 -28 -68t-68 -28h-48v306v23v1q0 42 -18 77t-48 59l-107 -107l-107 107q-30 -24 -48 -59t-18 -77v-1v-23v-85q0 -36 13.5 -67.5t37 -55t55 -37t67.5 -13.5v-48q-46 0 -86 17.5t-70 47.5t-47.5 70t-17.5 86v85v23v1q0 51 21.5 95t58.5 75 q9 8 19.5 15t21.5 12l36 -36l64 -64l64 64l36 36q11 -5 21.5 -12t19.5 -15q37 -31 58.5 -75t21.5 -95v-1v-23v-258q20 0 34 14t14 34v535z" />
<glyph unicode="&#xe58;" d="M502 221v-23v-1q0 -51 -21.5 -95t-58.5 -75q-9 -8 -19.5 -15t-21.5 -12l-36 36l-64 64l-64 -64l-36 -36q-11 5 -21.5 12t-19.5 15q-37 31 -58.5 75t-21.5 95v1v23v86q0 46 17.5 86t47.5 70t70 47t86 17q27 0 53 7.5t48.5 21.5t40.5 33t28 42h51q-11 -33 -33 -61 t-51.5 -48t-64.5 -31.5t-72 -11.5q-36 0 -67.5 -13.5t-55 -37t-37 -55t-13.5 -67.5v-85v-2v-21v-1q0 -42 18 -77t48 -59l107 107l107 -107q30 24 48 59t18 77v1v23h-63v48h111v-48z" />
<glyph unicode="&#xe59;" horiz-adv-x="598" d="M598 631q-11 -33 -33 -61t-51.5 -48t-64.5 -31.5t-72 -11.5q-26 -1 -45.5 -17.5t-24.5 -41.5l152 -402l-44 -17l-154 404l-4 10l-4 12l-3 7q-8 20 -26.5 32.5t-41.5 12.5q-31 0 -52.5 -22t-21.5 -52v-259q0 -41 28.5 -69.5t69.5 -28.5v-48q-30 0 -57 11.5t-46.5 31 t-31 46.5t-11.5 57v259q0 25 9.5 47.5t26 39t39 26t47.5 9.5q30 0 56 -13.5t43 -36.5q17 23 42.5 36.5t55.5 13.5q26 0 52 8t48.5 22t40 32.5t27.5 41.5h51v0z" />
<glyph unicode="&#xe5a;" horiz-adv-x="573" d="M349 495q32 -31 50.5 -72t18.5 -89v-1v-23v-531h-48v531v23v1q0 32 -11 61t-31 52q-20 -30 -52 -48t-70 -18q-30 0 -56.5 11.5t-46.5 31t-31.5 46.5t-11.5 57h48q0 -41 28.5 -69.5t69.5 -28.5t69.5 28.5t28.5 69.5h1q9 -5 17 -10.5t16 -12.5q3 -2 5.5 -4.5t5.5 -4.5z M465 400h48v-620h-48v620z" />
<glyph unicode="&#xe5b;" horiz-adv-x="660" />
<glyph unicode="&#x200b;" horiz-adv-x="0" />
<glyph unicode="&#x2013;" horiz-adv-x="461" d="M401 233h-341v49h341v-49v0z" />
<glyph unicode="&#x2014;" horiz-adv-x="441" d="M441 233h-441v49h441v-49v0z" />
<glyph unicode="&#x2018;" horiz-adv-x="192" d="M60 548q1 8 2.5 15.5t4.5 14.5q4 11 11 19t15 16q9 7 18 11q1 0 11 4q4 2 10 3v-50q-12 -6 -21 -21q21 -10 21 -32q0 -15 -10.5 -25.5t-25.5 -10.5q-9 0 -15 3q-11 5 -15 13.5t-6 19.5v20z" />
<glyph unicode="&#x2019;" horiz-adv-x="192" d="M132 574q-1 -7 -2.5 -14.5t-3.5 -14.5q-7 -20 -27 -35q-8 -8 -18 -12q-1 -1 -11 -3q-4 -1 -10 -3v50q15 7 21 20q-21 10 -21 33q0 15 10.5 25.5t25.5 10.5q7 0 15 -4q11 -5 15.5 -13t5.5 -19v-21z" />
<glyph unicode="&#x201a;" horiz-adv-x="0" d="M-208 841h48v-84v-48h-48h-298v48h298v84z" />
<glyph unicode="&#xf702;" horiz-adv-x="0" d="M-208 841h48v-84v-48h-48h-298v48h298v84z" />
<glyph unicode="&#x201e;" horiz-adv-x="0" d="M-208 841h48v-84v-48h-48h-48h-48h-202v48h202v84h48v-84h48v84z" />
<glyph unicode="&#xf704;" horiz-adv-x="0" d="M-208 841h48v-84v-48h-48h-48h-48h-202v48h202v84h48v-84h48v84z" />
<glyph unicode="&#x2020;" horiz-adv-x="0" d="M-160 709h-48v132h48v-132v0z" />
<glyph unicode="&#xf705;" horiz-adv-x="0" d="M-160 709h-48v132h48v-132v0z" />
<glyph unicode="&#x2021;" horiz-adv-x="0" d="M-40 757v-48h-196v2v25v21v35h-49v48h49h48v-37v-11v-35h148z" />
<glyph unicode="&#xf706;" horiz-adv-x="0" d="M-40 757v-48h-196v2v25v21v35h-49v48h49h48v-37v-11v-35h148z" />
<glyph unicode="&#x2022;" horiz-adv-x="343" d="M171 65q-25 0 -48 10t-40 27t-27 39.5t-10 48.5q0 25 10 48t27.5 40t40 27t47.5 10t48 -10t40 -27t27 -40t10 -48t-10 -47.5t-27 -40t-40 -27.5t-48 -10z" />
<glyph unicode="&#x2026;" horiz-adv-x="480" d="M132 36q0 -15 -10.5 -25.5t-25.5 -10.5t-25.5 10.5t-10.5 25.5t10.5 25.5t25.5 10.5t25.5 -10.5t10.5 -25.5zM276 36q0 -15 -10.5 -25.5t-25.5 -10.5t-25.5 10.5t-10.5 25.5t10.5 25.5t25.5 10.5t25.5 -10.5t10.5 -25.5zM420 36q0 -15 -10.5 -25.5t-25.5 -10.5 t-25.5 10.5t-10.5 25.5t10.5 25.5t25.5 10.5t25.5 -10.5t10.5 -25.5z" />
<glyph unicode="&#x2030;" horiz-adv-x="0" d="M-118 751h-42v-42h-48v42h-42v48h42v42h48v-42h42v-48z" />
<glyph unicode="&#xf708;" horiz-adv-x="0" d="M-118 751h-42v-42h-48v42h-42v48h42v42h48v-42h42v-48z" />
<glyph unicode="&#x2039;" horiz-adv-x="0" d="M-60 709h-48v132h48v-132v0z" />
<glyph unicode="&#xf70a;" horiz-adv-x="0" d="M-60 709h-48v132h48v-132v0z" />
<glyph unicode="&#x203a;" horiz-adv-x="0" d="M-160 888h-48v132h48v-132z" />
<glyph unicode="&#xf713;" horiz-adv-x="0" d="M-160 888h-48v132h48v-132z" />
<glyph unicode="&#x20ac;" horiz-adv-x="502" d="M221 583q-36 0 -67.5 -13.5t-55 -37t-37 -55t-13.5 -67.5h-48q0 46 17.5 86t47.5 70t70 47.5t86 17.5q47 0 88 -18t71 -49q15 20 15 44v23h47v-23q0 -15 -3 -28q-7 -30 -29 -55q15 -25 23.5 -54t8.5 -61v-410h-48v267h-129v48h129v95q0 36 -13.5 67.5t-37 55t-55 37 t-67.5 13.5z" />
<glyph unicode="&#xf700;" horiz-adv-x="502" d="M221 583q-36 0 -67.5 -13.5t-55 -37t-37 -55t-13.5 -67.5h-48q0 46 17.5 86t47.5 70t70 47.5t86 17.5q47 0 88 -18t71 -49q15 20 15 44v23h47v-23q0 -15 -3 -28q-7 -30 -29 -55q15 -25 23.5 -54t8.5 -61v-410h-48v267h-129v48h129v95q0 36 -13.5 67.5t-37 55t-55 37 t-67.5 13.5z" />
<glyph unicode="&#x2122;" horiz-adv-x="0" d="M-152 853q30 0 51 -21t21 -51t-21 -51t-51 -21t-51 21t-21 51t21 51t51 21zM-152 758q11 0 17.5 7t6.5 17t-6.5 17t-17.5 7q-10 0 -17 -7t-7 -17t7 -17t17 -7z" />
<glyph unicode="&#xf711;" horiz-adv-x="0" d="M-152 853q30 0 51 -21t21 -51t-21 -51t-51 -21t-51 21t-21 51t21 51t51 21zM-152 758q11 0 17.5 7t6.5 17t-6.5 17t-17.5 7q-10 0 -17 -7t-7 -17t7 -17t17 -7z" />
<glyph unicode="&#x25cc;" horiz-adv-x="512" d="M257 46q9 0 16.5 -6.5t7.5 -16.5q0 -9 -7.5 -16t-16.5 -7q-10 0 -16.5 7t-6.5 16q0 10 6.5 16.5t16.5 6.5zM441 233q11 0 17.5 -7t6.5 -16q0 -10 -6 -17t-18 -7q-9 0 -15.5 7t-6.5 17q0 9 6.5 16t15.5 7zM71 233q8 0 15.5 -7t7.5 -16q0 -10 -7 -17t-16 -7q-10 0 -17 7 t-7 17q0 9 7 16t17 7zM257 418q9 0 16.5 -6.5t7.5 -15.5q0 -10 -7.5 -16.5t-16.5 -6.5q-10 0 -16.5 6.5t-6.5 16.5q0 9 6.5 15.5t16.5 6.5zM126 363q10 0 17 -6t7 -18q0 -9 -7 -16t-17 -7q-9 0 -16 7t-7 16q0 12 7 18t16 6zM387 363q9 0 16 -6t7 -18q0 -9 -6.5 -16t-16.5 -7 t-17 7t-7 16q0 12 7 18t17 6zM387 102q9 0 16 -6.5t7 -16.5t-6.5 -16.5t-16.5 -6.5t-17 6.5t-7 16.5t7 16.5t17 6.5zM126 102q10 0 17 -6.5t7 -16.5t-7 -16.5t-17 -6.5q-9 0 -16 6.5t-7 16.5t7 16.5t16 6.5z" />
<glyph unicode="&#x25fc;" horiz-adv-x="525" d="M0 525h525v-525h-525v525z" />
<glyph unicode="&#xf701;" horiz-adv-x="0" d="M-506 757h346v-48h-346v48z" />
<glyph unicode="&#xf70c;" horiz-adv-x="0" d="M-20 757v-48h-47h-47h-1v24q0 25 -16 44l-50 -50l-9 11l-39 39q-17 -19 -17 -44v-24h-48v24q0 26 10.5 48.5t30.5 39.5q5 4 10.5 7.5t10.5 6.5l8 4l44 -43l43 43l8 -4q10 -5 21 -14q30 -25 39 -64h49z" />
<glyph unicode="&#xf70e;" horiz-adv-x="0" d="M20 840v-48h-130h-10q-16 -2 -27 -13t-11 -28v-42h-48v42q0 30 17.5 53t44.5 32q6 2 7 2q8 2 13 2h2h5h7h130z" />
<glyph unicode="&#xf70f;" horiz-adv-x="962" d="M902 220q0 -46 -17.5 -86t-47.5 -70t-70 -47t-86 -17q-11 0 -22.5 1t-22.5 3q-38 8 -70 28t-55.5 48.5t-37 64.5t-13.5 76v189q0 36 -13.5 67.5t-37 55t-55 37t-67.5 13.5q-54 0 -96 -28.5t-62 -74.5l-21 -42l6 -40v-201v-61v-42q0 -25 9 -46h48h76v-48h-76h-74 q-1 1 -1 1.5t-1 1.5q-6 8 -10.5 17t-8.5 18q-10 26 -10 56v316l-6 40l27 54l3 6q27 54 79.5 87.5t117.5 33.5q46 0 86 -17.5t70 -47.5t47.5 -70t17.5 -86v-189q0 -30 9.5 -57t26.5 -49t40.5 -38t50.5 -23q7 -2 13.5 -3t14.5 -2q-8 1 -14.5 2t-13.5 3q18 -4 38 -6h2h1h5 q36 0 67.5 13.5t55 37t37 55t13.5 67.5v410h48v-410v-1z" />
<glyph unicode="&#xf715;" horiz-adv-x="0" d="M-120 936v-48h-47h-47h-1v24q0 25 -16 44l-50 -50l-9 11l-39 39q-17 -19 -17 -44v-24h-48v24q0 26 10.5 48.5t30.5 39.5q5 4 10.5 7.5t10.5 6.5l8 4l44 -43l43 43l8 -4q10 -5 21 -14q30 -25 39 -64h49z" />
<glyph unicode="&#xf718;" horiz-adv-x="0" d="M-63 -320h3v-60v-136h-48v136v12h-46v48h46h45v0z" />
<glyph unicode="&#xf719;" horiz-adv-x="0" d="M-60 -320v-124q0 -30 -21 -51t-51 -21t-51 21t-21 51v76h-46v48h46h29h19v-124q0 -10 7 -17t17 -7t17 7t7 17v124h48z" />
<glyph unicode="&#xf71a;" horiz-adv-x="0" d="M-60 -356q0 -15 -10.5 -25.5t-25.5 -10.5t-25.5 10.5t-10.5 25.5t10.5 25.5t25.5 10.5t25.5 -10.5t10.5 -25.5z" />
<glyph d="M502 185q0 -50 -21 -92.5t-56 -72.5q0 -1 -1 -1l-1 -1q-6 -5 -12.5 -9.5t-12.5 -8.5l-16 57l-101 370l-101 -370l-16 -57q-6 4 -12.5 8.5t-12.5 9.5l-2 2v-1q0 1 -1 1q-35 30 -55.5 73t-20.5 92v1v23v422h48v-422v-23v-1q0 -54 31 -97l117 430h50l117 -430q31 43 31 97v1 v23v201q0 29 -20.5 49.5t-49.5 20.5v48q29 0 49.5 21t20.5 50v32h48v-32q0 -29 -13 -53.5t-34 -41.5q21 -16 34 -40.5t13 -53.5v-201v-23v-1z" />
<glyph horiz-adv-x="503" d="M443 0h-49v410q0 36 -13.5 67.5t-37 55t-55 37t-67.5 13.5t-67.5 -13.5t-55 -37t-37 -55t-13.5 -67.5h-48q0 46 17.5 86t47.5 70t70 47.5t86 17.5t86.5 -17.5t70.5 -47.5t47.5 -70t17.5 -86v-410zM-227 853q30 0 51 -21t21 -51t-21 -51t-51 -21t-51 21t-21 51t21 51 t51 21zM-227 758q11 0 17.5 7t6.5 17t-6.5 17t-17.5 7q-10 0 -17 -7t-7 -17t7 -17t17 -7z" />
<glyph horiz-adv-x="0" d="M-266 612q-15 12 -15 29q0 16 11 30.5t28 25t38.5 16.5t42.5 6q16 0 31.5 -2.5t30.5 -7.5l10 -4v-32q-13 4 -22 7.5t-17 5t-15.5 2.5t-17.5 1q-13 0 -29 -4t-29.5 -11t-22.5 -15.5t-9 -17.5q0 -12 37 -21l12 -4v-25h-16q-1 0 -4 0.5t-6 0.5q-10 0 -21 -5t-19.5 -12.5 t-14 -15t-5.5 -12.5q0 -16 14 -26t34 -10q42 0 58 30l4 8h32l-10 -22q-25 -46 -84 -46q-17 0 -31.5 5t-25 14t-16.5 21t-6 26q0 39 53 65z" />
</font>
</defs>
</svg>
